<?xml version="1.0" standalone="no"?><!DOCTYPE svg PUBLIC "-//W3C//DTD SVG 1.1//EN" "http://www.w3.org/Graphics/SVG/1.1/DTD/svg11.dtd"><svg height="1024" node-id="1" sillyvg="true" template-height="1024" template-width="1024" version="1.1" viewBox="0 0 1024 1024" width="1024" xmlns="http://www.w3.org/2000/svg" xmlns:xlink="http://www.w3.org/1999/xlink"><defs node-id="100"></defs><path d="M 0.00 0.00 L 1024.00 0.00 L 1024.00 1024.00 L 0.00 1024.00 Z" fill="none" node-id="102" stroke="none" target-height="1024" target-width="1024" target-x="0" target-y="0"></path><g node-id="295"><path d="M 909.88 565.00 C 898.64 549.18 889.07 534.75 880.88 521.49 C 857.15 510.97 829.39 517.11 829.02 517.19 C 826.78 517.75 824.41 517.05 822.82 515.37 C 821.23 513.69 820.68 511.28 821.37 509.07 C 822.05 506.87 823.88 505.20 826.14 504.72 C 827.58 504.38 848.44 499.77 870.96 504.72 C 772.62 331.32 942.84 381.99 787.36 185.72 C 690.10 62.91 540.00 67.00 421.35 117.18 C 433.17 123.48 445.48 128.80 458.17 133.09 C 461.15 134.08 462.97 137.09 462.47 140.18 C 461.97 143.28 459.31 145.57 456.17 145.58 C 455.49 145.58 454.81 145.47 454.17 145.25 C 438.29 139.80 422.95 132.88 408.35 124.57 C 407.81 124.26 407.35 123.94 406.78 123.62 C 323.39 162.33 258.06 223.11 242.17 275.89 C 227.53 324.49 193.23 357.13 170.00 379.51 C 133.00 415.18 94.00 439.77 85.28 505.33 C 81.41 534.53 79.61 558.93 82.01 581.83 C 102.46 594.83 115.52 582.18 115.65 582.05 C 118.19 579.88 121.98 580.03 124.34 582.40 C 126.70 584.78 126.84 588.57 124.65 591.10 C 120.35 595.41 111.49 600.52 99.98 600.52 C 94.61 600.49 89.30 599.44 84.32 597.42 C 96.85 660.42 146.55 717.62 281.02 843.00 C 521.00 1066.70 1085.09 811.50 909.88 565.00 Z" fill="#e61f19" fill-opacity="0.2" fill-rule="nonzero" group-id="1" node-id="106" stroke="none" target-height="1003.79" target-width="1005.48" target-x="79.61" target-y="62.91"></path></g><path d="M 693.06 394.00 C 701.96 381.33 716.75 373.62 732.38 374.60 L 737.77 375.32 C 744.89 376.32 747.35 382.04 745.15 392.47 L 731.74 388.47 C 732.90 385.13 734.74 382.06 737.15 379.47 C 743.88 372.27 755.90 368.04 765.22 371.74 C 767.77 372.74 768.88 368.62 766.35 367.62 C 751.71 361.82 732.08 372.40 727.63 387.31 C 722.91 403.11 740.86 403.69 749.18 394.31 C 760.47 381.61 746.31 371.61 733.88 370.45 C 716.18 368.80 699.44 377.45 689.37 391.82 C 687.79 394.07 691.49 396.20 693.06 393.97 Z" fill="#040000" fill-rule="nonzero" node-id="109" stroke="none" target-height="41.869995" target-width="81.09003" target-x="687.79" target-y="361.82"></path><path d="M 746.53 365.86 L 759.33 378.66 L 772.13 370.13 C 772.13 370.13 836.13 417.06 861.73 357.33 C 887.33 297.60 823.33 263.46 784.93 284.79 C 746.53 306.12 764.25 354.25 764.25 354.25 Z" fill="#ffffff" fill-rule="nonzero" node-id="111" stroke="none" target-height="153.6" target-width="140.79999" target-x="746.53" target-y="263.46"></path><path d="M 820.37 389.80 C 798.48 389.80 777.37 376.35 772.10 372.71 L 760.52 380.43 C 759.67 380.99 758.54 380.89 757.82 380.17 L 745.00 367.37 C 744.55 366.91 744.33 366.28 744.39 365.64 C 744.46 365.00 744.81 364.43 745.34 364.07 L 761.70 353.36 C 759.01 344.58 748.40 302.63 783.87 282.93 C 804.81 271.29 833.63 275.17 852.42 292.12 C 870.55 308.48 874.65 332.55 863.67 358.17 C 856.67 374.39 846.32 384.50 832.75 388.17 C 828.71 389.26 824.55 389.81 820.37 389.80 Z M 772.13 368.00 C 772.58 368.00 773.02 368.14 773.39 368.41 C 773.71 368.64 805.17 391.34 831.66 384.09 C 843.90 380.75 853.36 371.46 859.77 356.50 C 869.98 332.67 866.27 310.36 849.58 295.30 C 832.11 279.53 805.35 275.90 785.97 286.67 C 749.59 306.88 766.08 353.06 766.25 353.52 C 766.60 354.45 766.25 355.50 765.42 356.04 L 749.89 366.20 L 759.60 375.91 L 771.00 368.35 C 771.34 368.13 771.73 368.01 772.13 368.00 Z" fill="#040000" fill-rule="nonzero" node-id="113" stroke="none" target-height="120.04999" target-width="130.32379" target-x="744.32623" target-y="271.29"></path><path d="M 439.33 502.39 C 409.46 498.13 334.33 540.22 292.76 597.88 C 289.14 602.84 288.73 609.45 291.71 614.82 C 299.44 628.67 318.00 655.77 353.40 676.28 C 359.92 679.97 368.14 678.52 373.00 672.82 C 399.34 642.29 483.00 546.00 447.86 506.66 C 441.26 499.28 449.13 503.79 439.33 502.39 Z" fill="#040000" fill-rule="nonzero" node-id="115" stroke="none" target-height="181.83887" target-width="194.26505" target-x="288.73495" target-y="498.13"></path><path d="M 361.05 680.46 C 357.99 680.46 354.98 679.66 352.33 678.12 C 316.68 657.47 297.88 630.25 289.84 615.86 C 286.48 609.77 286.93 602.28 291.00 596.63 C 324.88 549.63 401.72 494.90 439.60 500.28 C 442.79 500.74 443.66 500.48 443.69 500.47 C 444.20 500.06 444.90 499.98 445.49 500.27 C 446.19 500.54 446.72 501.14 446.88 501.88 C 447.56 503.12 448.42 504.25 449.43 505.24 C 485.55 545.62 402.51 641.86 375.22 673.48 L 374.59 674.22 C 371.19 678.16 366.25 680.43 361.05 680.46 Z M 435.00 504.24 C 405.06 504.24 335.53 542.24 294.51 599.13 C 291.40 603.43 291.04 609.13 293.59 613.78 C 301.41 627.78 319.72 654.29 354.49 674.43 C 360.12 677.62 367.21 676.36 371.40 671.43 L 372.04 670.69 C 398.72 639.77 479.92 545.69 446.29 508.08 C 445.34 507.05 444.47 505.94 443.68 504.78 C 442.13 504.85 440.58 504.76 439.05 504.50 C 437.71 504.32 436.35 504.24 435.00 504.24 Z" fill="#040000" fill-rule="nonzero" node-id="117" stroke="none" target-height="185.5646" target-width="199.07474" target-x="286.47525" target-y="494.9"></path><path d="M 625.55 488.78 C 656.30 495.72 685.33 508.82 710.88 527.28 L 700.00 671.43 L 720.91 933.33 L 349.71 937.59 C 349.71 937.59 342.50 772.19 366.78 617.59 C 372.36 582.02 400.91 532.26 427.70 507.06 L 427.70 507.06 C 456.42 489.72 486.15 482.06 536.00 483.06 L 566.92 483.06 C 586.62 482.61 606.29 484.54 625.53 488.79" fill="#ffffff" fill-rule="nonzero" node-id="119" stroke="none" target-height="455.53003" target-width="378.40997" target-x="342.5" target-y="482.06"></path><path d="M 349.73 939.73 C 348.60 939.73 347.67 938.86 347.60 937.73 C 347.53 936.07 340.66 770.34 364.69 617.30 C 370.16 582.47 397.78 532.30 426.26 505.54 C 426.37 505.44 426.49 505.35 426.62 505.27 C 457.16 486.83 487.79 480.00 536.06 480.95 L 566.92 480.95 C 586.77 480.51 606.61 482.44 626.00 486.70 L 626.00 486.70 C 657.03 493.72 686.31 506.94 712.11 525.55 C 712.71 525.99 713.05 526.70 713.00 527.44 L 702.14 671.59 L 723.06 933.15 C 723.11 933.74 722.91 934.32 722.51 934.76 C 722.11 935.20 721.55 935.45 720.96 935.46 L 349.76 939.73 Z M 429.02 508.73 C 401.65 534.57 374.15 584.49 368.91 617.88 C 346.39 761.26 351.07 915.82 351.78 935.40 L 718.62 931.18 L 697.89 671.60 L 708.67 528.32 C 683.58 510.40 655.16 497.66 625.09 490.86 C 606.02 486.66 586.52 484.76 567.00 485.18 L 536.00 485.18 C 488.73 484.25 458.73 490.88 429.00 508.77 Z" fill="#040000" fill-rule="nonzero" node-id="121" stroke="none" target-height="459.73212" target-width="382.4507" target-x="340.66" target-y="480"></path><path d="M 349.73 668.79 L 298.53 621.86 C 298.53 621.86 213.20 737.06 264.40 778.12 C 302.40 808.56 430.80 698.66 430.80 698.66 L 392.40 654.39" fill="#ffffff" fill-rule="nonzero" node-id="123" stroke="none" target-height="186.70001" target-width="217.59999" target-x="213.2" target-y="621.86"></path><path d="M 281.74 785.52 C 274.39 785.52 268.03 783.77 263.07 779.79 C 241.29 762.33 240.34 729.11 260.31 683.73 C 275.17 649.97 296.60 620.88 296.82 620.59 L 298.23 618.69 L 351.17 667.22 L 348.29 670.37 L 298.86 625.05 C 288.14 640.19 220.26 739.99 265.73 776.46 C 299.64 803.65 412.73 710.98 427.73 698.46 L 390.73 655.83 L 394.00 653.00 L 433.81 698.89 L 432.18 700.29 C 427.56 704.24 331.91 785.51 281.74 785.52 Z" fill="#040000" fill-rule="nonzero" node-id="125" stroke="none" target-height="184.96002" target-width="213.55" target-x="220.26" target-y="618.69"></path><path d="M 292.76 597.88 C 289.14 602.84 288.73 609.45 291.71 614.82 C 299.44 628.67 318.00 655.77 353.40 676.28 C 359.92 679.97 368.14 678.52 373.00 672.82" fill="#040000" fill-rule="nonzero" node-id="127" stroke="none" target-height="82.08887" target-width="84.265045" target-x="288.73495" target-y="597.88"></path><path d="M 361.05 680.46 C 357.99 680.46 354.98 679.66 352.33 678.12 C 316.68 657.47 297.88 630.25 289.84 615.86 C 286.48 609.77 286.93 602.28 291.00 596.63 C 291.69 595.67 293.02 595.46 293.98 596.15 C 294.94 596.84 295.15 598.17 294.46 599.13 C 291.35 603.43 290.99 609.13 293.54 613.78 C 301.36 627.78 319.67 654.29 354.44 674.43 C 360.07 677.61 367.16 676.36 371.35 671.43 C 372.13 670.60 373.44 670.53 374.30 671.28 C 375.17 672.02 375.30 673.32 374.59 674.22 C 371.19 678.16 366.25 680.43 361.05 680.46 Z" fill="#040000" fill-rule="nonzero" node-id="129" stroke="none" target-height="85.004944" target-width="88.82208" target-x="286.47525" target-y="595.45966"></path><path d="M 503.37 442.00 C 503.37 442.00 508.02 482.79 484.75 492.20 C 484.75 492.20 531.30 526.71 587.15 489.06 C 587.15 489.06 563.88 476.51 568.53 429.45 Z" fill="#ffffff" fill-rule="nonzero" node-id="131" stroke="none" target-height="97.26001" target-width="102.400024" target-x="484.75" target-y="429.45"></path><path d="M 533.32 508.68 C 503.90 508.68 483.79 494.15 483.48 493.92 C 482.86 493.46 482.54 492.70 482.64 491.94 C 482.74 491.18 483.24 490.52 483.95 490.23 C 505.44 481.54 501.29 442.64 501.25 442.23 C 501.12 441.12 501.87 440.10 502.97 439.90 L 568.13 427.35 C 568.79 427.22 569.47 427.41 569.97 427.87 C 570.47 428.32 570.72 428.98 570.66 429.65 C 566.22 474.52 587.95 487.06 588.17 487.18 C 588.82 487.54 589.24 488.21 589.28 488.95 C 589.32 489.69 588.96 490.40 588.34 490.82 C 568.36 504.31 549.44 508.68 533.32 508.68 Z M 489.05 492.45 C 497.29 497.30 506.27 500.77 515.63 502.71 C 538.77 507.53 561.54 502.93 583.35 489.01 C 577.19 484.01 563.35 468.60 566.16 432.09 L 505.67 443.74 C 506.27 451.81 507.18 481.70 489.05 492.45 Z" fill="#040000" fill-rule="nonzero" node-id="133" stroke="none" target-height="81.46045" target-width="106.77069" target-x="482.54492" target-y="427.21954"></path><path d="M 443.14 318.62 L 469.20 318.62 L 469.20 318.62 L 469.20 368.34 L 469.20 368.34 L 436.00 368.34 C 424.25 368.34 414.73 358.82 414.73 347.07 L 414.73 347.07 C 414.73 331.37 427.44 318.64 443.14 318.62 Z" fill="#ffffff" fill-rule="nonzero" node-id="135" stroke="none" target-height="49.72" target-width="54.47003" target-x="414.72998" target-y="318.62"></path><path d="M 469.20 370.47 L 438.38 370.47 C 424.13 370.45 412.58 358.90 412.56 344.65 L 412.56 342.31 C 412.58 328.06 424.13 316.51 438.38 316.49 L 469.20 316.49 C 470.38 316.49 471.33 317.44 471.33 318.62 L 471.33 368.33 C 471.33 368.90 471.11 369.44 470.71 369.84 C 470.31 370.24 469.77 370.47 469.20 370.47 Z M 438.38 320.75 C 426.48 320.76 416.83 330.41 416.82 342.31 L 416.82 344.65 C 416.84 356.55 426.48 366.19 438.38 366.20 L 467.07 366.20 L 467.07 320.75 Z" fill="#040000" fill-rule="nonzero" node-id="137" stroke="none" target-height="53.98001" target-width="58.772675" target-x="412.56" target-y="316.49"></path><path d="M 626.87 368.33 L 595.74 368.33 L 595.74 368.33 L 595.74 318.61 L 595.74 318.61 L 623.90 318.61 L 627.52 318.86 L 630.92 319.55 L 634.15 320.68 L 637.21 322.22 L 639.99 324.10 L 642.53 326.32 L 644.75 328.86 L 646.63 331.64 L 648.17 334.70 L 649.30 337.93 L 649.99 341.33 L 650.24 344.95 L 650.24 344.95 L 650.02 348.16 L 649.40 351.18 L 648.40 354.05 L 647.04 356.76 L 645.37 359.23 L 643.40 361.48 L 641.15 363.46 L 638.68 365.12 L 635.97 366.49 L 633.10 367.49 L 630.08 368.11 L 626.87 368.33 Z" fill="#ffffff" fill-rule="nonzero" group-id="2" node-id="141" stroke="none" target-height="49.72" target-width="54.5" target-x="595.74" target-y="318.61002"></path><path d="M 626.55 370.47 L 595.74 370.47 C 594.56 370.47 593.60 369.51 593.60 368.33 L 593.60 318.62 C 593.60 318.05 593.83 317.51 594.23 317.11 C 594.63 316.71 595.17 316.49 595.74 316.49 L 626.55 316.49 C 640.81 316.50 652.36 328.05 652.38 342.31 L 652.38 344.65 C 652.36 358.90 640.80 370.45 626.55 370.47 Z M 597.87 366.20 L 626.55 366.20 C 638.45 366.19 648.09 356.55 648.11 344.65 L 648.11 342.31 C 648.10 330.41 638.45 320.76 626.55 320.75 L 597.87 320.75 Z" fill="#040000" fill-rule="nonzero" node-id="144" stroke="none" target-height="53.982666" target-width="58.78003" target-x="593.6" target-y="316.48734"></path><path d="M 428.77 340.53 C 428.77 340.53 444.17 337.17 448.97 346.98" fill="#ffffff" fill-rule="nonzero" node-id="146" stroke="none" target-height="9.809998" target-width="20.200012" target-x="428.77" target-y="337.17"></path><path d="M 449.00 349.11 C 448.19 349.11 447.44 348.65 447.08 347.92 C 443.08 339.74 429.38 342.59 429.25 342.62 C 428.10 342.87 426.96 342.14 426.71 340.99 C 426.46 339.84 427.19 338.70 428.34 338.45 C 429.04 338.29 445.44 334.86 450.92 346.04 C 451.43 347.11 450.98 348.38 449.92 348.90 C 449.63 349.04 449.32 349.11 449.00 349.11 Z" fill="#040000" fill-rule="nonzero" node-id="148" stroke="none" target-height="14.250946" target-width="24.970398" target-x="426.4587" target-y="334.86"></path><path d="M 511.21 236.16 L 549.88 236.16 C 567.41 236.15 584.23 243.11 596.63 255.50 C 609.03 267.89 616.00 284.71 616.00 302.24 L 616.00 365.38 C 616.00 412.56 577.76 450.80 530.58 450.80 L 530.58 450.80 C 483.40 450.80 445.16 412.56 445.16 365.38 L 445.16 302.24 C 445.16 265.75 474.75 236.16 511.24 236.16 Z" fill="#ffffff" fill-rule="nonzero" node-id="150" stroke="none" target-height="214.6506" target-width="170.84" target-x="445.16" target-y="236.14938"></path><path d="M 533.46 452.93 L 527.63 452.93 C 480.91 452.87 443.06 415.01 443.00 368.29 L 443.00 236.16 C 443.00 235.59 443.23 235.05 443.63 234.65 C 444.03 234.25 444.57 234.03 445.14 234.03 L 616.00 234.03 C 617.18 234.03 618.13 234.98 618.13 236.16 L 618.13 368.29 C 618.08 415.03 580.20 452.90 533.46 452.93 Z M 447.26 238.29 L 447.26 368.29 C 447.31 412.66 483.26 448.61 527.63 448.66 L 533.46 448.66 C 577.83 448.61 613.78 412.66 613.83 368.29 L 613.83 238.29 Z" fill="#040000" fill-rule="nonzero" node-id="152" stroke="none" target-height="218.90265" target-width="175.13" target-x="443" target-y="234.02734"></path><path d="M 636.88 206.28 C 636.95 205.51 637.01 204.73 637.01 203.94 C 637.01 189.11 624.19 177.08 608.38 177.08 C 604.60 177.08 600.84 177.78 597.32 179.16 C 588.63 170.71 575.59 165.33 560.99 165.33 C 545.99 165.33 532.58 171.05 523.90 179.95 C 516.03 172.81 505.77 168.89 495.14 168.95 C 478.22 168.95 463.69 178.54 457.37 192.24 C 453.50 190.59 449.34 189.73 445.13 189.73 C 428.98 189.73 415.60 202.08 413.02 218.28 C 401.44 223.50 393.50 234.07 393.50 246.28 C 393.50 260.34 404.00 272.28 418.50 276.28 C 423.20 288.80 434.57 297.60 447.87 299.00 C 461.17 300.41 474.13 294.19 481.35 282.93 C 487.69 286.95 495.04 289.08 502.54 289.09 C 512.90 289.06 522.85 285.02 530.30 277.82 C 537.81 288.60 549.72 295.60 563.17 295.60 C 573.59 295.54 583.56 291.35 590.89 283.94 C 598.57 288.39 607.29 290.73 616.16 290.71 C 642.56 290.71 663.96 270.81 663.96 246.28 C 664.00 228.64 652.88 213.46 636.88 206.28 Z" fill="#040000" fill-rule="nonzero" node-id="154" stroke="none" target-height="135.07997" target-width="270.5" target-x="393.5" target-y="165.33"></path><path d="M 636.18 340.53 C 636.18 340.53 620.78 337.17 616.00 347.00" fill="#ffffff" fill-rule="nonzero" node-id="156" stroke="none" target-height="9.829987" target-width="20.179993" target-x="616" target-y="337.17"></path><path d="M 616.00 349.11 C 615.68 349.11 615.36 349.04 615.07 348.90 C 614.56 348.65 614.16 348.21 613.98 347.68 C 613.79 347.14 613.82 346.55 614.07 346.04 C 619.55 334.86 635.95 338.29 636.64 338.45 C 637.79 338.70 638.52 339.84 638.27 340.99 C 638.02 342.14 636.88 342.87 635.73 342.62 C 635.60 342.62 621.90 339.74 617.90 347.92 C 617.54 348.64 616.81 349.10 616.00 349.11 Z" fill="#040000" fill-rule="nonzero" node-id="158" stroke="none" target-height="14.25" target-width="24.732178" target-x="613.7891" target-y="334.86"></path><path d="M 463.88 376.53 L 463.76 376.53 L 443.48 375.42 C 442.31 375.34 441.42 374.34 441.48 373.17 C 441.48 372.59 441.72 372.04 442.15 371.66 C 442.58 371.28 443.16 371.10 443.73 371.17 L 464.00 372.26 C 465.12 372.36 465.98 373.32 465.95 374.45 C 465.92 375.58 465.02 376.49 463.89 376.53 Z" fill="#040000" fill-rule="nonzero" node-id="160" stroke="none" target-height="5.4320984" target-width="24.560669" target-x="441.4173" target-y="371.0979"></path><path d="M 584.40 369.10 C 583.22 369.13 582.24 368.21 582.21 367.03 C 582.18 365.85 583.10 364.87 584.28 364.84 L 604.56 363.73 C 605.13 363.66 605.71 363.84 606.14 364.22 C 606.57 364.60 606.81 365.15 606.81 365.73 C 606.87 366.90 605.98 367.90 604.81 367.98 L 584.54 369.09 Z" fill="#040000" fill-rule="nonzero" node-id="162" stroke="none" target-height="5.4752502" target-width="24.6958" target-x="582.1769" target-y="363.6579"></path><path d="M 484.13 372.26 C 467.63 372.26 454.26 358.89 454.26 342.39 C 454.26 325.89 467.63 312.52 484.13 312.52 C 500.63 312.52 514.00 325.89 514.00 342.39 C 513.98 358.88 500.62 372.24 484.13 372.26 Z M 484.13 316.79 C 469.99 316.79 458.53 328.25 458.53 342.39 C 458.53 356.53 469.99 367.99 484.13 367.99 C 498.27 367.99 509.73 356.53 509.73 342.39 C 509.71 328.26 498.26 316.81 484.13 316.79 Z" fill="#040000" fill-rule="nonzero" node-id="164" stroke="none" target-height="59.74002" target-width="59.73999" target-x="454.26" target-y="312.52"></path><path d="M 561.92 372.26 C 545.42 372.26 532.05 358.89 532.05 342.39 C 532.05 325.89 545.42 312.52 561.92 312.52 C 578.42 312.52 591.79 325.89 591.79 342.39 C 591.77 358.88 578.41 372.24 561.92 372.26 Z M 561.92 316.79 C 547.78 316.79 536.32 328.25 536.32 342.39 C 536.32 356.53 547.78 367.99 561.92 367.99 C 576.06 367.99 587.52 356.53 587.52 342.39 C 587.50 328.26 576.05 316.81 561.92 316.79 Z" fill="#040000" fill-rule="nonzero" node-id="166" stroke="none" target-height="59.74002" target-width="59.73999" target-x="532.05" target-y="312.52"></path><path d="M 511.87 346.66 C 510.93 346.67 510.09 346.05 509.81 345.15 C 509.54 344.25 509.89 343.27 510.68 342.75 C 515.58 339.48 527.10 335.31 535.62 342.94 C 536.41 343.75 536.43 345.02 535.68 345.86 C 534.93 346.70 533.66 346.81 532.77 346.12 C 524.58 338.77 513.17 346.23 513.05 346.30 C 512.70 346.53 512.29 346.66 511.87 346.66 Z" fill="#040000" fill-rule="nonzero" node-id="168" stroke="none" target-height="11.503052" target-width="26.89563" target-x="509.5368" target-y="335.31"></path><path d="M 638.35 275.86 C 638.35 275.86 625.55 309.99 629.82 318.53 C 629.82 318.53 625.55 314.26 617.02 318.53 L 617.02 288.66 Z" fill="#040000" fill-rule="nonzero" node-id="170" stroke="none" target-height="42.670013" target-width="21.329956" target-x="617.02" target-y="275.86"></path><path d="M 425.00 275.86 C 425.00 275.86 437.80 309.99 433.53 318.53 C 433.53 318.53 437.80 314.26 446.33 318.53 L 446.33 288.66 Z" fill="#040000" fill-rule="nonzero" node-id="172" stroke="none" target-height="42.670013" target-width="21.329987" target-x="425" target-y="275.86"></path><path d="M 468.28 244.73 C 458.28 244.73 451.14 242.21 447.07 237.21 C 441.07 229.85 444.19 220.14 444.33 219.73 C 444.50 219.19 444.88 218.74 445.39 218.49 C 445.89 218.23 446.47 218.19 447.01 218.37 C 448.13 218.73 448.74 219.93 448.38 221.05 C 448.38 221.13 445.89 229.05 450.38 234.54 C 454.45 239.54 463.30 241.42 475.96 240.00 C 477.11 239.91 478.12 240.75 478.25 241.89 C 478.38 243.04 477.58 244.08 476.44 244.25 C 473.73 244.56 471.01 244.72 468.28 244.73 Z" fill="#fffdfd" fill-rule="nonzero" node-id="174" stroke="none" target-height="26.539276" target-width="37.306274" target-x="441.07" target-y="218.19072"></path><path d="M 510.69 248.77 C 505.12 248.77 501.79 248.53 501.69 248.52 C 500.52 248.43 499.64 247.41 499.72 246.24 C 499.81 245.06 500.84 244.18 502.01 244.27 C 502.57 244.27 557.32 248.17 598.89 223.27 C 599.90 222.67 601.21 222.99 601.81 224.01 C 602.42 225.02 602.09 226.33 601.08 226.93 C 568.55 246.39 528.35 248.77 510.69 248.77 Z" fill="#fffdfd" fill-rule="nonzero" node-id="176" stroke="none" target-height="26.104752" target-width="102.78311" target-x="499.63663" target-y="222.66525"></path><path d="M 538.00 501.21 C 511.21 502.28 496.74 496.43 489.00 485.33 C 487.10 488.18 476.06 486.50 476.20 489.59 C 476.88 504.76 505.38 519.11 537.95 517.81 C 570.52 516.51 596.34 500.49 595.66 485.33 C 595.58 483.33 589.59 483.27 585.77 482.41 C 583.85 481.95 581.83 482.65 580.60 484.19 C 573.11 493.68 561.39 500.28 538.00 501.21 Z" fill="#040000" fill-rule="nonzero" node-id="178" stroke="none" target-height="37.156097" target-width="120.28003" target-x="476.06" target-y="481.9539"></path><path d="M 460.67 309.13 C 459.88 309.13 459.16 308.69 458.79 308.00 C 458.42 307.31 458.46 306.47 458.89 305.81 C 462.16 300.92 471.34 292.66 482.67 296.44 C 483.79 296.81 484.39 298.02 484.02 299.14 C 483.65 300.26 482.44 300.86 481.32 300.49 C 470.23 296.80 462.75 307.72 462.44 308.18 C 462.05 308.77 461.38 309.13 460.67 309.13 Z" fill="#040000" fill-rule="nonzero" node-id="180" stroke="none" target-height="16.470001" target-width="25.975311" target-x="458.41748" target-y="292.66"></path><path d="M 588.67 310.65 C 587.68 310.64 586.83 309.96 586.60 309.00 C 586.60 308.94 584.94 302.74 580.04 300.51 C 576.90 299.07 572.94 299.51 568.29 301.85 C 567.60 302.25 566.75 302.24 566.07 301.81 C 565.39 301.39 565.01 300.62 565.08 299.83 C 565.14 299.03 565.64 298.34 566.38 298.03 C 572.27 295.09 577.48 294.63 581.85 296.64 C 588.62 299.75 590.65 307.64 590.74 307.96 C 591.02 309.10 590.33 310.25 589.19 310.54 C 589.02 310.60 588.85 310.63 588.67 310.65 Z" fill="#040000" fill-rule="nonzero" node-id="182" stroke="none" target-height="16.019989" target-width="26.01117" target-x="565.0122" target-y="294.63"></path><path d="M 456.40 338.13 C 455.73 338.13 455.09 337.81 454.69 337.27 L 441.89 320.20 C 441.19 319.26 441.38 317.92 442.33 317.22 C 443.27 316.51 444.61 316.71 445.31 317.65 L 458.11 334.71 C 458.59 335.36 458.67 336.22 458.31 336.95 C 457.95 337.67 457.21 338.13 456.40 338.13 Z" fill="#040000" fill-rule="nonzero" node-id="184" stroke="none" target-height="21.619171" target-width="17.484924" target-x="441.18585" target-y="316.51083"></path><path d="M 588.67 333.86 C 587.64 333.87 586.75 333.14 586.56 332.13 C 586.36 331.11 586.93 330.11 587.89 329.74 L 620.51 316.94 C 621.61 316.51 622.86 317.06 623.29 318.16 C 623.72 319.26 623.17 320.51 622.07 320.94 L 589.44 333.74 C 589.19 333.83 588.93 333.87 588.67 333.86 Z" fill="#040000" fill-rule="nonzero" node-id="186" stroke="none" target-height="17.36084" target-width="37.356262" target-x="586.3645" target-y="316.50922"></path><path d="M 819.52 825.23 C 818.58 825.23 817.75 824.61 817.48 823.71 C 817.21 822.81 817.56 821.83 818.34 821.31 C 831.34 812.70 832.94 796.05 832.95 795.89 C 833.06 794.72 834.09 793.85 835.26 793.94 C 835.82 793.99 836.35 794.26 836.71 794.69 C 837.07 795.13 837.25 795.69 837.20 796.25 C 837.14 797.01 835.46 815.10 820.70 824.87 C 820.35 825.10 819.94 825.23 819.52 825.23 Z" fill="#231815" fill-rule="nonzero" node-id="188" stroke="none" target-height="31.376892" target-width="20.04248" target-x="817.2074" target-y="793.8531"></path><path d="M 827.27 839.73 C 826.28 839.72 825.43 839.04 825.20 838.08 C 824.98 837.12 825.44 836.13 826.32 835.68 C 855.51 821.26 848.75 792.11 848.68 791.82 C 848.43 790.69 849.13 789.57 850.26 789.29 C 851.39 789.02 852.52 789.70 852.82 790.82 C 852.90 791.15 860.44 823.60 828.21 839.53 C 827.92 839.67 827.59 839.74 827.27 839.73 Z" fill="#231815" fill-rule="nonzero" node-id="190" stroke="none" target-height="50.71637" target-width="35.46405" target-x="824.97595" target-y="789.0209"></path><path d="M 485.92 351.10 C 485.92 354.54 483.13 357.33 479.69 357.33 C 476.25 357.33 473.46 354.54 473.46 351.10 C 473.46 347.66 476.25 344.87 479.69 344.87 C 483.13 344.87 485.92 347.66 485.92 351.10 Z" fill="#040000" fill-rule="nonzero" node-id="192" stroke="none" target-height="12.459991" target-width="12.460022" target-x="473.46" target-y="344.87"></path><path d="M 566.99 351.10 C 566.99 354.54 564.20 357.33 560.76 357.33 C 557.32 357.33 554.53 354.54 554.53 351.10 C 554.53 347.66 557.32 344.87 560.76 344.87 C 564.20 344.87 566.99 347.66 566.99 351.10 Z" fill="#040000" fill-rule="nonzero" node-id="194" stroke="none" target-height="12.459991" target-width="12.459961" target-x="554.53" target-y="344.87"></path><path d="M 288.00 406.68 C 283.22 406.68 278.82 403.32 274.92 396.68 C 271.84 391.43 268.68 388.68 265.79 388.60 L 265.72 388.60 C 262.09 388.60 258.99 392.89 257.83 394.75 C 256.13 397.63 253.95 400.20 251.38 402.35 C 243.92 408.20 236.02 407.19 229.69 399.59 C 226.55 395.82 223.55 393.91 220.77 393.91 L 220.77 393.91 C 218.02 393.91 215.84 395.82 214.50 397.43 C 211.50 401.01 208.62 403.33 205.62 404.52 C 201.32 406.24 194.86 406.88 188.56 400.30 C 186.06 397.69 183.50 396.45 180.98 396.72 C 176.12 397.17 172.38 402.72 172.35 402.72 C 171.68 403.66 170.40 403.90 169.43 403.27 C 168.47 402.64 168.18 401.37 168.77 400.38 C 168.97 400.09 173.62 393.09 180.59 392.44 C 184.46 392.08 188.20 393.72 191.65 397.32 C 195.38 401.23 199.56 402.32 204.04 400.53 C 206.36 399.60 208.71 397.69 211.22 394.67 C 213.15 392.36 216.36 389.61 220.77 389.61 L 220.77 389.61 C 224.87 389.61 228.98 392.04 232.96 396.83 C 237.90 402.75 243.06 403.43 248.75 398.97 C 250.92 397.12 252.77 394.91 254.21 392.45 C 256.15 389.37 260.34 384.19 265.85 384.30 C 270.37 384.37 274.66 387.79 278.60 394.49 C 281.67 399.72 284.84 402.37 288.00 402.37 L 288.00 402.37 C 292.58 402.32 296.75 396.63 298.00 394.44 C 298.34 393.72 299.06 393.25 299.85 393.22 C 300.65 393.19 301.40 393.61 301.79 394.30 C 302.19 394.99 302.16 395.85 301.73 396.52 C 301.50 396.93 296.05 406.52 288.08 406.64 Z" fill="#040000" fill-rule="nonzero" node-id="196" stroke="none" target-height="24.01001" target-width="134.01082" target-x="168.17766" target-y="384.19"></path><path d="M 288.00 432.00 C 283.22 432.00 278.82 428.64 274.92 422.00 C 271.84 416.76 268.68 414.00 265.79 413.92 L 265.72 413.92 C 262.09 413.92 258.99 418.22 257.83 420.08 C 256.13 422.96 253.95 425.53 251.38 427.68 C 243.92 433.53 236.02 432.52 229.69 424.91 C 226.55 421.14 223.55 419.23 220.77 419.23 L 220.77 419.23 C 218.02 419.23 215.84 421.15 214.50 422.75 C 211.50 426.33 208.62 428.65 205.62 429.84 C 201.32 431.56 194.86 432.21 188.56 425.63 C 186.00 423.00 183.47 421.77 181.00 422.00 C 176.14 422.45 172.40 428.00 172.37 428.00 C 171.70 428.91 170.43 429.13 169.49 428.52 C 168.54 427.90 168.23 426.65 168.79 425.67 C 168.99 425.37 173.64 418.37 180.61 417.72 C 184.48 417.36 188.22 419.00 191.67 422.61 C 195.40 426.52 199.58 427.61 204.06 425.81 C 206.38 424.88 208.73 422.97 211.24 419.96 C 213.17 417.65 216.38 414.90 220.79 414.90 L 220.79 414.90 C 224.89 414.90 229.00 417.33 232.98 422.11 C 237.92 428.03 243.08 428.72 248.77 424.25 C 250.94 422.40 252.79 420.20 254.23 417.74 C 256.17 414.66 260.36 409.62 265.87 409.59 C 270.39 409.65 274.68 413.08 278.62 419.77 C 281.69 425.00 284.86 427.66 288.02 427.66 L 288.00 427.66 C 292.58 427.60 296.75 421.91 298.00 419.73 C 298.57 418.70 299.87 418.33 300.90 418.90 C 301.93 419.47 302.30 420.77 301.73 421.80 C 301.50 422.21 296.05 431.80 288.08 431.92 Z" fill="#040000" fill-rule="nonzero" node-id="198" stroke="none" target-height="23.940002" target-width="134.06665" target-x="168.23495" target-y="409.59"></path><path d="M 584.40 643.19 C 584.40 643.19 618.53 626.13 635.60 762.66 C 652.67 899.19 592.93 890.66 592.93 890.66 L 413.73 894.93 C 413.73 894.93 482.00 758.39 396.66 698.66 Z" fill="#040000" fill-rule="nonzero" node-id="200" stroke="none" target-height="273.06" target-width="256.00998" target-x="396.66" target-y="626.13"></path><path d="M 410.24 897.14 L 411.82 893.97 C 412.50 892.62 478.28 758.39 395.44 700.41 L 391.82 697.87 L 583.67 641.18 C 584.75 640.73 589.61 639.07 596.12 642.54 C 609.12 649.54 626.91 675.96 637.72 762.39 C 647.09 837.39 633.05 868.90 619.62 882.10 C 606.87 894.64 593.20 892.85 592.62 892.77 Z M 401.41 699.48 C 474.92 755.55 426.53 872.02 417.13 892.71 L 592.88 888.53 C 593.72 888.61 605.52 890.06 616.74 878.95 C 629.42 866.40 642.62 836.07 633.48 762.95 C 622.41 674.35 604.20 651.95 594.34 646.47 C 588.99 643.47 585.47 645.07 585.34 645.14 L 585.02 645.27 Z" fill="#040000" fill-rule="nonzero" node-id="202" stroke="none" target-height="258.07" target-width="255.27002" target-x="391.82" target-y="639.07"></path><path d="M 721.37 760.58 L 600.58 770.20 C 594.72 770.61 579.26 770.52 576.98 765.11 C 574.17 758.41 564.39 737.69 546.69 733.87 C 546.69 733.87 525.46 706.95 517.44 712.12 C 517.44 712.12 501.83 717.42 531.57 744.00 C 531.98 744.35 532.10 744.93 531.86 745.42 C 531.63 745.90 531.10 746.17 530.57 746.07 C 521.43 744.46 505.17 740.34 492.33 728.30 C 475.91 718.58 477.98 737.55 477.98 737.55 C 464.62 739.40 470.81 748.18 470.81 748.18 C 465.06 755.79 476.45 769.18 476.45 769.18 C 479.66 772.51 476.45 778.72 484.02 784.47 C 517.09 809.47 552.68 821.02 587.48 822.83 C 648.00 829.83 712.48 828.02 752.56 825.48 C 753.87 825.40 755.16 825.27 756.45 825.11 C 785.45 821.40 806.45 795.63 806.45 766.43 C 806.45 743.68 802.58 705.95 780.64 673.05 C 746.51 621.85 699.58 702.92 699.58 702.92 Z" fill="#ffffff" fill-rule="nonzero" node-id="204" stroke="none" target-height="207.98004" target-width="341.83002" target-x="464.62" target-y="621.85"></path><path d="M 681.33 829.89 C 652.12 829.89 619.21 828.68 587.24 824.96 C 549.36 822.96 514.16 809.96 482.74 786.19 C 477.40 782.14 476.74 777.73 476.18 774.50 C 475.89 772.63 475.67 771.44 474.92 770.67 C 474.35 770.00 463.45 757.00 468.33 748.10 C 467.15 745.93 466.96 743.36 467.82 741.04 C 468.95 738.44 471.62 736.67 475.77 735.78 C 475.77 732.71 476.26 727.11 480.17 724.59 C 483.36 722.53 487.83 723.15 493.42 726.47 L 493.79 726.75 C 502.30 734.75 513.96 740.42 527.67 743.33 C 515.54 732.00 510.08 723.00 511.41 716.43 C 511.97 713.64 513.88 711.30 516.50 710.19 C 525.50 704.95 543.28 726.19 547.90 731.96 C 565.44 736.24 575.44 755.96 578.95 764.28 C 580.24 767.35 591.08 768.73 600.43 768.07 L 718.37 758.68 L 697.24 702.73 L 697.75 701.86 C 698.86 699.94 725.27 654.86 753.84 653.98 C 764.74 653.64 774.30 659.66 782.44 671.88 C 804.10 704.37 808.62 741.24 808.61 766.44 C 808.61 797.32 786.28 823.44 756.73 827.23 C 755.40 827.40 754.06 827.53 752.73 827.62 C 735.55 828.70 710.25 829.88 681.33 829.89 Z M 484.44 727.66 C 483.74 727.63 483.04 727.81 482.44 728.17 C 479.89 729.81 479.88 735.47 480.08 737.32 L 480.30 739.38 L 478.30 739.66 C 474.72 740.16 472.39 741.25 471.75 742.74 C 470.96 744.54 472.55 746.92 472.57 746.95 L 473.47 748.22 L 472.53 749.47 C 468.67 754.57 475.24 764.47 478.10 767.81 C 479.72 769.48 480.10 771.69 480.41 773.81 C 480.87 776.73 481.35 779.76 485.33 782.76 C 516.05 806.00 550.46 818.76 587.61 820.69 C 651.03 828.06 718.09 825.52 752.45 823.34 C 753.70 823.26 754.96 823.14 756.20 822.98 C 783.63 819.47 804.33 795.15 804.35 766.42 C 804.35 741.81 799.97 705.83 778.90 674.22 C 771.63 663.32 763.26 657.92 753.98 658.22 C 729.79 658.98 705.75 696.88 701.98 703.11 L 724.39 762.46 L 600.76 772.30 C 598.44 772.46 578.29 773.62 575.04 765.90 C 571.79 758.18 562.31 739.39 546.26 735.90 L 545.51 735.73 L 545.04 735.13 C 535.39 722.92 522.56 711.33 518.62 713.85 L 518.15 714.08 C 516.82 714.65 515.86 715.86 515.60 717.29 C 515.02 720.29 516.52 727.62 533.01 742.35 C 534.13 743.34 534.44 744.95 533.79 746.29 C 533.15 747.63 531.69 748.38 530.23 748.11 C 514.38 745.32 500.85 739.05 491.07 729.96 C 489.00 728.83 486.48 727.66 484.44 727.66 Z" fill="#040000" fill-rule="nonzero" node-id="206" stroke="none" target-height="176.25" target-width="345.16998" target-x="463.45" target-y="653.64"></path><path d="M 515.46 766.30 C 515.31 766.31 515.16 766.31 515.01 766.30 C 496.82 762.37 477.21 739.95 476.38 739.00 C 475.68 738.10 475.80 736.81 476.66 736.06 C 477.52 735.32 478.82 735.38 479.61 736.20 C 479.80 736.43 499.12 758.50 515.91 762.13 C 516.99 762.34 517.74 763.35 517.62 764.45 C 517.50 765.54 516.56 766.37 515.46 766.35 Z" fill="#040000" fill-rule="nonzero" node-id="208" stroke="none" target-height="31.054749" target-width="42.05945" target-x="475.67688" target-y="735.3166"></path><path d="M 512.91 778.09 C 512.76 778.09 512.61 778.08 512.46 778.04 C 494.37 774.14 470.34 750.70 469.32 749.70 C 468.52 748.86 468.53 747.54 469.34 746.72 C 470.15 745.89 471.47 745.86 472.32 746.65 C 472.55 746.89 496.48 770.23 513.32 773.87 C 514.40 774.08 515.15 775.09 515.03 776.19 C 514.91 777.28 513.97 778.11 512.87 778.09 Z" fill="#040000" fill-rule="nonzero" node-id="210" stroke="none" target-height="32.24823" target-width="46.627136" target-x="468.51917" target-y="745.8631"></path><path d="M 510.36 789.89 C 510.21 789.90 510.06 789.90 509.91 789.89 C 496.90 786.44 484.92 779.87 475.00 770.77 C 474.39 770.27 474.11 769.47 474.27 768.70 C 474.43 767.93 475.00 767.30 475.75 767.08 C 476.50 766.85 477.32 767.05 477.88 767.61 C 487.27 776.15 498.55 782.34 510.80 785.67 C 511.85 785.92 512.54 786.91 512.43 787.98 C 512.31 789.05 511.42 789.87 510.34 789.89 Z" fill="#040000" fill-rule="nonzero" node-id="212" stroke="none" target-height="23.05658" target-width="38.428864" target-x="474.11362" target-y="766.84766"></path><path d="M 353.73 191.09 L 301.43 152.53" fill="#060001" fill-rule="nonzero" node-id="214" stroke="none" target-height="38.559998" target-width="52.30002" target-x="301.43" target-y="152.53"></path><path d="M 353.74 193.22 C 353.28 193.22 352.84 193.08 352.47 192.81 L 300.16 154.24 C 299.21 153.54 299.01 152.21 299.71 151.26 C 300.41 150.31 301.74 150.11 302.69 150.81 L 355.00 189.37 C 355.74 189.91 356.05 190.88 355.77 191.75 C 355.48 192.63 354.66 193.22 353.74 193.22 Z" fill="#040000" fill-rule="nonzero" node-id="216" stroke="none" target-height="43.11226" target-width="57.043518" target-x="299.01135" target-y="150.11136"></path><path d="M 292.06 212.44 L 334.45 217.24" fill="#060001" fill-rule="nonzero" node-id="218" stroke="none" target-height="4.800003" target-width="42.390015" target-x="292.06" target-y="212.44"></path><path d="M 334.46 219.38 L 334.21 219.38 L 291.82 214.58 C 290.65 214.45 289.81 213.39 289.94 212.22 C 290.07 211.05 291.13 210.21 292.30 210.34 L 334.69 215.15 C 335.83 215.26 336.67 216.25 336.61 217.39 C 336.55 218.53 335.60 219.41 334.46 219.40 Z" fill="#040000" fill-rule="nonzero" node-id="220" stroke="none" target-height="9.2061615" target-width="46.866516" target-x="289.80746" target-y="210.20746"></path><path d="M 285.73 260.67 L 340.05 243.64" fill="#060001" fill-rule="nonzero" node-id="222" stroke="none" target-height="17.030014" target-width="54.319977" target-x="285.73" target-y="243.64"></path><path d="M 285.73 262.81 C 284.67 262.82 283.76 262.05 283.60 261.00 C 283.44 259.95 284.07 258.95 285.09 258.64 L 339.41 241.64 C 340.53 241.29 341.73 241.91 342.09 243.03 C 342.44 244.16 341.81 245.36 340.69 245.71 L 286.37 262.71 C 286.16 262.78 285.95 262.81 285.73 262.81 Z" fill="#040000" fill-rule="nonzero" node-id="224" stroke="none" target-height="21.53743" target-width="59.00296" target-x="283.43552" target-y="241.28654"></path><path d="M 93.80 935.65 L 887.39 930.94 L 887.42 935.21 L 93.82 939.92 Z" fill="#040000" fill-rule="nonzero" group-id="3" node-id="228" stroke="none" target-height="8.979248" target-width="793.6214" target-x="93.79681" target-y="930.93805"></path><path d="M 797.73 687.27 L 696.73 739.56 C 692.53 741.65 687.65 741.88 683.28 740.20 C 678.90 738.51 675.44 735.07 673.73 730.70 L 646.19 660.19 C 632.24 624.47 631.85 584.55 646.68 549.19 C 656.68 525.44 672.57 507.00 698.43 509.29 C 763.17 515.02 797.87 628.37 806.64 668.79 C 808.25 676.26 804.58 683.88 797.73 687.27 Z" fill="#040000" fill-rule="nonzero" node-id="231" stroke="none" target-height="234.88214" target-width="176.39984" target-x="631.85" target-y="507"></path><path d="M 255.87 538.66 C 255.08 538.66 254.36 538.22 253.99 537.53 C 253.62 536.84 253.66 536.00 254.09 535.34 C 271.42 509.34 305.09 500.68 306.55 500.34 C 307.30 500.14 308.09 500.37 308.63 500.92 C 309.16 501.48 309.36 502.28 309.13 503.02 C 308.91 503.75 308.30 504.31 307.55 504.48 C 307.22 504.57 274.01 513.14 257.61 537.73 C 257.22 538.31 256.57 538.66 255.87 538.66 Z" fill="#040000" fill-rule="nonzero" node-id="233" stroke="none" target-height="38.516846" target-width="55.738144" target-x="253.61748" target-y="500.14313"></path><path d="M 255.87 560.00 C 255.45 560.00 255.03 559.88 254.68 559.64 C 254.20 559.33 253.86 558.83 253.75 558.26 C 253.64 557.70 253.76 557.11 254.09 556.64 C 271.42 530.64 305.09 521.97 306.55 521.64 C 307.31 521.40 308.14 521.60 308.70 522.16 C 309.27 522.73 309.47 523.56 309.23 524.32 C 308.98 525.08 308.34 525.64 307.55 525.77 C 307.22 525.86 274.01 534.43 257.61 559.02 C 257.23 559.62 256.58 559.98 255.87 560.00 Z" fill="#040000" fill-rule="nonzero" node-id="235" stroke="none" target-height="38.606018" target-width="55.828705" target-x="253.63919" target-y="521.39813"></path><path d="M 414.21 619.73 C 414.21 619.73 388.61 641.06 392.88 658.13 C 397.15 675.20 448.34 666.66 448.34 666.66 L 469.68 641.06 Z" fill="#ffffff" fill-rule="nonzero" node-id="237" stroke="none" target-height="55.47003" target-width="81.07001" target-x="388.61" target-y="619.73"></path><path d="M 422.39 671.00 C 408.24 671.00 393.29 668.55 390.81 658.64 C 386.27 640.49 411.76 618.99 412.81 618.09 C 413.41 617.59 414.22 617.46 414.95 617.73 L 470.41 639.07 C 471.05 639.32 471.54 639.86 471.71 640.52 C 471.88 641.19 471.73 641.90 471.29 642.43 L 450.00 668.00 C 449.67 668.39 449.22 668.65 448.71 668.73 C 440.01 670.15 431.21 670.91 422.39 671.00 Z M 414.64 622.18 C 410.19 626.18 391.50 643.81 394.95 657.61 C 397.95 669.80 432.95 666.94 447.22 664.68 L 466.13 642.00 Z" fill="#040000" fill-rule="nonzero" node-id="239" stroke="none" target-height="53.54303" target-width="85.61493" target-x="386.27" target-y="617.457"></path><path d="M 336.93 728.53 C 336.93 728.53 494.80 694.39 537.46 720.00 C 537.46 720.00 537.46 647.47 584.40 643.20 C 584.40 643.20 446.60 646.65 381.50 650.44 C 364.32 651.41 349.27 662.30 343.00 678.33 C 338.47 690.05 335.35 706.35 336.93 728.53 Z" fill="#ffffff" fill-rule="nonzero" node-id="241" stroke="none" target-height="85.33002" target-width="249.05002" target-x="335.35" target-y="643.2"></path><path d="M 336.93 730.66 C 336.47 730.66 336.02 730.51 335.65 730.23 C 335.16 729.86 334.85 729.29 334.80 728.68 C 333.40 709.02 335.49 691.82 341.03 677.55 C 347.61 660.76 363.37 649.34 381.37 648.30 C 445.77 644.55 582.97 641.09 584.37 641.06 L 584.43 641.06 C 585.61 641.01 586.60 641.92 586.65 643.10 C 586.71 644.27 585.80 645.27 584.62 645.32 C 540.14 649.32 539.62 719.32 539.62 719.99 C 539.62 720.76 539.21 721.47 538.54 721.85 C 537.87 722.23 537.05 722.22 536.39 721.82 C 494.91 696.95 338.97 730.27 337.39 730.61 C 337.24 730.64 337.08 730.66 336.93 730.66 Z M 568.11 645.75 C 529.61 646.75 432.68 649.59 381.62 652.56 C 365.28 653.50 350.98 663.86 345.00 679.10 C 339.92 692.18 337.87 707.92 338.89 725.93 C 359.22 721.68 491.44 695.19 535.44 716.49 C 536.12 703.82 540.44 660.43 568.11 645.75 Z" fill="#040000" fill-rule="nonzero" node-id="243" stroke="none" target-height="89.65253" target-width="253.30746" target-x="333.4" target-y="641.0075"></path><path d="M 413.73 894.93 C 413.73 894.93 392.40 894.93 396.66 860.79 L 584.40 856.53 C 584.40 856.53 588.66 886.39 597.20 890.66 Z" fill="#ffffff" fill-rule="nonzero" node-id="245" stroke="none" target-height="38.399963" target-width="204.80002" target-x="392.4" target-y="856.53"></path><path d="M 413.73 897.06 C 408.61 896.76 403.84 894.41 400.48 890.54 C 394.85 884.17 392.86 874.07 394.55 860.54 C 394.68 859.49 395.56 858.69 396.62 858.67 L 584.35 854.40 C 585.42 854.39 586.34 855.17 586.51 856.23 C 588.10 867.35 592.67 886.02 598.15 888.76 C 598.99 889.21 599.42 890.17 599.21 891.10 C 599.00 892.03 598.20 892.71 597.25 892.76 L 413.78 897.03 Z M 398.57 862.88 C 397.42 874.22 399.14 882.58 403.68 887.72 C 406.21 890.67 409.81 892.49 413.68 892.79 L 592.06 888.64 C 586.50 880.64 583.48 864.54 582.53 858.70 Z" fill="#040000" fill-rule="nonzero" node-id="247" stroke="none" target-height="42.668335" target-width="206.56323" target-x="392.86" target-y="854.39166"></path><path d="M 456.40 592.00 C 456.40 592.00 447.86 583.47 439.33 600.54 C 439.33 600.54 418.00 596.27 418.00 613.34 C 418.00 613.34 405.20 609.07 405.20 621.87 C 405.20 634.67 426.53 660.27 426.53 638.94 C 426.53 638.94 435.06 651.74 439.33 638.94 C 439.33 638.94 447.86 651.74 452.13 634.67 C 452.13 634.67 452.13 647.47 460.66 643.20 C 469.19 638.93 473.46 609.06 456.40 592.00 Z" fill="#ffffff" fill-rule="nonzero" node-id="249" stroke="none" target-height="76.80005" target-width="68.25998" target-x="405.2" target-y="583.47"></path><path d="M 422.57 649.25 C 414.57 649.25 403.07 631.53 403.07 621.86 C 403.07 617.48 404.42 614.28 407.07 612.36 C 409.94 610.30 413.59 610.36 416.07 610.71 C 416.40 607.20 418.10 603.97 420.81 601.71 C 426.28 597.22 434.70 597.71 438.18 598.14 C 441.54 591.96 445.38 588.48 449.60 587.80 C 452.64 587.38 455.70 588.34 457.95 590.43 C 469.43 602.00 471.54 618.43 469.67 630.00 C 468.44 637.58 465.43 643.24 461.62 645.15 C 458.12 646.90 455.71 646.22 454.31 645.36 C 453.09 644.55 452.12 643.40 451.53 642.06 C 450.54 643.89 448.80 645.20 446.76 645.63 C 444.07 646.08 441.61 644.52 439.92 642.93 C 438.59 645.19 436.92 646.48 434.92 646.75 C 432.39 647.10 430.00 645.66 428.17 644.04 C 427.99 644.82 427.71 645.57 427.34 646.28 C 426.46 648.11 424.60 649.27 422.57 649.25 Z M 413.52 614.78 C 412.11 614.70 410.71 615.07 409.52 615.83 C 408.04 616.90 407.29 618.93 407.29 621.83 C 407.29 630.77 418.22 644.96 422.53 644.96 C 422.75 644.96 423.10 644.96 423.53 644.20 C 423.96 643.44 424.39 641.95 424.39 638.90 C 424.40 637.96 425.01 637.14 425.91 636.87 C 426.80 636.59 427.77 636.93 428.30 637.71 C 429.67 639.71 432.56 642.71 434.30 642.44 C 435.35 642.30 436.44 640.76 437.30 638.22 C 437.56 637.45 438.23 636.89 439.03 636.78 C 439.84 636.68 440.63 637.04 441.09 637.71 C 442.18 639.33 444.47 641.64 446.03 641.35 C 446.57 641.25 448.47 640.45 450.03 634.11 C 450.30 633.07 451.30 632.40 452.36 632.53 C 453.42 632.66 454.22 633.55 454.24 634.62 C 454.24 636.46 454.81 640.62 456.53 641.62 C 457.23 642.06 458.29 641.92 459.68 641.22 C 462.19 639.97 464.45 635.22 465.43 629.22 C 467.05 619.22 465.26 603.86 454.87 593.46 C 453.59 592.30 451.87 591.78 450.16 592.02 C 447.16 592.54 444.03 595.79 441.21 601.43 C 440.78 602.29 439.83 602.76 438.89 602.57 C 438.79 602.57 428.77 600.64 423.44 605.02 C 421.19 606.86 420.10 609.56 420.10 613.28 C 420.10 613.96 419.77 614.60 419.22 615.00 C 418.67 615.41 417.95 615.52 417.30 615.30 C 416.07 614.95 414.80 614.77 413.52 614.78 Z" fill="#040000" fill-rule="nonzero" node-id="251" stroke="none" target-height="61.89032" target-width="68.47" target-x="403.07" target-y="587.3755"></path><path d="M 461.57 523.73 L 461.57 523.73 C 465.91 523.73 469.55 527.00 470.01 531.31 L 482.01 643.19 L 464.93 643.19 L 453.14 533.11 C 452.88 530.72 453.66 528.33 455.26 526.54 C 456.87 524.75 459.16 523.73 461.57 523.73 Z" fill="#040000" fill-rule="nonzero" node-id="253" stroke="none" target-height="119.46405" target-width="29.125305" target-x="452.8847" target-y="523.72595"></path><path d="M 484.37 645.33 L 463.00 645.33 L 451.00 533.33 C 450.47 529.50 452.07 525.68 455.18 523.37 C 458.28 521.06 462.40 520.62 465.92 522.22 C 469.44 523.82 471.81 527.21 472.11 531.07 Z M 466.85 641.06 L 479.62 641.06 L 467.89 531.53 C 467.55 528.30 464.82 525.85 461.57 525.86 C 459.77 525.86 458.07 526.63 456.86 527.96 C 455.66 529.29 455.08 531.07 455.26 532.86 Z" fill="#040000" fill-rule="nonzero" node-id="255" stroke="none" target-height="124.71271" target-width="33.895966" target-x="450.47403" target-y="520.6173"></path><path d="M 477.73 604.79 C 477.73 604.79 490.53 604.79 490.53 617.59 L 490.53 618.00 C 490.33 627.88 476.03 629.56 473.18 620.10 C 471.35 614.00 471.00 607.00 477.73 604.79 Z" fill="#ffffff" fill-rule="nonzero" node-id="257" stroke="none" target-height="24.77002" target-width="19.529999" target-x="471" target-y="604.79"></path><path d="M 481.77 628.47 C 476.87 628.59 472.50 625.39 471.14 620.68 C 467.34 608.08 473.22 604.05 477.06 602.77 C 477.28 602.70 477.50 602.66 477.73 602.66 C 482.90 602.66 492.67 605.78 492.67 617.59 C 492.80 623.06 488.74 627.73 483.31 628.37 C 482.80 628.43 482.28 628.47 481.77 628.47 Z M 478.06 606.94 C 476.24 607.59 472.26 609.63 475.22 619.45 C 476.16 622.70 479.40 624.72 482.73 624.14 C 485.94 623.85 488.39 621.15 488.39 617.93 C 488.40 608.00 479.88 607.00 478.06 606.94 Z" fill="#040000" fill-rule="nonzero" node-id="259" stroke="none" target-height="25.926697" target-width="25.460327" target-x="467.34" target-y="602.66"></path><path d="M 418.00 613.33 C 418.00 613.33 426.53 628.69 426.53 638.93" fill="#ffffff" fill-rule="nonzero" node-id="261" stroke="none" target-height="25.599976" target-width="8.529999" target-x="418" target-y="613.33"></path><path d="M 426.53 641.06 C 425.35 641.06 424.40 640.11 424.40 638.93 C 424.40 629.36 416.22 614.51 416.13 614.36 C 415.63 613.34 416.02 612.10 417.02 611.55 C 418.01 610.99 419.27 611.32 419.87 612.29 C 420.22 612.94 428.67 628.29 428.67 638.93 C 428.66 640.11 427.71 641.06 426.53 641.06 Z" fill="#040000" fill-rule="nonzero" node-id="263" stroke="none" target-height="30.065796" target-width="13.041565" target-x="415.62845" target-y="610.9942"></path><path d="M 430.80 609.06 C 436.26 618.08 439.21 628.39 439.33 638.93" fill="#ffffff" fill-rule="nonzero" node-id="265" stroke="none" target-height="29.869995" target-width="8.529999" target-x="430.8" target-y="609.06"></path><path d="M 439.33 641.06 C 438.15 641.06 437.20 640.11 437.20 638.93 C 437.06 628.81 434.23 618.91 429.00 610.24 C 428.35 609.26 428.61 607.94 429.60 607.28 C 430.58 606.63 431.90 606.90 432.55 607.88 C 438.26 617.22 441.34 627.93 441.45 638.88 C 441.46 639.45 441.24 640.00 440.84 640.41 C 440.45 640.82 439.90 641.05 439.33 641.06 Z" fill="#040000" fill-rule="nonzero" node-id="267" stroke="none" target-height="34.426697" target-width="13.112396" target-x="428.3483" target-y="606.6333"></path><path d="M 443.60 604.79 C 443.60 604.79 456.40 621.86 452.13 634.66" fill="#ffffff" fill-rule="nonzero" node-id="269" stroke="none" target-height="29.869995" target-width="12.799988" target-x="443.6" target-y="604.79"></path><path d="M 452.13 636.79 C 451.90 636.79 451.68 636.75 451.46 636.68 C 450.92 636.50 450.48 636.12 450.22 635.61 C 449.97 635.10 449.93 634.52 450.11 633.98 C 453.98 622.38 442.02 606.23 441.89 606.07 C 441.27 605.12 441.49 603.86 442.40 603.18 C 443.30 602.50 444.58 602.65 445.31 603.51 C 445.86 604.25 458.72 621.63 454.16 635.33 C 453.87 636.20 453.05 636.79 452.13 636.79 Z" fill="#040000" fill-rule="nonzero" node-id="271" stroke="none" target-height="34.288147" target-width="17.451233" target-x="441.26877" target-y="602.50366"></path><path d="M 477.73 655.99 L 482.00 643.19 L 464.93 643.19 L 477.73 655.99 Z" fill="#040000" fill-rule="nonzero" node-id="273" stroke="none" target-height="12.799988" target-width="17.070007" target-x="464.93" target-y="643.19"></path><path d="M 477.73 658.13 C 477.16 658.13 476.62 657.90 476.22 657.50 L 463.42 644.70 C 462.81 644.09 462.62 643.17 462.95 642.37 C 463.29 641.58 464.07 641.06 464.93 641.06 L 482.00 641.06 C 482.68 641.07 483.32 641.40 483.72 641.95 C 484.11 642.51 484.22 643.22 484.00 643.87 L 479.74 656.67 C 479.50 657.37 478.92 657.90 478.20 658.07 C 478.05 658.11 477.89 658.13 477.73 658.13 Z M 470.08 645.33 L 476.80 652.00 L 479.04 645.29 Z" fill="#040000" fill-rule="nonzero" node-id="275" stroke="none" target-height="17.07312" target-width="21.594177" target-x="462.62378" target-y="641.0569"></path><path d="M 799.27 342.09 C 794.47 344.97 794.43 349.57 799.21 352.54 C 799.87 352.94 800.71 352.94 801.37 352.54 C 819.73 340.25 796.22 325.85 783.37 334.63 C 776.15 339.57 778.50 349.70 782.29 356.09 C 787.13 364.22 794.64 365.33 802.99 361.35 C 817.89 354.24 831.76 325.35 814.38 313.55 C 806.38 308.13 795.26 310.71 788.22 316.55 C 779.86 323.42 777.42 333.66 779.59 343.96 C 780.15 346.64 784.26 345.51 783.70 342.83 C 780.92 329.62 789.70 313.96 804.76 314.91 C 821.09 315.91 819.15 334.78 813.76 344.85 C 810.01 351.94 797.70 364.91 788.57 357.52 C 782.91 352.95 779.04 338.52 791.75 336.84 C 794.32 336.94 796.86 337.30 799.36 337.90 C 804.27 345.44 804.94 348.08 801.36 345.82 C 803.71 344.40 801.57 340.71 799.21 342.13 Z" fill="#040000" fill-rule="nonzero" node-id="277" stroke="none" target-height="57.19998" target-width="55.609985" target-x="776.15" target-y="308.13"></path><path d="M 776.40 265.59 C 776.22 265.59 776.05 265.57 775.88 265.53 C 774.79 265.25 765.17 262.69 763.57 256.93 C 763.07 255.15 763.16 252.35 766.36 249.15 C 767.21 248.44 768.45 248.50 769.23 249.28 C 770.01 250.06 770.07 251.30 769.36 252.15 C 767.96 253.55 767.36 254.77 767.67 255.77 C 768.41 258.43 774.21 260.69 776.91 261.37 C 777.96 261.62 778.66 262.63 778.52 263.70 C 778.39 264.78 777.47 265.58 776.39 265.57 Z" fill="#040000" fill-rule="nonzero" node-id="279" stroke="none" target-height="17.145737" target-width="15.585144" target-x="763.07" target-y="248.44426"></path><path d="M 793.46 265.59 C 792.42 265.59 791.53 264.83 791.36 263.81 C 791.17 262.69 786.99 236.21 805.75 231.52 C 806.50 231.32 807.29 231.55 807.83 232.10 C 808.36 232.66 808.56 233.46 808.33 234.20 C 808.11 234.93 807.50 235.49 806.75 235.66 C 791.75 239.41 795.50 262.87 795.54 263.11 C 795.64 263.67 795.50 264.24 795.18 264.70 C 794.85 265.16 794.35 265.47 793.79 265.56 Z" fill="#040000" fill-rule="nonzero" node-id="281" stroke="none" target-height="34.266876" target-width="21.565674" target-x="786.99" target-y="231.32312"></path><path d="M 840.40 269.86 C 840.26 269.87 840.12 269.87 839.98 269.86 C 838.83 269.62 838.08 268.50 838.31 267.35 C 838.49 266.43 842.98 244.89 860.78 235.99 C 861.82 235.55 863.02 236.00 863.52 237.01 C 864.03 238.01 863.66 239.24 862.69 239.81 C 846.78 247.76 842.53 267.98 842.49 268.19 C 842.27 269.17 841.40 269.86 840.40 269.86 Z" fill="#040000" fill-rule="nonzero" node-id="283" stroke="none" target-height="34.31729" target-width="25.94574" target-x="838.0828" target-y="235.55252"></path><path d="M 912.93 312.53 L 878.80 312.53 C 877.68 312.45 876.81 311.52 876.81 310.39 C 876.81 309.27 877.68 308.34 878.80 308.26 L 912.93 308.26 C 913.73 308.21 914.49 308.60 914.90 309.28 C 915.32 309.97 915.32 310.82 914.90 311.51 C 914.49 312.19 913.73 312.58 912.93 312.53 Z" fill="#040000" fill-rule="nonzero" node-id="285" stroke="none" target-height="4.379242" target-width="38.513855" target-x="876.8062" target-y="308.20538"></path><path d="M 904.40 380.79 C 904.05 380.80 903.71 380.72 903.40 380.57 C 894.80 376.26 878.18 363.83 877.48 363.30 C 876.54 362.59 876.35 361.26 877.05 360.31 C 877.76 359.37 879.10 359.18 880.04 359.89 C 880.21 360.01 897.04 372.62 905.31 376.75 C 906.16 377.21 906.59 378.20 906.36 379.14 C 906.12 380.08 905.28 380.74 904.31 380.75 Z" fill="#040000" fill-rule="nonzero" node-id="287" stroke="none" target-height="21.612885" target-width="30.243958" target-x="876.3481" target-y="359.18307"></path><path d="M 861.81 415.63 C 850.25 415.63 843.09 401.63 842.81 400.95 C 842.28 399.90 842.71 398.62 843.76 398.09 C 844.81 397.56 846.09 397.99 846.62 399.04 C 846.70 399.19 854.52 414.40 865.37 410.77 C 866.49 410.40 867.70 411.00 868.07 412.12 C 868.44 413.24 867.84 414.45 866.72 414.82 C 865.14 415.35 863.48 415.63 861.81 415.63 Z" fill="#040000" fill-rule="nonzero" node-id="289" stroke="none" target-height="18.067444" target-width="26.160217" target-x="842.2826" target-y="397.56256"></path><path d="M 362.53 688.00 L 362.53 688.00 C 361.35 688.00 360.40 687.05 360.40 685.87 C 360.40 685.53 360.46 677.62 365.92 674.25 C 369.56 672.00 374.48 672.39 380.55 675.43 C 396.23 683.27 399.67 679.84 407.96 671.56 C 416.71 662.81 506.78 665.95 524.75 666.67 C 525.91 666.75 526.80 667.73 526.75 668.89 C 526.75 669.46 526.51 670.01 526.09 670.39 C 525.66 670.77 525.10 670.95 524.53 670.89 C 483.64 669.26 416.66 668.80 410.92 674.54 C 402.26 683.20 397.04 688.43 378.59 679.20 C 375.39 677.61 370.98 676.08 368.12 677.83 C 364.69 679.94 364.62 685.78 364.62 685.83 C 364.64 687.00 363.70 687.97 362.53 688.00 Z" fill="#040000" fill-rule="nonzero" node-id="291" stroke="none" target-height="25.619995" target-width="166.39584" target-x="360.4" target-y="662.81"></path><path d="M 525.13 384.62 C 520.02 384.56 515.03 383.12 510.68 380.43 C 509.70 379.78 509.43 378.46 510.09 377.48 C 510.74 376.49 512.06 376.23 513.04 376.88 C 513.52 377.19 524.85 384.49 536.28 376.88 C 537.26 376.23 538.59 376.49 539.24 377.47 C 539.89 378.45 539.63 379.78 538.65 380.43 C 534.67 383.15 529.96 384.61 525.13 384.62 Z" fill="#040000" fill-rule="nonzero" node-id="293" stroke="none" target-height="8.39444" target-width="30.461151" target-x="509.43332" target-y="376.22556"></path></svg>