<?xml version="1.0" standalone="no"?><!DOCTYPE svg PUBLIC "-//W3C//DTD SVG 1.1//EN" "http://www.w3.org/Graphics/SVG/1.1/DTD/svg11.dtd"><svg height="1024" node-id="1" sillyvg="true" template-height="1024" template-width="1024" version="1.1" viewBox="0 0 1024 1024" width="1024" xmlns="http://www.w3.org/2000/svg" xmlns:xlink="http://www.w3.org/1999/xlink"><defs node-id="22"></defs><path d="M 814.00 422.90 L 814.00 815.80 C 814.00 822.00 808.90 827.10 802.70 827.10 L 221.40 827.10 C 215.20 827.10 210.10 822.00 210.10 815.80 L 210.10 422.90 C 210.10 410.20 210.90 397.60 212.50 385.30 C 223.50 297.50 272.60 221.20 342.60 173.40 C 390.90 140.30 449.30 121.00 512.00 121.00 C 574.70 121.00 633.00 140.40 681.40 173.40 C 697.10 184.10 711.80 196.30 725.20 209.70 C 773.50 258.00 805.60 322.50 812.50 394.00 C 813.50 403.50 814.00 413.20 814.00 422.90 Z" fill="#ad6d5a" fill-rule="nonzero" node-id="24" stroke="none" target-height="706.1" target-width="603.9" target-x="210.1" target-y="121"></path><path d="M 629.30 906.10 L 394.70 906.10 L 316.80 832.10 C 340.20 742.80 400.20 702.00 400.20 702.00 L 623.90 702.00 C 623.90 702.00 683.80 742.80 707.30 832.10 L 629.30 906.10 Z" fill="#64c4f6" fill-rule="nonzero" node-id="26" stroke="none" target-height="204.09998" target-width="390.50003" target-x="316.801" target-y="702"></path><path d="M 394.70 827.10 L 394.70 906.10 L 307.50 906.10 C 307.50 878.50 311.00 848.90 316.80 827.10 L 394.70 827.10 Z" fill="#ffece3" fill-rule="nonzero" node-id="28" stroke="none" target-height="79" target-width="87.20001" target-x="307.5" target-y="827.1"></path><path d="M 716.50 906.10 L 629.30 906.10 L 629.30 827.10 L 707.20 827.10 C 712.90 848.90 716.50 878.50 716.50 906.10 Z" fill="#ffece3" fill-rule="nonzero" node-id="30" stroke="none" target-height="79" target-width="87.19995" target-x="629.301" target-y="827.1"></path><path d="M 512.00 660.30 C 552.60 660.30 585.60 681.50 585.60 707.70 C 561.30 728.80 552.60 755.10 512.00 755.10 C 471.40 755.10 471.80 731.40 438.40 707.70 C 438.40 681.50 471.40 660.30 512.00 660.30 Z" fill="#f7dbd0" fill-rule="nonzero" node-id="32" stroke="none" target-height="94.79999" target-width="147.19998" target-x="438.4" target-y="660.3"></path><path d="M 583.40 718.90 L 512.00 790.30 L 440.60 718.90 L 443.10 718.00 C 453.10 714.50 460.80 706.60 464.20 696.60 L 511.90 744.30 L 559.60 696.60 C 563.00 706.60 570.80 714.50 580.70 718.00 L 583.40 718.90 Z" fill="#4eaee0" fill-rule="nonzero" node-id="34" stroke="none" target-height="93.70001" target-width="142.80002" target-x="440.6" target-y="696.6"></path><path d="M 569.40 906.10 L 546.40 906.10 L 546.40 824.70 L 512.00 790.30 L 528.20 774.10 L 566.00 811.90 C 568.20 814.10 569.40 817.00 569.40 820.00 L 569.40 906.10 Z" fill="#4eaee0" fill-rule="nonzero" node-id="36" stroke="none" target-height="132" target-width="57.400024" target-x="512" target-y="774.1"></path><path d="M 507.30 720.00 L 507.00 720.50 L 506.70 720.00 L 507.00 720.00 L 507.30 720.00 Z" fill="#efeaeb" fill-rule="nonzero" node-id="38" stroke="none" target-height="0.5" target-width="0.6000061" target-x="506.701" target-y="720"></path><path d="M 507.30 720.00 L 507.00 720.50 L 506.70 720.00 L 507.00 720.00 L 507.30 720.00 Z" fill="#efeaeb" fill-rule="nonzero" node-id="40" stroke="none" target-height="0.5" target-width="0.6000061" target-x="506.701" target-y="720"></path><path d="M 507.30 720.00 L 507.00 720.50 L 506.70 720.00 L 507.00 720.00 L 507.30 720.00 Z" fill="#efeaeb" fill-rule="nonzero" node-id="42" stroke="none" target-height="0.5" target-width="0.6000061" target-x="506.701" target-y="720"></path><path d="M 507.30 720.00 L 507.00 720.50 L 506.70 720.00 L 507.00 720.00 L 507.30 720.00 Z" fill="#efeaeb" fill-rule="nonzero" node-id="44" stroke="none" target-height="0.5" target-width="0.6000061" target-x="506.701" target-y="720"></path><path d="M 249.70 547.30 C 292.12 547.30 326.50 512.92 326.50 470.50 C 326.50 428.08 292.12 393.70 249.70 393.70 C 207.28 393.70 172.90 428.08 172.90 470.50 C 172.90 512.92 207.28 547.30 249.70 547.30 Z" fill="#f7dbd0" fill-rule="nonzero" node-id="46" stroke="none" target-height="153.59998" target-width="153.6" target-x="172.9" target-y="393.7"></path><path d="M 774.30 547.30 C 816.72 547.30 851.10 512.92 851.10 470.50 C 851.10 428.08 816.72 393.70 774.30 393.70 C 731.88 393.70 697.50 428.08 697.50 470.50 C 697.50 512.92 731.88 547.30 774.30 547.30 Z" fill="#f7dbd0" fill-rule="nonzero" node-id="48" stroke="none" target-height="153.59998" target-width="153.59998" target-x="697.5" target-y="393.7"></path><path d="M 512.00 728.80 C 660.73 728.80 781.30 608.23 781.30 459.50 C 781.30 310.77 660.73 190.20 512.00 190.20 C 363.27 190.20 242.70 310.77 242.70 459.50 C 242.70 608.23 363.27 728.80 512.00 728.80 Z" fill="#ffece3" fill-rule="nonzero" node-id="50" stroke="none" target-height="538.6" target-width="538.60004" target-x="242.701" target-y="190.2"></path><path d="M 436.30 526.30 C 429.30 526.30 423.60 520.60 423.60 513.60 L 423.60 503.40 C 423.60 496.40 429.30 490.70 436.30 490.70 C 443.30 490.70 449.00 496.40 449.00 503.40 L 449.00 513.60 C 449.00 520.70 443.30 526.30 436.30 526.30 Z" fill="#450064" fill-rule="nonzero" node-id="52" stroke="none" target-height="35.599976" target-width="25.399994" target-x="423.6" target-y="490.7"></path><path d="M 587.70 526.30 C 580.70 526.30 575.00 520.60 575.00 513.60 L 575.00 503.40 C 575.00 496.40 580.70 490.70 587.70 490.70 C 594.70 490.70 600.40 496.40 600.40 503.40 L 600.40 513.60 C 600.40 520.70 594.70 526.30 587.70 526.30 Z" fill="#450064" fill-rule="nonzero" node-id="54" stroke="none" target-height="35.599976" target-width="25.400024" target-x="575" target-y="490.7"></path><path d="M 512.00 597.70 C 495.60 597.70 480.10 590.60 469.30 578.30 C 464.70 573.00 465.30 565.00 470.50 560.40 C 475.80 555.80 483.80 556.40 488.40 561.60 C 494.40 568.40 503.00 572.40 512.00 572.40 C 521.00 572.40 529.60 568.50 535.60 561.70 C 540.20 556.40 548.20 555.90 553.50 560.50 C 558.80 565.10 559.30 573.10 554.70 578.40 C 543.90 590.60 528.40 597.70 512.00 597.70 Z" fill="#450064" fill-rule="nonzero" node-id="56" stroke="none" target-height="41.900024" target-width="94.600006" target-x="464.699" target-y="555.8"></path><path d="M 812.60 394.00 C 808.50 394.10 804.30 394.20 800.20 394.20 C 716.40 394.20 638.00 371.10 571.10 330.80 C 501.80 375.30 419.30 401.20 330.70 401.20 C 289.80 401.20 250.10 395.70 212.40 385.30 C 223.40 297.50 272.50 221.20 342.50 173.40 C 390.90 140.30 449.30 121.00 512.00 121.00 C 574.70 121.00 633.00 140.40 681.40 173.40 C 697.10 184.10 711.80 196.30 725.20 209.70 C 773.60 258.00 805.70 322.40 812.60 394.00 Z" fill="#d79b89" fill-rule="nonzero" node-id="58" stroke="none" target-height="280.2" target-width="600.19995" target-x="212.4" target-y="121"></path><path d="M 528.08 849.87 C 531.76 840.99 527.54 830.81 518.66 827.13 C 509.79 823.45 499.61 827.67 495.93 836.55 C 492.25 845.43 496.47 855.60 505.35 859.28 C 514.22 862.96 524.40 858.74 528.08 849.87 Z" fill="#ffffff" fill-rule="nonzero" node-id="60" stroke="none" target-height="39.50702" target-width="39.50699" target-x="492.251" target-y="823.453"></path></svg>