<?xml version="1.0" standalone="no"?><!DOCTYPE svg PUBLIC "-//W3C//DTD SVG 1.1//EN" "http://www.w3.org/Graphics/SVG/1.1/DTD/svg11.dtd"><svg height="1024" node-id="1" sillyvg="true" template-height="1024" template-width="1024" version="1.1" viewBox="0 0 1024 1024" width="1024" xmlns="http://www.w3.org/2000/svg" xmlns:xlink="http://www.w3.org/1999/xlink"><defs node-id="28"></defs><path d="M 629.30 906.10 L 394.70 906.10 L 316.80 832.10 C 340.20 742.80 400.20 702.00 400.20 702.00 L 623.90 702.00 C 623.90 702.00 683.80 742.80 707.30 832.10 L 629.30 906.10 Z" fill="#f7867f" fill-rule="nonzero" node-id="30" stroke="none" target-height="204.09998" target-width="390.50003" target-x="316.801" target-y="702"></path><path d="M 394.70 827.10 L 394.70 906.10 L 307.50 906.10 C 307.50 878.50 311.00 848.90 316.80 827.10 L 394.70 827.10 Z" fill="#ffece3" fill-rule="nonzero" node-id="32" stroke="none" target-height="79" target-width="87.20001" target-x="307.5" target-y="827.101"></path><path d="M 716.50 906.10 L 629.30 906.10 L 629.30 827.10 L 707.20 827.10 C 712.90 848.90 716.50 878.50 716.50 906.10 Z" fill="#ffece3" fill-rule="nonzero" node-id="34" stroke="none" target-height="79" target-width="87.19995" target-x="629.301" target-y="827.101"></path><path d="M 517.30 720.10 L 490.50 758.70 C 480.90 772.60 460.50 773.10 450.20 759.70 L 403.80 699.30 L 517.30 720.10 Z" fill="#ffffff" fill-rule="nonzero" node-id="36" stroke="none" target-height="73.79999" target-width="113.50003" target-x="403.801" target-y="699.3"></path><path d="M 506.70 720.10 L 533.50 758.70 C 543.10 772.60 563.50 773.10 573.80 759.70 L 620.20 699.30 L 506.70 720.10 Z" fill="#ffffff" fill-rule="nonzero" node-id="38" stroke="none" target-height="73.79999" target-width="113.5" target-x="506.701" target-y="699.3"></path><path d="M 507.30 720.00 L 507.00 720.50 L 506.70 720.00 L 507.00 720.00 L 507.30 720.00 Z" fill="#efeaeb" fill-rule="nonzero" node-id="40" stroke="none" target-height="0.5" target-width="0.6000061" target-x="506.701" target-y="720"></path><path d="M 507.30 720.00 L 507.00 720.50 L 506.70 720.00 L 507.00 720.00 L 507.30 720.00 Z" fill="#efeaeb" fill-rule="nonzero" node-id="42" stroke="none" target-height="0.5" target-width="0.6000061" target-x="506.701" target-y="720"></path><path d="M 507.30 720.00 L 507.00 720.50 L 506.70 720.00 L 507.00 720.00 L 507.30 720.00 Z" fill="#efeaeb" fill-rule="nonzero" node-id="44" stroke="none" target-height="0.5" target-width="0.6000061" target-x="506.701" target-y="720"></path><path d="M 507.30 720.00 L 507.00 720.50 L 506.70 720.00 L 507.00 720.00 L 507.30 720.00 Z" fill="#efeaeb" fill-rule="nonzero" node-id="46" stroke="none" target-height="0.5" target-width="0.6000061" target-x="506.701" target-y="720"></path><path d="M 249.70 547.30 C 292.12 547.30 326.50 512.92 326.50 470.50 C 326.50 428.08 292.12 393.70 249.70 393.70 C 207.28 393.70 172.90 428.08 172.90 470.50 C 172.90 512.92 207.28 547.30 249.70 547.30 Z" fill="#f7dbd0" fill-rule="nonzero" node-id="48" stroke="none" target-height="153.59998" target-width="153.6" target-x="172.9" target-y="393.7"></path><path d="M 774.30 547.30 C 816.72 547.30 851.10 512.92 851.10 470.50 C 851.10 428.08 816.72 393.70 774.30 393.70 C 731.88 393.70 697.50 428.08 697.50 470.50 C 697.50 512.92 731.88 547.30 774.30 547.30 Z" fill="#f7dbd0" fill-rule="nonzero" node-id="50" stroke="none" target-height="153.59998" target-width="153.59998" target-x="697.5" target-y="393.7"></path><path d="M 251.50 584.50 C 271.88 584.50 288.40 567.98 288.40 547.60 C 288.40 527.22 271.88 510.70 251.50 510.70 C 231.12 510.70 214.60 527.22 214.60 547.60 C 214.60 567.98 231.12 584.50 251.50 584.50 Z" fill="#fce170" fill-rule="nonzero" node-id="52" stroke="none" target-height="73.79999" target-width="73.79999" target-x="214.6" target-y="510.7"></path><path d="M 772.50 584.50 C 792.88 584.50 809.40 567.98 809.40 547.60 C 809.40 527.22 792.88 510.70 772.50 510.70 C 752.12 510.70 735.60 527.22 735.60 547.60 C 735.60 567.98 752.12 584.50 772.50 584.50 Z" fill="#fce170" fill-rule="nonzero" node-id="54" stroke="none" target-height="73.79999" target-width="73.80005" target-x="735.6" target-y="510.7"></path><path d="M 512.00 728.80 C 660.73 728.80 781.30 608.23 781.30 459.50 C 781.30 310.77 660.73 190.20 512.00 190.20 C 363.27 190.20 242.70 310.77 242.70 459.50 C 242.70 608.23 363.27 728.80 512.00 728.80 Z" fill="#ffece3" fill-rule="nonzero" node-id="56" stroke="none" target-height="538.6" target-width="538.60004" target-x="242.701" target-y="190.2"></path><path d="M 376.30 597.70 C 403.80 597.70 426.10 580.01 426.10 558.20 C 426.10 536.38 403.80 518.70 376.30 518.70 C 348.80 518.70 326.50 536.38 326.50 558.20 C 326.50 580.01 348.80 597.70 376.30 597.70 Z" fill="#ffd7df" fill-rule="nonzero" node-id="58" stroke="none" target-height="79" target-width="99.600006" target-x="326.5" target-y="518.7"></path><path d="M 647.70 597.70 C 675.20 597.70 697.50 580.01 697.50 558.20 C 697.50 536.38 675.20 518.70 647.70 518.70 C 620.20 518.70 597.90 536.38 597.90 558.20 C 597.90 580.01 620.20 597.70 647.70 597.70 Z" fill="#ffd7df" fill-rule="nonzero" node-id="60" stroke="none" target-height="79" target-width="99.599976" target-x="597.9" target-y="518.7"></path><path d="M 776.90 213.80 C 772.00 211.90 768.50 207.50 767.70 202.30 C 761.60 163.40 728.00 133.70 687.40 133.70 C 672.10 133.70 657.80 137.90 645.60 145.30 C 639.60 148.90 632.00 147.40 627.30 142.20 C 603.60 115.50 560.80 97.70 512.00 97.70 C 463.20 97.70 420.40 115.50 396.70 142.20 C 392.10 147.40 384.40 148.90 378.40 145.30 C 366.20 138.00 351.90 133.70 336.60 133.70 C 296.00 133.70 262.40 163.40 256.30 202.30 C 255.50 207.50 252.00 211.90 247.10 213.80 C 213.10 226.90 188.80 261.10 188.80 301.20 C 188.80 352.70 228.70 394.40 277.90 394.40 C 325.10 394.40 362.20 367.40 374.90 330.10 C 377.40 322.90 385.00 318.90 392.40 320.90 C 430.70 331.20 473.80 323.30 502.60 299.60 C 508.00 295.10 515.80 295.10 521.20 299.60 C 550.00 323.30 593.10 331.20 631.40 320.90 C 638.80 318.90 646.40 322.90 648.90 330.10 C 661.60 367.40 698.70 394.40 745.90 394.40 C 795.10 394.40 835.00 352.70 835.00 301.20 C 835.20 261.10 810.90 226.90 776.90 213.80 Z" fill="#f3f3f3" fill-rule="nonzero" node-id="62" stroke="none" target-height="296.6998" target-width="646.4" target-x="188.801" target-y="97.7002"></path><path d="M 450.90 552.30 L 328.70 552.30 C 300.50 552.30 277.50 529.30 277.50 501.10 L 277.50 483.30 C 277.50 455.10 300.50 432.10 328.70 432.10 L 450.90 432.10 C 479.10 432.10 502.10 455.10 502.10 483.30 L 502.10 501.10 C 502.10 529.30 479.10 552.30 450.90 552.30 Z M 328.70 452.10 C 311.50 452.10 297.50 466.10 297.50 483.30 L 297.50 501.10 C 297.50 518.30 311.50 532.30 328.70 532.30 L 450.90 532.30 C 468.10 532.30 482.10 518.30 482.10 501.10 L 482.10 483.30 C 482.10 466.10 468.10 452.10 450.90 452.10 L 328.70 452.10 Z" fill="#450064" fill-rule="nonzero" node-id="64" stroke="none" target-height="120.19998" target-width="224.6" target-x="277.5" target-y="432.1"></path><path d="M 695.50 552.30 L 573.30 552.30 C 545.10 552.30 522.10 529.30 522.10 501.10 L 522.10 483.30 C 522.10 455.10 545.10 432.10 573.30 432.10 L 695.50 432.10 C 723.70 432.10 746.70 455.10 746.70 483.30 L 746.70 501.10 C 746.70 529.30 723.70 552.30 695.50 552.30 Z M 573.30 452.10 C 556.10 452.10 542.10 466.10 542.10 483.30 L 542.10 501.10 C 542.10 518.30 556.10 532.30 573.30 532.30 L 695.50 532.30 C 712.70 532.30 726.70 518.30 726.70 501.10 L 726.70 483.30 C 726.70 466.10 712.70 452.10 695.50 452.10 L 573.30 452.10 Z" fill="#450064" fill-rule="nonzero" node-id="66" stroke="none" target-height="120.19998" target-width="224.60004" target-x="522.1" target-y="432.1"></path><path d="M 719.60 459.40 C 716.60 459.40 713.70 458.10 711.70 455.60 C 708.30 451.30 709.10 445.00 713.40 441.60 L 777.00 391.80 C 781.30 388.40 787.60 389.20 791.00 393.50 C 794.40 397.80 793.60 404.10 789.30 407.50 L 725.70 457.30 C 723.90 458.70 721.80 459.40 719.60 459.40 Z" fill="#450064" fill-rule="nonzero" node-id="68" stroke="none" target-height="71" target-width="86.099976" target-x="708.299" target-y="388.4"></path><path d="M 304.60 459.40 C 302.40 459.40 300.30 458.70 298.40 457.30 L 234.80 407.50 C 230.50 404.10 229.70 397.80 233.10 393.50 C 236.50 389.20 242.80 388.40 247.10 391.80 L 310.70 441.60 C 315.00 445.00 315.80 451.30 312.40 455.60 C 310.50 458.10 307.60 459.40 304.60 459.40 Z" fill="#450064" fill-rule="nonzero" node-id="70" stroke="none" target-height="71" target-width="86.09999" target-x="229.7" target-y="388.4"></path><path d="M 532.10 511.10 L 492.10 511.10 C 486.60 511.10 482.10 506.60 482.10 501.10 C 482.10 495.60 486.60 491.10 492.10 491.10 L 532.10 491.10 C 537.60 491.10 542.10 495.60 542.10 501.10 C 542.10 506.60 537.60 511.10 532.10 511.10 Z" fill="#450064" fill-rule="nonzero" node-id="72" stroke="none" target-height="20" target-width="59.99997" target-x="482.1" target-y="491.1"></path><path d="M 436.30 526.30 C 429.30 526.30 423.60 520.60 423.60 513.60 L 423.60 503.40 C 423.60 496.40 429.30 490.70 436.30 490.70 C 443.30 490.70 449.00 496.40 449.00 503.40 L 449.00 513.60 C 449.00 520.70 443.30 526.30 436.30 526.30 Z" fill="#450064" fill-rule="nonzero" node-id="74" stroke="none" target-height="35.599976" target-width="25.399994" target-x="423.6" target-y="490.7"></path><path d="M 587.70 526.30 C 580.70 526.30 575.00 520.60 575.00 513.60 L 575.00 503.40 C 575.00 496.40 580.70 490.70 587.70 490.70 C 594.70 490.70 600.40 496.40 600.40 503.40 L 600.40 513.60 C 600.40 520.70 594.70 526.30 587.70 526.30 Z" fill="#450064" fill-rule="nonzero" node-id="76" stroke="none" target-height="35.599976" target-width="25.400024" target-x="575" target-y="490.7"></path><path d="M 512.00 597.70 C 495.60 597.70 480.10 590.60 469.30 578.30 C 464.70 573.00 465.30 565.00 470.50 560.40 C 475.80 555.80 483.80 556.40 488.40 561.60 C 494.40 568.40 503.00 572.40 512.00 572.40 C 521.00 572.40 529.60 568.50 535.60 561.70 C 540.20 556.40 548.20 555.90 553.50 560.50 C 558.80 565.10 559.30 573.10 554.70 578.40 C 543.90 590.60 528.40 597.70 512.00 597.70 Z" fill="#450064" fill-rule="nonzero" node-id="78" stroke="none" target-height="41.900024" target-width="94.600006" target-x="464.699" target-y="555.8"></path></svg>