<?xml version="1.0" standalone="no"?><!DOCTYPE svg PUBLIC "-//W3C//DTD SVG 1.1//EN" "http://www.w3.org/Graphics/SVG/1.1/DTD/svg11.dtd"><svg height="1024" node-id="1" sillyvg="true" template-height="1024" template-width="1024" version="1.1" viewBox="0 0 1024 1024" width="1024" xmlns="http://www.w3.org/2000/svg" xmlns:xlink="http://www.w3.org/1999/xlink"><defs node-id="24"></defs><path d="M 884.70 678.40 C 845.70 678.40 814.00 646.70 814.00 607.70 L 814.00 422.90 C 814.00 413.20 813.50 403.50 812.50 394.00 C 805.60 322.50 773.50 258.00 725.20 209.70 C 711.80 196.30 697.10 184.10 681.40 173.40 C 633.00 140.40 574.70 121.00 512.00 121.00 C 449.30 121.00 390.90 140.30 342.60 173.40 C 272.60 221.20 223.50 297.50 212.50 385.30 C 210.90 397.60 210.10 410.20 210.10 422.90 L 210.10 607.70 C 210.10 646.70 178.40 678.40 139.40 678.40 L 139.30 678.40 C 139.30 760.50 205.90 827.10 288.00 827.10 L 736.00 827.10 C 818.10 827.10 884.70 760.50 884.70 678.40 Z" fill="#ad6d5a" fill-rule="nonzero" node-id="26" stroke="none" target-height="706.1" target-width="745.4" target-x="139.301" target-y="121"></path><path d="M 629.30 906.10 L 394.70 906.10 L 316.80 832.10 C 340.20 742.80 400.20 702.00 400.20 702.00 L 623.90 702.00 C 623.90 702.00 683.80 742.80 707.30 832.10 L 629.30 906.10 Z" fill="#f7867f" fill-rule="nonzero" node-id="28" stroke="none" target-height="204.09998" target-width="390.50003" target-x="316.801" target-y="702"></path><path d="M 394.70 827.10 L 394.70 906.10 L 307.50 906.10 C 307.50 878.50 311.00 848.90 316.80 827.10 L 394.70 827.10 Z" fill="#ffece3" fill-rule="nonzero" node-id="30" stroke="none" target-height="79" target-width="87.20001" target-x="307.5" target-y="827.1"></path><path d="M 716.50 906.10 L 629.30 906.10 L 629.30 827.10 L 707.20 827.10 C 712.90 848.90 716.50 878.50 716.50 906.10 Z" fill="#ffece3" fill-rule="nonzero" node-id="32" stroke="none" target-height="79" target-width="87.19995" target-x="629.301" target-y="827.1"></path><path d="M 517.30 720.10 L 490.50 758.70 C 480.90 772.60 460.50 773.10 450.20 759.70 L 403.80 699.30 L 517.30 720.10 Z" fill="#ffffff" fill-rule="nonzero" node-id="34" stroke="none" target-height="73.79999" target-width="113.50003" target-x="403.801" target-y="699.3"></path><path d="M 506.70 720.10 L 533.50 758.70 C 543.10 772.60 563.50 773.10 573.80 759.70 L 620.20 699.30 L 506.70 720.10 Z" fill="#ffffff" fill-rule="nonzero" node-id="36" stroke="none" target-height="73.79999" target-width="113.5" target-x="506.701" target-y="699.3"></path><path d="M 507.30 720.00 L 507.00 720.50 L 506.70 720.00 L 507.00 720.00 L 507.30 720.00 Z" fill="#efeaeb" fill-rule="nonzero" node-id="38" stroke="none" target-height="0.5" target-width="0.6000061" target-x="506.701" target-y="720"></path><path d="M 507.30 720.00 L 507.00 720.50 L 506.70 720.00 L 507.00 720.00 L 507.30 720.00 Z" fill="#efeaeb" fill-rule="nonzero" node-id="40" stroke="none" target-height="0.5" target-width="0.6000061" target-x="506.701" target-y="720"></path><path d="M 507.30 720.00 L 507.00 720.50 L 506.70 720.00 L 507.00 720.00 L 507.30 720.00 Z" fill="#efeaeb" fill-rule="nonzero" node-id="42" stroke="none" target-height="0.5" target-width="0.6000061" target-x="506.701" target-y="720"></path><path d="M 507.30 720.00 L 507.00 720.50 L 506.70 720.00 L 507.00 720.00 L 507.30 720.00 Z" fill="#efeaeb" fill-rule="nonzero" node-id="44" stroke="none" target-height="0.5" target-width="0.6000061" target-x="506.701" target-y="720"></path><path d="M 249.70 547.30 C 292.12 547.30 326.50 512.92 326.50 470.50 C 326.50 428.08 292.12 393.70 249.70 393.70 C 207.28 393.70 172.90 428.08 172.90 470.50 C 172.90 512.92 207.28 547.30 249.70 547.30 Z" fill="#f7dbd0" fill-rule="nonzero" node-id="46" stroke="none" target-height="153.59998" target-width="153.6" target-x="172.9" target-y="393.7"></path><path d="M 774.30 547.30 C 816.72 547.30 851.10 512.92 851.10 470.50 C 851.10 428.08 816.72 393.70 774.30 393.70 C 731.88 393.70 697.50 428.08 697.50 470.50 C 697.50 512.92 731.88 547.30 774.30 547.30 Z" fill="#f7dbd0" fill-rule="nonzero" node-id="48" stroke="none" target-height="153.59998" target-width="153.59998" target-x="697.5" target-y="393.7"></path><path d="M 251.50 584.50 C 271.88 584.50 288.40 567.98 288.40 547.60 C 288.40 527.22 271.88 510.70 251.50 510.70 C 231.12 510.70 214.60 527.22 214.60 547.60 C 214.60 567.98 231.12 584.50 251.50 584.50 Z" fill="#fce170" fill-rule="nonzero" node-id="50" stroke="none" target-height="73.79999" target-width="73.8" target-x="214.602" target-y="510.7"></path><path d="M 772.50 584.50 C 792.88 584.50 809.40 567.98 809.40 547.60 C 809.40 527.22 792.88 510.70 772.50 510.70 C 752.12 510.70 735.60 527.22 735.60 547.60 C 735.60 567.98 752.12 584.50 772.50 584.50 Z" fill="#fce170" fill-rule="nonzero" node-id="52" stroke="none" target-height="73.79999" target-width="73.79999" target-x="735.602" target-y="510.7"></path><path d="M 512.00 728.80 C 660.73 728.80 781.30 608.23 781.30 459.50 C 781.30 310.77 660.73 190.20 512.00 190.20 C 363.27 190.20 242.70 310.77 242.70 459.50 C 242.70 608.23 363.27 728.80 512.00 728.80 Z" fill="#ffece3" fill-rule="nonzero" node-id="54" stroke="none" target-height="538.6" target-width="538.60004" target-x="242.701" target-y="190.2"></path><path d="M 376.30 597.70 C 403.80 597.70 426.10 580.01 426.10 558.20 C 426.10 536.38 403.80 518.70 376.30 518.70 C 348.80 518.70 326.50 536.38 326.50 558.20 C 326.50 580.01 348.80 597.70 376.30 597.70 Z" fill="#ffd7df" fill-rule="nonzero" node-id="56" stroke="none" target-height="79" target-width="99.600006" target-x="326.5" target-y="518.7"></path><path d="M 647.70 597.70 C 675.20 597.70 697.50 580.01 697.50 558.20 C 697.50 536.38 675.20 518.70 647.70 518.70 C 620.20 518.70 597.90 536.38 597.90 558.20 C 597.90 580.01 620.20 597.70 647.70 597.70 Z" fill="#ffd7df" fill-rule="nonzero" node-id="58" stroke="none" target-height="79" target-width="99.599976" target-x="597.9" target-y="518.7"></path><path d="M 436.30 526.30 C 429.30 526.30 423.60 520.60 423.60 513.60 L 423.60 503.40 C 423.60 496.40 429.30 490.70 436.30 490.70 C 443.30 490.70 449.00 496.40 449.00 503.40 L 449.00 513.60 C 449.00 520.70 443.30 526.30 436.30 526.30 Z" fill="#450064" fill-rule="nonzero" node-id="60" stroke="none" target-height="35.599976" target-width="25.400024" target-x="423.602" target-y="490.7"></path><path d="M 587.70 526.30 C 580.70 526.30 575.00 520.60 575.00 513.60 L 575.00 503.40 C 575.00 496.40 580.70 490.70 587.70 490.70 C 594.70 490.70 600.40 496.40 600.40 503.40 L 600.40 513.60 C 600.40 520.70 594.70 526.30 587.70 526.30 Z" fill="#450064" fill-rule="nonzero" node-id="62" stroke="none" target-height="35.599976" target-width="25.399963" target-x="575.002" target-y="490.7"></path><path d="M 512.00 597.70 C 495.60 597.70 480.10 590.60 469.30 578.30 C 464.70 573.00 465.30 565.00 470.50 560.40 C 475.80 555.80 483.80 556.40 488.40 561.60 C 494.40 568.40 503.00 572.40 512.00 572.40 C 521.00 572.40 529.60 568.50 535.60 561.70 C 540.20 556.40 548.20 555.90 553.50 560.50 C 558.80 565.10 559.30 573.10 554.70 578.40 C 543.90 590.60 528.40 597.70 512.00 597.70 Z" fill="#450064" fill-rule="nonzero" node-id="64" stroke="none" target-height="41.900024" target-width="94.60004" target-x="464.701" target-y="555.8"></path><path d="M 812.60 394.00 C 808.50 394.10 804.30 394.20 800.20 394.20 C 716.40 394.20 638.00 371.10 571.10 330.80 C 501.80 375.30 419.30 401.20 330.70 401.20 C 289.80 401.20 250.10 395.70 212.40 385.30 C 223.40 297.50 272.50 221.20 342.50 173.40 C 390.90 140.30 449.30 121.00 512.00 121.00 C 574.70 121.00 633.00 140.40 681.40 173.40 C 697.10 184.10 711.80 196.30 725.20 209.70 C 773.60 258.00 805.70 322.40 812.60 394.00 Z" fill="#d79b89" fill-rule="nonzero" node-id="66" stroke="none" target-height="280.2" target-width="600.19995" target-x="212.4" target-y="121"></path></svg>