<?xml version="1.0" standalone="no"?><!DOCTYPE svg PUBLIC "-//W3C//DTD SVG 1.1//EN" "http://www.w3.org/Graphics/SVG/1.1/DTD/svg11.dtd"><svg height="1580" node-id="1" sillyvg="true" template-height="1580" template-width="1025" version="1.1" viewBox="0 0 1025 1580" width="1025" xmlns="http://www.w3.org/2000/svg" xmlns:xlink="http://www.w3.org/1999/xlink"><defs node-id="90"></defs><g node-id="92"><path d="M 397.77 34.96 L 360.18 50.09" fill="none" group-id="1" id="路径" node-id="6" stroke="#d9a788" stroke-linecap="butt" stroke-width="1" target-height="15.1286125" target-width="37.592285" target-x="360.17825" target-y="34.959614"></path><path d="M 360.18 50.09 L 347.80 56.23 L 335.66 62.96 L 323.74 70.30 L 312.03 78.25 L 300.52 86.84 L 289.21 96.07 L 278.09 105.97 L 267.16 116.57 L 256.42 127.87" fill="none" group-id="1" id="路径" node-id="7" stroke="#f1b28b" stroke-linecap="butt" stroke-width="1" target-height="77.782455" target-width="103.760895" target-x="256.41736" target-y="50.088226"></path><path d="M 256.42 127.87 L 247.97 134.27 L 240.13 140.94 L 232.86 147.88 L 226.13 155.09 L 219.94 162.58 L 214.27 170.36 L 209.09 178.45 L 204.40 186.85 L 200.21 195.58 L 196.49 204.66 L 193.25 214.12 L 190.51 223.96 L 188.26 234.23" fill="none" group-id="1" id="路径" node-id="8" stroke="#f9d5be" stroke-linecap="butt" stroke-width="1" target-height="106.35872" target-width="68.15515" target-x="188.2622" target-y="127.87068"></path><path d="M 188.26 234.23 L 175.58 276.25" fill="none" group-id="1" id="路径" node-id="9" stroke="#f1b28b" stroke-linecap="butt" stroke-width="1" target-height="42.023926" target-width="12.6835785" target-x="175.57863" target-y="234.2294"></path><path d="M 175.58 276.25 L 174.96 283.39 L 173.85 289.95 L 172.29 295.96 L 170.29 301.50 L 167.87 306.58 L 165.04 311.26 L 161.78 315.57 L 158.08 319.53 L 153.93 323.15 L 149.28 326.45 L 144.10 329.43 L 140.47 331.55 L 137.44 333.83 L 134.85 336.42 L 132.94 339.06 L 129.26 345.96 L 126.50 352.35 L 124.56 358.29 L 123.36 363.83 L 122.84 369.03 L 122.94 373.93 L 123.63 378.58 L 124.90 383.03 L 126.75 387.31 L 129.23 391.47 L 132.38 395.51 L 136.25 399.47 L 140.94 403.34 L 146.54 407.12 L 153.15 410.82 L 160.91 414.40" fill="none" group-id="1" id="路径" node-id="10" stroke="#f7c09d" stroke-linecap="butt" stroke-width="1" target-height="138.14407" target-width="52.741714" target-x="122.836914" target-y="276.25333"></path><path d="M 160.91 414.40 L 162.63 424.36 L 164.85 434.01 L 167.56 443.35 L 170.76 452.42 L 174.46 461.23 L 178.65 469.79 L 183.34 478.11 L 188.54 486.22 L 194.27 494.11 L 200.53 501.80 L 207.36 509.30" fill="none" group-id="1" id="路径" node-id="11" stroke="#a8a6a1" stroke-linecap="butt" stroke-width="1" target-height="94.897644" target-width="46.45552" target-x="160.90846" target-y="414.3974"></path><path d="M 207.36 509.30 L 206.03 512.40 L 204.27 515.09 L 202.08 517.42 L 199.42 519.42 L 196.21 521.10 L 192.39 522.44 L 183.03 525.27 L 174.65 528.27 L 167.15 531.43 L 160.48 534.72 L 154.55 538.13 L 148.55 542.15 L 143.30 546.25 L 138.73 550.42 L 134.80 554.66 L 131.46 558.98 L 128.41 563.73 L 125.90 568.51 L 123.90 573.34 L 122.39 578.25 L 121.35 583.24 L 120.74 588.33 L 120.55 593.45 L 120.76 598.62 L 121.39 603.85 L 122.45 609.17 L 124.26 615.62 L 126.61 622.07 L 129.51 628.53 L 133.01 635.01 L 136.89 641.20 L 141.21 647.26 L 146.00 653.20 L 151.26 659.02 L 156.81 664.52 L 162.68 669.75 L 168.89 674.73 L 175.45 679.45 L 182.23 683.82 L 189.22 687.78 L 196.40 691.37 L 203.80 694.57 L 211.38 697.33 L 219.02 699.59 L 226.75 701.34 L 234.56 702.61 L 236.88 703.10 L 238.94 703.98 L 240.78 705.22 L 242.34 706.80 L 243.52 708.61 L 244.35 710.70 L 248.76 725.41 L 253.65 739.64 L 259.00 753.41 L 264.81 766.74 L 271.08 779.64 L 277.81 792.13 L 285.00 804.22 L 292.65 815.93 L 300.77 827.27 L 309.36 838.25 L 318.43 848.87 L 328.00 859.15 L 338.07 869.10 L 348.65 878.71 L 359.76 888.00 L 371.42 896.96 L 383.64 905.59 L 396.44 913.91 L 409.84 921.89" fill="none" group-id="1" id="路径" node-id="12" stroke="#fbe4d5" stroke-linecap="butt" stroke-width="1" target-height="412.5985" target-width="289.29514" target-x="120.54773" target-y="509.29504"></path><path d="M 409.84 921.89 L 410.30 932.90 L 410.12 943.71 L 409.33 954.34 L 407.92 964.82 L 405.89 975.15 L 403.25 985.36 L 399.99 995.47 L 396.09 1005.48 L 395.11 1007.53 L 393.83 1009.50 L 392.23 1011.38 L 389.42 1013.87 L 386.00 1016.03 L 313.72 1054.99" fill="none" group-id="1" id="路径" node-id="13" stroke="#f5f5ef" stroke-linecap="butt" stroke-width="1" target-height="133.1012" target-width="96.575195" target-x="313.72272" target-y="921.89355"></path><path d="M 313.72 1054.99 L 290.80 1066.46" fill="none" group-id="1" id="路径" node-id="14" stroke="#98bcd7" stroke-linecap="butt" stroke-width="1" target-height="11.46106" target-width="22.92215" target-x="290.80057" target-y="1054.9948"></path><path d="M 290.80 1066.46 L 279.34 1070.28" fill="none" group-id="1" id="路径" node-id="15" stroke="#94afc3" stroke-linecap="butt" stroke-width="1" target-height="3.8203125" target-width="11.46106" target-x="279.3395" target-y="1066.4558"></path><path d="M 279.34 1070.28 L 76.86 1166.40 L 68.27 1170.86 L 60.31 1175.64 L 52.95 1180.72 L 46.15 1186.11 L 39.88 1191.81 L 34.12 1197.81 L 28.84 1204.14 L 24.05 1210.81 L 19.71 1217.83 L 15.83 1225.21 L 12.40 1233.00 L 9.43 1241.20 L 6.92 1249.85 L 4.89 1258.98 L 3.35 1268.61 L 2.32 1278.80 L 1.83 1289.56 L 0.84 1358.35 L 0.50 1420.24 L 0.75 1475.71 L 1.51 1525.22 L 2.75 1569.21 L 3.10 1571.39 L 3.92 1573.29 L 5.15 1574.90 L 6.71 1576.13 L 8.52 1576.91 L 10.54 1577.16 L 426.35 1576.09" fill="none" group-id="1" id="路径" node-id="16" stroke="#98bcd7" stroke-linecap="butt" stroke-width="1" target-height="506.886" target-width="425.84564" target-x="0.5011524" target-y="1070.2761"></path><path d="M 426.35 1576.09 L 434.48 1577.79 L 442.07 1578.92 L 449.15 1579.51 L 455.75 1579.62 L 461.92 1579.27 L 467.70 1578.50 L 473.11 1577.31" fill="none" group-id="1" id="路径" node-id="17" stroke="#94afc3" stroke-linecap="butt" stroke-width="1" target-height="3.5297852" target-width="46.76117" target-x="426.3468" target-y="1576.0913"></path><path d="M 473.11 1577.31 L 1016.67 1578.84 L 1018.65 1578.57 L 1020.40 1577.82 L 1021.91 1576.66 L 1023.08 1575.14 L 1023.85 1573.37 L 1024.16 1571.35 L 1024.50 1472.23 L 1024.29 1373.26 L 1023.54 1274.44 L 1023.16 1266.04 L 1022.20 1257.97 L 1020.67 1250.18 L 1018.58 1242.66 L 1015.93 1235.38 L 1012.72 1228.31 L 1008.93 1221.44 L 1004.54 1214.75 L 999.53 1208.22 L 993.86 1201.86 L 987.50 1195.64 L 980.40 1189.56 L 972.51 1183.64 L 963.79 1177.86" fill="none" group-id="1" id="路径" node-id="18" stroke="#98bcd7" stroke-linecap="butt" stroke-width="1" target-height="400.98462" target-width="551.38776" target-x="473.10797" target-y="1177.8574"></path><path d="M 963.79 1177.86 L 932.62 1159.37" fill="none" group-id="1" id="路径" node-id="19" stroke="#94afc3" stroke-linecap="butt" stroke-width="1" target-height="18.4906" target-width="31.174133" target-x="932.6204" target-y="1159.3668"></path><path d="M 932.62 1159.37 L 753.06 1075.32" fill="none" group-id="1" id="路径" node-id="20" stroke="#98bcd7" stroke-linecap="butt" stroke-width="1" target-height="84.04773" target-width="179.55676" target-x="753.06366" target-y="1075.3191"></path><path d="M 753.06 1075.32 L 718.68 1060.04" fill="none" group-id="1" id="路径" node-id="21" stroke="#94afc3" stroke-linecap="butt" stroke-width="1" target-height="15.281494" target-width="34.38318" target-x="718.6805" target-y="1060.0376"></path><path d="M 718.68 1060.04 L 663.06 1033.91" fill="none" group-id="1" id="路径" node-id="22" stroke="#98bcd7" stroke-linecap="butt" stroke-width="1" target-height="26.131226" target-width="55.62439" target-x="663.0561" target-y="1033.9064"></path><path d="M 663.06 1033.91 L 655.86 1029.31 L 648.87 1024.25 L 642.09 1018.70 L 635.51 1012.65 L 629.12 1006.09 L 622.93 998.97 L 616.92 991.30 L 611.10 983.02" fill="none" group-id="1" id="路径" node-id="23" stroke="#f5f5ef" stroke-linecap="butt" stroke-width="1" target-height="50.887146" target-width="51.95685" target-x="611.09924" target-y="983.0192"></path><path d="M 611.10 983.02 L 614.16 925.56 L 614.46 923.44 L 615.17 921.36 L 616.32 919.29 L 617.78 917.42 L 619.60 915.69 L 621.80 914.10 L 635.89 904.96 L 649.08 895.98 L 661.42 887.15 L 673.50 877.95 L 684.79 868.71 L 695.33 859.43 L 703.00 852.17 L 710.29 844.77 L 717.21 837.22 L 723.78 829.52 L 730.05 821.56 L 736.02 813.33 L 741.67 804.81 L 747.02 795.99 L 751.98 787.01 L 756.69 777.60 L 761.13 767.75 L 765.31 757.42 L 769.05 747.08 L 772.57 736.15 L 775.85 724.59 L 778.89 712.39 L 779.58 710.08 L 780.55 707.92 L 781.79 705.89 L 783.29 704.03 L 785.02 702.38 L 786.99 700.92 L 798.91 693.28" fill="none" group-id="1" id="路径" node-id="24" stroke="#fbe4d5" stroke-linecap="butt" stroke-width="1" target-height="289.73584" target-width="187.80872" target-x="611.09924" target-y="693.2834"></path><path d="M 798.91 693.28 L 853.00 669.75" fill="none" group-id="1" id="路径" node-id="25" stroke="#f9d5be" stroke-linecap="butt" stroke-width="1" target-height="23.533386" target-width="54.096252" target-x="798.90796" target-y="669.75"></path><path d="M 853.00 669.75 L 859.27 666.57 L 864.99 663.25 L 870.18 659.78 L 874.90 656.17 L 879.16 652.43 L 884.23 647.23 L 888.60 641.93 L 892.30 636.51 L 895.38 630.95 L 897.97 625.08 L 899.96 619.18 L 901.36 613.24 L 902.20 607.24 L 902.49 601.16 L 902.24 595.15 L 901.46 589.17 L 900.13 583.20 L 898.29 577.38 L 895.95 571.71 L 893.08 566.17 L 889.68 560.74 L 885.87 555.65 L 881.57 550.80 L 876.75 546.17 L 871.38 541.78 L 865.75 537.87 L 859.62 534.30 L 852.96 531.08 L 845.74 528.22 L 838.44 525.94 L 830.62 524.12 L 822.25 522.79 L 813.27 521.98" fill="none" group-id="1" id="路径" node-id="26" stroke="#fbe4d5" stroke-linecap="butt" stroke-width="1" target-height="147.77136" target-width="89.22015" target-x="813.2725" target-y="521.97864"></path><path d="M 813.27 521.98 L 821.89 510.40 L 829.82 498.75 L 837.08 487.01 L 843.71 475.19 L 849.71 463.27 L 855.09 451.24 L 859.88 439.09 L 864.07 426.82 L 867.67 414.40" fill="none" group-id="1" id="路径" node-id="27" stroke="#a8a6a1" stroke-linecap="butt" stroke-width="1" target-height="107.58124" target-width="54.401855" target-x="813.2725" target-y="414.3974"></path><path d="M 867.67 414.40 L 873.55 410.87 L 878.75 407.15 L 883.33 403.23 L 887.34 399.12 L 890.81 394.82 L 893.79 390.29 L 896.28 385.54 L 898.29 380.54 L 899.85 375.25 L 900.93 369.66 L 901.52 363.72 L 901.60 357.40 L 901.39 355.10 L 900.87 352.83 L 900.02 350.57 L 898.90 348.43 L 897.50 346.38 L 895.79 344.41 L 856.82 304.07" fill="none" group-id="1" id="路径" node-id="28" stroke="#f7c09d" stroke-linecap="butt" stroke-width="1" target-height="110.33188" target-width="44.774536" target-x="856.8246" target-y="304.06552"></path><path d="M 856.82 304.07 L 852.81 287.75 L 848.33 271.99 L 843.42 256.76 L 838.06 242.06 L 832.27 227.86 L 826.06 214.15 L 819.42 200.90 L 812.37 188.10 L 804.89 175.74 L 796.98 163.80 L 788.65 152.26 L 779.89 141.13 L 770.69 130.38 L 761.05 120.02 L 750.95 110.02 L 740.40 100.39 L 729.36 91.11 L 717.84 82.20 L 705.82 73.63 L 693.27 65.42 L 680.19 57.56 L 666.56 50.05 L 652.36 42.91" fill="none" group-id="1" id="路径" node-id="29" stroke="#f1b28b" stroke-linecap="butt" stroke-width="1" target-height="261.15958" target-width="204.46552" target-x="652.3591" target-y="42.905956"></path><path d="M 652.36 42.91 L 626.99 34.96" fill="none" group-id="1" id="路径" node-id="30" stroke="#d9a788" stroke-linecap="butt" stroke-width="1" target-height="7.9463425" target-width="25.367126" target-x="626.99194" target-y="34.959614"></path><path d="M 626.99 34.96 L 615.63 28.45 L 604.41 22.69 L 593.32 17.65 L 582.33 13.30 L 571.44 9.61 L 560.63 6.57 L 549.89 4.16 L 539.20 2.37 L 528.54 1.17 L 517.91 0.58 L 507.28 0.57 L 496.64 1.16 L 485.97 2.35 L 475.26 4.14 L 464.49 6.55 L 453.64 9.59 L 442.70 13.27 L 431.66 17.63 L 420.50 22.67 L 409.21 28.44 L 397.77 34.96" fill="none" group-id="1" id="路径" node-id="31" stroke="#f1b28b" stroke-linecap="butt" stroke-width="1" target-height="34.387264" target-width="229.2214" target-x="397.77054" target-y="0.57234955"></path><path d="M 626.99 34.96 L 622.25 34.45 L 618.18 34.50 L 614.69 35.03 L 611.68 35.98 L 609.09 37.34 L 606.85 39.08 L 604.93 41.26 L 603.30 43.91 L 601.98 47.11 L 601.00 50.97 L 600.40 55.59 L 599.03 79.84 L 598.26 104.02 L 598.08 128.15 L 598.49 152.22 L 599.49 176.26 L 601.08 200.26 L 603.27 224.24 L 606.05 248.19 L 609.42 272.13" fill="none" group-id="1" id="路径" node-id="32" stroke="#ca5913" stroke-linecap="butt" stroke-width="1" target-height="237.67767" target-width="28.91565" target-x="598.0763" target-y="34.449646"></path><path d="M 609.42 272.13 L 579.10 270.66 L 548.79 269.81 L 518.48 269.60 L 488.17 270.01 L 457.85 271.05 L 427.52 272.72 L 397.16 275.01 L 366.78 277.94 L 336.36 281.50 L 305.90 285.71 L 275.39 290.55 L 244.83 296.03 L 214.21 302.17 L 183.52 308.96 L 181.99 309.16 L 180.47 309.06 L 179.01 308.68 L 177.66 308.01 L 176.48 307.09 L 175.56 305.98 L 174.89 304.70 L 174.51 303.30 L 173.77 298.07 L 173.51 292.77 L 173.71 287.38 L 174.39 281.88 L 175.58 276.25" fill="none" group-id="1" id="路径" node-id="33" stroke="#e87228" stroke-linecap="butt" stroke-width="1" target-height="39.561157" target-width="435.91125" target-x="173.507" target-y="269.59784"></path><path d="M 188.26 234.23 L 256.42 127.87" fill="none" group-id="1" id="路径" node-id="34" stroke="#ea874a" stroke-linecap="butt" stroke-width="1" target-height="106.35872" target-width="68.15515" target-x="188.2622" target-y="127.87068"></path><path d="M 360.18 50.09 L 360.79 254.86 L 361.05 257.25 L 361.74 259.38 L 362.86 261.32 L 364.37 262.97 L 366.16 264.22 L 368.28 265.10 L 374.67 266.58 L 380.95 267.48 L 387.17 267.81 L 393.33 267.59 L 399.46 266.80 L 405.60 265.45 L 411.75 263.51 L 417.94 260.97 L 419.88 259.82 L 421.50 258.35 L 422.85 256.53 L 423.84 254.48 L 424.45 252.26 L 424.67 249.82 L 424.59 153.50 L 424.05 57.88 L 423.79 53.74 L 423.13 50.11 L 422.11 46.91 L 420.77 44.09 L 419.00 41.48 L 416.92 39.31 L 414.52 37.52 L 411.75 36.11 L 408.83 35.17 L 405.57 34.64 L 401.90 34.55 L 397.77 34.96" fill="none" group-id="1" id="路径" node-id="35" stroke="#ca5913" stroke-linecap="butt" stroke-width="1" target-height="233.26099" target-width="64.48761" target-x="360.17825" target-y="34.551857"></path><path d="M 652.36 42.91 L 655.02 64.09 L 657.13 85.21 L 658.70 106.26 L 659.73 127.27 L 660.22 148.22 L 660.18 169.14 L 659.59 190.02 L 658.48 210.88 L 656.82 231.71 L 654.63 252.53 L 651.90 273.35" fill="none" group-id="1" id="路径" node-id="36" stroke="#ca5913" stroke-linecap="butt" stroke-width="1" target-height="230.4439" target-width="8.322144" target-x="651.90063" target-y="42.905956"></path><path d="M 651.90 273.35 L 609.42 272.13" fill="none" group-id="1" id="路径" node-id="37" stroke="#d06725" stroke-linecap="butt" stroke-width="1" target-height="1.2225342" target-width="42.48236" target-x="609.4183" target-y="272.12732"></path><path d="M 867.67 414.40 L 719.29 387.81" fill="none" group-id="1" id="路径" node-id="38" stroke="#9f663f" stroke-linecap="butt" stroke-width="1" target-height="26.589691" target-width="148.38263" target-x="719.29175" target-y="387.8077"></path><path d="M 719.29 387.81 L 694.32 383.05 L 669.42 378.90 L 644.58 375.34 L 619.80 372.38 L 595.07 370.00 L 570.37 368.21 L 545.72 367.01 L 521.09 366.39 L 496.48 366.35 L 471.90 366.89 L 447.32 368.02 L 422.74 369.72 L 398.16 372.01 L 373.57 374.88 L 348.96 378.34 L 324.33 382.40 L 299.66 387.04" fill="none" group-id="1" id="路径" node-id="39" stroke="#f2a572" stroke-linecap="butt" stroke-width="1" target-height="21.455994" target-width="419.62796" target-x="299.6638" target-y="366.3517"></path><path d="M 299.66 387.04 L 160.91 414.40" fill="none" group-id="1" id="路径" node-id="40" stroke="#9f663f" stroke-linecap="butt" stroke-width="1" target-height="27.35376" target-width="138.75533" target-x="160.90846" target-y="387.04364"></path><path d="M 856.82 304.07 L 651.90 273.35" fill="none" group-id="1" id="路径" node-id="41" stroke="#e87228" stroke-linecap="butt" stroke-width="1" target-height="30.715668" target-width="204.92395" target-x="651.90063" target-y="273.34985"></path><path d="M 719.29 387.81 L 722.43 399.58 L 726.01 410.87 L 730.04 421.70 L 734.50 432.09 L 739.40 442.06 L 744.73 451.64 L 750.50 460.83 L 756.70 469.65 L 763.35 478.12 L 770.46 486.24 L 778.02 494.03 L 786.07 501.50 L 794.62 508.64 L 803.68 515.47 L 813.27 521.98" fill="none" group-id="1" id="路径" node-id="42" stroke="#a38b77" stroke-linecap="butt" stroke-width="1" target-height="134.17093" target-width="93.980774" target-x="719.29175" target-y="387.8077"></path><path d="M 853.00 669.75 L 850.71 663.53 L 849.08 657.46 L 848.05 651.51 L 847.62 645.67 L 847.77 639.89 L 848.49 634.15 L 849.79 628.42 L 851.70 622.68 L 854.23 616.90 L 857.44 611.07 L 858.72 608.54 L 859.57 606.15 L 860.01 603.87 L 860.07 601.58 L 859.71 599.62 L 858.96 597.93 L 857.64 596.44 L 856.11 595.50 L 854.30 595.06 L 852.12 595.15 L 849.22 595.90 L 845.80 597.42 L 841.75 599.89 L 837.95 602.70 L 833.84 606.16 L 829.40 610.36 L 823.05 617.08 L 816.59 624.76 L 810.48 632.89 L 804.83 641.32 L 801.35 647.12 L 798.30 652.76 L 795.66 658.24 L 793.36 663.87 L 791.70 669.02 L 790.60 673.73 L 790.13 677.39 L 790.10 680.61 L 790.46 683.47 L 791.18 686.01 L 792.35 688.35 L 793.98 690.32 L 796.14 691.96 L 798.91 693.28" fill="none" group-id="1" id="路径" node-id="43" stroke="#f4ba94" stroke-linecap="butt" stroke-width="1" target-height="98.22064" target-width="69.96527" target-x="790.1034" target-y="595.06274"></path><path d="M 611.10 983.02 L 608.50 983.02" fill="none" group-id="1" id="路径" node-id="44" stroke="#f1dac5" stroke-linecap="butt" stroke-width="1" target-height="0" target-width="2.5978394" target-x="608.5014" target-y="983.0192"></path><path d="M 608.50 983.02 L 610.11 972.92 L 611.02 964.82 L 611.38 958.42 L 611.32 953.43 L 610.97 949.41 L 610.40 946.22 L 609.66 943.72 L 608.52 941.21 L 607.22 939.31 L 605.78 937.91 L 604.18 936.93 L 601.74 936.11 L 598.97 935.82 L 595.76 936.09 L 592.57 936.76 L 589.07 937.80 L 585.23 939.22 L 573.41 944.36 L 567.26 947.07 L 561.13 949.53 L 556.98 950.96 L 553.02 952.03 L 549.21 952.76 L 537.78 954.14 L 526.54 954.90 L 515.47 955.07 L 504.54 954.65 L 493.75 953.65 L 483.08 952.07 L 472.51 949.91 L 462.02 947.17 L 451.62 943.83 L 441.26 939.89 L 430.96 935.34 L 420.69 930.15" fill="none" group-id="1" id="路径" node-id="45" stroke="#f4ba94" stroke-linecap="butt" stroke-width="1" target-height="52.87372" target-width="190.68268" target-x="420.6927" target-y="930.1455"></path><path d="M 420.69 930.15 L 409.84 921.89" fill="none" group-id="1" id="路径" node-id="46" stroke="#f1dac5" stroke-linecap="butt" stroke-width="1" target-height="8.251953" target-width="10.849823" target-x="409.84286" target-y="921.89355"></path><path d="M 207.36 509.30 L 210.55 511.57 L 213.43 513.08 L 216.06 513.95 L 218.48 514.28 L 220.76 514.12 L 222.95 513.49 L 225.09 512.35 L 233.62 506.58 L 241.58 500.48 L 248.98 494.06 L 255.85 487.31 L 262.22 480.22 L 268.10 472.78 L 273.50 464.98 L 278.42 456.80 L 282.88 448.23 L 286.88 439.23 L 290.41 429.79 L 293.46 419.88 L 296.04 409.47 L 298.11 398.54 L 299.66 387.04" fill="none" group-id="1" id="路径" node-id="47" stroke="#a38b77" stroke-linecap="butt" stroke-width="1" target-height="127.23627" target-width="92.299805" target-x="207.36398" target-y="387.04364"></path><path d="M 420.69 930.15 L 420.85 978.74 L 421.01 981.51 L 421.47 984.05 L 422.20 986.41 L 423.25 988.63 L 424.53 990.55 L 426.04 992.19 L 505.50 1068.29 L 507.02 1069.46 L 508.64 1070.33 L 510.36 1070.89 L 512.16 1071.17 L 513.95 1071.15 L 515.75 1070.84 L 517.48 1070.24 L 519.10 1069.34 L 520.63 1068.14 L 608.50 983.02" fill="none" group-id="1" id="路径" node-id="48" stroke="#efcbae" stroke-linecap="butt" stroke-width="1" target-height="141.02393" target-width="187.80872" target-x="420.6927" target-y="930.1455"></path><path d="M 663.06 1033.91 L 565.87 1262.52" fill="none" group-id="1" id="路径" node-id="49" stroke="#8eb2c7" stroke-linecap="butt" stroke-width="1" target-height="228.6101" target-width="97.18988" target-x="565.8662" target-y="1033.9064"></path><path d="M 565.87 1262.52 L 561.98 1250.82 L 558.75 1239.20 L 556.18 1227.64 L 554.23 1216.14 L 552.91 1204.67 L 552.20 1193.21 L 552.11 1181.76 L 552.63 1170.30 L 553.77 1158.81 L 555.53 1147.28 L 557.92 1135.68 L 558.35 1133.20 L 558.47 1130.76 L 558.28 1128.36 L 557.79 1126.00 L 557.01 1123.76 L 555.93 1121.62 L 550.80 1113.57 L 545.88 1106.90 L 541.15 1101.46 L 536.60 1097.09 L 532.22 1093.66 L 527.97 1091.07 L 523.84 1089.22 L 519.77 1088.04 L 515.74 1087.49 L 511.69 1087.54 L 507.59 1088.20 L 503.38 1089.50 L 499.02 1091.51 L 494.48 1094.30 L 489.73 1097.98 L 484.72 1102.67 L 479.44 1108.52 L 473.87 1115.66 L 472.62 1117.62 L 471.60 1119.74 L 470.82 1122.02 L 470.14 1125.60 L 470.05 1129.42 L 470.82 1150.42 L 470.96 1171.44 L 470.47 1192.49 L 469.34 1213.58 L 467.57 1234.72 L 465.16 1255.92 L 462.11 1277.19" fill="none" group-id="1" id="路径" node-id="50" stroke="#9e9c91" stroke-linecap="butt" stroke-width="1" target-height="189.6991" target-width="103.760864" target-x="462.10535" target-y="1087.4875"></path><path d="M 462.11 1277.19 L 365.53 1048.12 L 364.60 1046.59 L 363.31 1045.38 L 361.61 1044.47 L 359.74 1043.95 L 357.70 1043.83 L 355.44 1044.14 L 313.72 1054.99" fill="none" group-id="1" id="路径" node-id="51" stroke="#8eb2c7" stroke-linecap="butt" stroke-width="1" target-height="233.35242" target-width="148.38263" target-x="313.72272" target-y="1043.8342"></path><path d="M 718.68 1060.04 L 718.53 1204.60 L 718.32 1207.13 L 717.72 1209.51 L 716.73 1211.78 L 715.39 1213.85 L 713.74 1215.66 L 711.75 1217.22 L 709.53 1218.42 L 707.22 1219.21 L 704.81 1219.61 L 702.36 1219.60 L 699.97 1219.19 L 697.59 1218.35 L 688.53 1214.55 L 680.78 1211.85 L 674.19 1210.08 L 668.60 1209.09 L 663.88 1208.76 L 659.91 1208.98 L 656.56 1209.66 L 653.74 1210.75 L 651.35 1212.23 L 649.35 1214.09 L 647.68 1216.38 L 646.34 1219.16 L 645.35 1222.53 L 644.76 1226.60 L 644.65 1231.49 L 645.11 1237.35 L 646.26 1244.32 L 648.23 1252.58 L 653.48 1272.58 L 658.41 1292.64 L 667.65 1332.74 L 676.50 1372.39 L 676.91 1375.09 L 676.95 1377.76 L 676.64 1380.42 L 675.99 1383.02 L 675.03 1385.52 L 673.73 1387.93 L 672.15 1390.16 L 670.28 1392.21 L 668.10 1394.09 L 426.35 1576.09" fill="none" group-id="1" id="路径" node-id="52" stroke="#2c6c9a" stroke-linecap="butt" stroke-width="1" target-height="516.0537" target-width="292.33368" target-x="426.3468" target-y="1060.0376"></path><path d="M 76.86 1166.40 L 73.34 1170.21 L 70.44 1173.92 L 68.10 1177.55 L 66.22 1181.40 L 64.87 1185.43 L 64.07 1189.68 L 63.83 1194.01 L 64.15 1198.85 L 65.09 1204.29 L 76.75 1256.21 L 87.90 1308.37 L 98.56 1360.78 L 99.26 1363.49 L 100.19 1365.89 L 101.37 1368.03 L 102.82 1369.96 L 104.43 1371.51 L 106.20 1372.70 L 109.49 1374.14 L 112.73 1374.96 L 115.94 1375.19 L 119.18 1374.85 L 122.51 1373.90 L 125.96 1372.30 L 129.58 1369.94 L 131.14 1368.46 L 132.34 1366.71 L 133.21 1364.65 L 133.68 1362.47 L 133.75 1360.17 L 133.40 1357.72 L 130.53 1343.84 L 126.34 1322.55 L 121.02 1296.23 L 114.78 1267.27 L 111.37 1252.50 L 107.82 1238.06 L 104.08 1223.91 L 100.35 1210.97 L 96.37 1198.65 L 92.56 1188.41 L 89.74 1181.88 L 87.11 1176.73 L 84.67 1172.76 L 82.44 1169.89 L 80.42 1168.02 L 78.58 1166.91 L 76.86 1166.40" fill="none" group-id="1" id="路径" node-id="53" stroke="#2c6c9a" stroke-linecap="butt" stroke-width="1" target-height="208.7915" target-width="69.91999" target-x="63.828316" target-y="1166.3964"></path><path d="M 279.34 1070.28 L 277.96 1242.65 L 278.22 1245.11 L 279.02 1247.43 L 280.31 1249.55 L 282.10 1251.42 L 284.26 1252.90 L 286.69 1253.94 L 289.29 1254.50 L 292.02 1254.57 L 332.67 1251.51 L 334.15 1251.56 L 335.55 1251.91 L 336.83 1252.55 L 337.94 1253.47 L 338.79 1254.60 L 339.32 1255.85 L 339.53 1257.18 L 339.40 1258.54 L 314.33 1376.21 L 313.60 1380.93 L 313.42 1385.49 L 313.78 1389.92 L 314.68 1394.28 L 316.06 1398.35 L 317.92 1402.16 L 320.26 1405.68 L 323.03 1408.79 L 326.25 1411.51 L 457.06 1505.95 L 459.24 1507.24 L 461.42 1508.05 L 463.63 1508.40 L 465.86 1508.30 L 467.88 1507.74 L 469.75 1506.71 L 471.96 1504.76 L 473.51 1502.70 L 474.47 1500.49 L 474.90 1498.09 L 474.85 1495.64 L 474.37 1492.96 L 473.40 1490.02 L 471.86 1486.76 L 469.45 1482.72 L 466.30 1478.30 L 462.30 1473.47 L 455.76 1466.49 L 447.89 1458.99 L 439.48 1451.61 L 430.30 1444.06 L 420.84 1436.67 L 411.20 1429.44 L 392.26 1415.89 L 375.16 1404.16 L 361.57 1395.01 L 353.15 1389.20 L 351.43 1387.62 L 350.09 1385.85 L 349.11 1383.86 L 348.51 1381.72 L 348.33 1379.54 L 348.56 1377.28 L 351.59 1365.06 L 356.25 1346.77 L 361.74 1324.33 L 364.53 1312.22 L 367.25 1299.64 L 369.78 1286.99 L 371.98 1274.60 L 373.83 1262.37 L 375.12 1251.13 L 375.69 1243.70 L 375.93 1237.06 L 375.86 1231.14 L 375.39 1225.21 L 374.54 1220.39 L 373.39 1216.52 L 372.09 1213.76 L 370.58 1211.69 L 368.86 1210.19 L 366.90 1209.18 L 365.10 1208.86 L 361.58 1208.95 L 357.61 1209.44 L 352.54 1210.41 L 313.88 1218.96 L 312.56 1219.08 L 311.25 1218.84 L 310.02 1218.29 L 308.86 1217.39 L 307.89 1216.25 L 307.13 1214.89 L 306.63 1213.39 L 306.39 1211.78 L 299.66 1071.35 L 299.21 1069.88 L 298.19 1068.59 L 296.76 1067.65 L 294.93 1067.07 L 290.80 1066.46" fill="none" group-id="1" id="路径" node-id="54" stroke="#2c6c9a" stroke-linecap="butt" stroke-width="1" target-height="441.94373" target-width="196.9389" target-x="277.96356" target-y="1066.4558"></path><path d="M 462.11 1277.19 L 468.93 1289.75 L 475.21 1302.47 L 480.95 1315.36 L 486.16 1328.42 L 490.86 1341.66 L 495.03 1355.10 L 498.68 1368.74 L 501.82 1382.60 L 504.43 1396.69 L 505.48 1401.64 L 506.49 1404.32 L 507.41 1405.54 L 508.25 1405.93 L 509.16 1405.72 L 510.31 1404.69 L 511.85 1402.27 L 513.91 1397.60 L 565.87 1262.52" fill="none" group-id="1" id="路径" node-id="55" stroke="#406379" stroke-linecap="butt" stroke-width="1" target-height="143.41565" target-width="103.760864" target-x="462.10535" target-y="1262.5165"></path><path d="M 753.06 1075.32 L 748.94 1244.48 L 748.56 1246.78 L 747.68 1248.79 L 746.35 1250.50 L 744.67 1251.80 L 742.72 1252.62 L 740.53 1252.89 L 691.63 1251.82 L 690.26 1251.92 L 688.98 1252.30 L 687.81 1252.94 L 686.81 1253.82 L 686.04 1254.88 L 685.57 1256.05 L 685.39 1257.28 L 685.52 1258.54 L 714.55 1384.46 L 714.96 1386.97 L 715.06 1389.41 L 714.86 1391.80 L 714.37 1394.15 L 713.61 1396.37 L 712.59 1398.47 L 711.30 1400.41 L 709.77 1402.16 L 707.98 1403.72 L 473.11 1577.31" fill="none" group-id="1" id="路径" node-id="56" stroke="#2c6c9a" stroke-linecap="butt" stroke-width="1" target-height="501.99475" target-width="279.9557" target-x="473.10797" target-y="1075.3191"></path><path d="M 932.62 1159.37 L 892.74 1353.75 L 892.33 1356.39 L 892.27 1358.87 L 892.55 1361.24 L 893.17 1363.53 L 894.10 1365.55 L 895.33 1367.35 L 899.20 1371.49 L 902.55 1374.32 L 905.46 1376.09 L 908.02 1377.04 L 910.31 1377.31 L 912.43 1377.00 L 914.46 1376.10 L 916.45 1374.53 L 918.45 1372.14 L 920.45 1368.70 L 922.44 1363.94 L 924.37 1357.57 L 933.30 1321.66 L 941.70 1285.74 L 949.58 1249.80 L 956.95 1213.84 L 963.79 1177.86" fill="none" group-id="1" id="路径" node-id="57" stroke="#2c6c9a" stroke-linecap="butt" stroke-width="1" target-height="217.94458" target-width="71.52185" target-x="892.2727" target-y="1159.3668"></path><path d="M 410.61 484.23 L 414.24 486.14 L 417.95 487.56 L 421.77 488.50 L 425.73 488.97 L 429.86 488.97 L 432.29 488.66 L 434.56 487.94 L 436.69 486.83 L 438.61 485.37 L 440.25 483.60 L 441.63 481.48 L 443.16 477.96 L 443.92 474.81 L 444.04 471.97 L 443.58 469.35 L 442.58 466.84 L 441.08 464.45 L 439.03 462.17 L 436.35 459.98 L 432.46 457.56 L 427.73 455.33 L 422.06 453.29 L 416.26 451.68 L 409.86 450.31 L 402.83 449.19 L 395.76 448.40 L 388.42 447.87 L 380.78 447.61 L 369.35 447.73 L 358.04 448.45 L 350.54 449.27 L 343.44 450.33 L 336.73 451.63 L 330.08 453.26 L 324.18 455.08 L 318.97 457.07 L 315.10 458.88 L 311.84 460.76 L 309.12 462.69 L 306.88 464.68 L 304.92 466.99 L 303.59 469.35 L 302.83 471.80 L 302.59 474.37 L 302.91 476.88 L 303.87 479.62 L 305.58 482.66 L 308.22 486.07 L 309.83 487.50 L 311.69 488.54 L 313.84 489.21 L 316.10 489.45 L 318.44 489.28 L 320.90 488.67 L 330.33 485.61 L 339.75 483.10 L 349.18 481.11 L 358.62 479.64 L 368.10 478.68 L 377.62 478.24 L 387.20 478.30 L 396.85 478.88 L 399.45 479.31 L 402.54 480.26 L 406.23 481.85 L 410.61 484.23" fill="none" group-id="1" id="路径" node-id="58" stroke="#99806d" stroke-linecap="butt" stroke-width="1" target-height="41.84659" target-width="141.45062" target-x="302.5937" target-y="447.60767"></path><path d="M 595.36 485.30 L 607.06 482.75 L 618.69 480.86 L 630.27 479.61 L 641.81 478.99 L 653.34 479.01 L 664.86 479.66 L 676.40 480.95 L 687.96 482.88 L 699.58 485.46 L 704.06 486.31 L 707.82 486.66 L 710.98 486.59 L 713.63 486.18 L 716.31 485.34 L 718.43 484.26 L 720.09 482.98 L 721.36 481.48 L 722.32 479.72 L 722.89 477.87 L 723.10 475.88 L 722.90 473.72 L 722.10 470.95 L 720.62 468.14 L 718.36 465.24 L 716.39 463.36 L 714.01 461.59 L 711.18 459.93 L 707.83 458.41 L 698.19 455.00 L 688.67 452.25 L 679.25 450.14 L 669.91 448.64 L 660.64 447.75 L 651.41 447.45 L 642.22 447.74 L 633.03 448.62 L 623.84 450.10 L 614.62 452.18 L 605.36 454.88 L 596.04 458.22 L 586.65 462.23 L 584.23 463.59 L 582.21 465.13 L 580.56 466.86 L 579.22 468.83 L 578.36 470.84 L 577.94 472.93 L 577.93 476.01 L 578.49 478.72 L 579.61 481.14 L 581.30 483.32 L 582.81 484.48 L 584.73 485.34 L 587.13 485.90 L 589.60 486.06 L 592.33 485.88 L 595.36 485.30" fill="none" group-id="1" id="路径" node-id="59" stroke="#957e6b" stroke-linecap="butt" stroke-width="1" target-height="39.212494" target-width="145.16705" target-x="577.9279" target-y="447.44858"></path><path d="M 351.01 590.29 L 351.64 595.68 L 352.69 600.22 L 354.11 604.01 L 355.85 607.17 L 357.91 609.79 L 360.28 611.92 L 363.00 613.61 L 366.12 614.88 L 369.71 615.70 L 373.85 616.04 L 378.64 615.83 L 384.18 614.97 L 390.59 613.36 L 392.46 612.52 L 394.05 611.29 L 395.39 609.62 L 396.37 607.70 L 396.96 605.55 L 397.16 603.12 L 397.30 599.24 L 397.85 595.50 L 398.79 591.89 L 400.14 588.37 L 401.90 584.94 L 403.11 583.28 L 404.67 581.97 L 406.64 580.98 L 408.79 580.40 L 411.11 580.23 L 413.66 580.51 L 419.44 581.44 L 423.71 581.65 L 426.79 581.33 L 429.07 580.68 L 430.75 579.82 L 431.97 578.80 L 432.79 577.61 L 433.45 575.72 L 433.60 573.57 L 433.19 571.07 L 432.35 568.63 L 431.13 566.09 L 429.48 563.44 L 426.56 559.75 L 423.18 556.43 L 420.69 554.47 L 418.23 552.94 L 415.80 551.78 L 407.38 548.76 L 399.05 546.41 L 390.80 544.69 L 382.60 543.60 L 374.44 543.12 L 366.30 543.24 L 358.14 543.97 L 349.96 545.30 L 341.73 547.27 L 333.42 549.87 L 325.03 553.15 L 322.87 554.33 L 321.08 555.79 L 319.62 557.53 L 318.53 559.51 L 317.89 561.61 L 317.70 563.85 L 318.13 568.27 L 319.04 571.97 L 320.38 575.05 L 322.11 577.61 L 324.24 579.73 L 326.82 581.44 L 329.91 582.75 L 333.62 583.64 L 338.06 584.04 L 343.37 583.87 L 344.78 583.88 L 346.14 584.16 L 347.42 584.70 L 348.58 585.49 L 349.56 586.49 L 350.29 587.65 L 350.78 588.92 L 351.01 590.29" fill="none" group-id="1" id="路径" node-id="60" stroke="#957e6b" stroke-linecap="butt" stroke-width="1" target-height="72.92212" target-width="115.90387" target-x="317.6959" target-y="543.1195"></path><path d="M 685.06 579.59 L 692.31 579.72 L 698.01 579.32 L 702.44 578.51 L 705.78 577.48 L 708.33 576.31 L 710.24 575.05 L 711.63 573.69 L 712.72 572.03 L 713.31 570.32 L 713.46 568.53 L 713.14 566.57 L 712.44 564.74 L 711.32 562.82 L 709.69 560.79 L 707.48 558.63 L 704.29 556.19 L 700.23 553.75 L 695.15 551.32 L 686.99 548.22 L 678.96 545.82 L 671.05 544.10 L 663.22 543.02 L 655.45 542.57 L 647.73 542.75 L 640.02 543.55 L 632.29 544.98 L 624.54 547.06 L 616.73 549.81 L 608.84 553.25 L 600.86 557.43 L 598.72 558.89 L 596.98 560.55 L 595.58 562.43 L 594.55 564.52 L 593.97 566.66 L 593.83 568.89 L 594.27 572.58 L 595.16 575.62 L 596.45 578.12 L 598.13 580.17 L 600.22 581.84 L 602.79 583.13 L 605.93 584.04 L 609.77 584.50 L 614.45 584.43 L 620.12 583.72 L 621.49 583.63 L 622.83 583.82 L 624.10 584.29 L 625.26 585.02 L 626.23 585.98 L 626.95 587.10 L 627.42 588.34 L 627.60 589.68 L 628.19 595.25 L 629.20 599.86 L 630.55 603.65 L 632.22 606.74 L 634.17 609.23 L 636.40 611.22 L 638.96 612.73 L 641.88 613.80 L 645.25 614.41 L 649.14 614.50 L 653.67 614.00 L 658.93 612.80 L 665.04 610.76 L 667.09 609.76 L 668.90 608.43 L 670.49 606.77 L 671.79 604.87 L 672.77 602.74 L 673.45 600.37 L 676.05 586.62 L 676.70 584.57 L 677.74 582.86 L 679.19 581.42 L 680.94 580.36 L 682.88 579.75 L 685.06 579.59" fill="none" group-id="1" id="路径" node-id="61" stroke="#957e6b" stroke-linecap="butt" stroke-width="1" target-height="71.927124" target-width="119.6286" target-x="593.83124" target-y="542.5746"></path><path d="M 205.68 675.86 L 213.98 678.97 L 220.18 680.78 L 224.70 681.63 L 228.27 681.82 L 230.84 681.52 L 232.65 680.85 L 233.90 679.90 L 234.81 678.58 L 235.34 676.94 L 235.47 674.87 L 235.08 672.25 L 234.09 668.92 L 232.46 664.95 L 230.04 660.25 L 225.88 653.31 L 220.58 645.47 L 214.81 637.60 L 208.50 629.49 L 202.00 621.49 L 195.59 613.87 L 183.66 600.19 L 174.51 590.02 L 169.92 584.94 L 168.81 584.00 L 167.51 583.56 L 166.16 583.61 L 164.88 584.17 L 162.28 586.01 L 160.90 587.24 L 159.76 588.74 L 158.87 590.54 L 158.28 592.47 L 157.99 594.57 L 158.00 596.86 L 158.68 602.90 L 159.70 609.09 L 161.09 615.45 L 162.79 621.72 L 164.86 627.94 L 167.28 634.11 L 170.07 640.12 L 173.21 645.87 L 176.71 651.38 L 180.60 656.60 L 184.85 661.39 L 189.47 665.78 L 193.19 668.77 L 197.12 671.45 L 201.28 673.81 L 205.68 675.86" fill="none" group-id="1" id="路径" node-id="62" stroke="#f4ba94" stroke-linecap="butt" stroke-width="1" target-height="98.26019" target-width="77.48068" target-x="157.98642" target-y="583.56036"></path><path d="M 426.65 778.55 L 435.63 784.79 L 444.47 790.23 L 453.19 794.92 L 461.81 798.89 L 470.33 802.18 L 478.78 804.82 L 487.17 806.82 L 495.53 808.22 L 503.88 809.02 L 512.23 809.22 L 520.60 808.83 L 529.03 807.84 L 537.51 806.24 L 546.09 804.02 L 554.77 801.14 L 563.58 797.59 L 572.53 793.33 L 581.64 788.32 L 590.93 782.53 L 595.96 778.86 L 599.59 775.55 L 602.10 772.57 L 603.69 769.87 L 604.54 767.37 L 604.76 765.01 L 604.40 762.72 L 603.44 760.43 L 601.77 758.07 L 599.25 755.62 L 595.66 753.03 L 593.75 752.10 L 591.68 751.60 L 589.42 751.54 L 587.16 751.90 L 584.93 752.70 L 582.68 753.95 L 574.41 759.23 L 566.31 763.76 L 558.34 767.59 L 550.50 770.75 L 542.77 773.28 L 535.13 775.20 L 527.56 776.53 L 520.03 777.29 L 512.54 777.48 L 505.06 777.12 L 497.56 776.19 L 490.03 774.69 L 482.45 772.60 L 474.80 769.91 L 467.06 766.58 L 459.22 762.58 L 451.26 757.87 L 443.16 752.42 L 441.00 751.19 L 438.82 750.42 L 436.59 750.08 L 434.35 750.16 L 432.28 750.69 L 430.32 751.66 L 426.11 754.63 L 423.04 757.38 L 420.90 759.91 L 419.51 762.28 L 418.76 764.53 L 418.55 766.71 L 418.85 768.88 L 419.71 771.10 L 421.20 773.43 L 423.45 775.90 L 426.65 778.55" fill="none" group-id="1" id="路径" node-id="63" stroke="#eb9d97" stroke-linecap="butt" stroke-width="1" target-height="59.143982" target-width="186.21545" target-x="418.54663" target-y="750.0762"></path><path d="M 626.99 34.96 L 622.25 34.45 L 618.18 34.50 L 614.69 35.03 L 611.68 35.98 L 609.09 37.34 L 606.85 39.08 L 604.93 41.26 L 603.30 43.91 L 601.98 47.11 L 601.00 50.97 L 600.40 55.59 L 599.03 79.84 L 598.26 104.02 L 598.08 128.15 L 598.49 152.22 L 599.49 176.26 L 601.08 200.26 L 603.27 224.24 L 606.05 248.19 L 609.42 272.13 L 579.10 270.66 L 548.79 269.81 L 518.48 269.60 L 488.17 270.01 L 457.85 271.05 L 427.52 272.72 L 397.16 275.01 L 366.78 277.94 L 336.36 281.50 L 305.90 285.71 L 275.39 290.55 L 244.83 296.03 L 214.21 302.17 L 183.52 308.96 L 181.99 309.16 L 180.47 309.06 L 179.01 308.68 L 177.66 308.01 L 176.48 307.09 L 175.56 305.98 L 174.89 304.70 L 174.51 303.30 L 173.77 298.07 L 173.51 292.77 L 173.71 287.38 L 174.39 281.88 L 175.58 276.25 L 188.26 234.23 L 256.42 127.87 L 267.16 116.57 L 278.09 105.97 L 289.21 96.07 L 300.52 86.84 L 312.03 78.25 L 323.74 70.30 L 335.66 62.96 L 347.80 56.23 L 360.18 50.09 L 360.79 254.86 L 361.05 257.25 L 361.74 259.38 L 362.86 261.32 L 364.37 262.97 L 366.16 264.22 L 368.28 265.10 L 374.67 266.58 L 380.95 267.48 L 387.17 267.81 L 393.33 267.59 L 399.46 266.80 L 405.60 265.45 L 411.75 263.51 L 417.94 260.97 L 419.88 259.82 L 421.50 258.35 L 422.85 256.53 L 423.84 254.48 L 424.45 252.26 L 424.67 249.82 L 424.59 153.50 L 424.05 57.88 L 423.79 53.74 L 423.13 50.11 L 422.11 46.91 L 420.77 44.09 L 419.00 41.48 L 416.92 39.31 L 414.52 37.52 L 411.75 36.11 L 408.83 35.17 L 405.57 34.64 L 401.90 34.55 L 397.77 34.96 L 409.21 28.44 L 420.50 22.67 L 431.66 17.63 L 442.70 13.27 L 453.64 9.59 L 464.49 6.55 L 475.26 4.14 L 485.97 2.35 L 496.64 1.16 L 507.28 0.57 L 517.91 0.58 L 528.54 1.17 L 539.20 2.37 L 549.89 4.16 L 560.63 6.57 L 571.44 9.61 L 582.33 13.30 L 593.32 17.65 L 604.41 22.69 L 615.63 28.45 L 626.99 34.96 Z" fill="#e26416" fill-rule="nonzero" group-id="1" id="路径" node-id="64" stroke="none" target-height="308.58664" target-width="453.48492" target-x="173.507" target-y="0.5723481"></path><path d="M 397.77 34.96 L 401.90 34.55 L 405.57 34.64 L 408.83 35.17 L 411.75 36.11 L 414.52 37.52 L 416.92 39.31 L 419.00 41.48 L 420.77 44.09 L 422.11 46.91 L 423.13 50.11 L 423.79 53.74 L 424.05 57.88 L 424.59 153.50 L 424.67 249.82 L 424.45 252.26 L 423.84 254.48 L 422.85 256.53 L 421.50 258.35 L 419.88 259.82 L 417.94 260.97 L 411.75 263.51 L 405.60 265.45 L 399.46 266.80 L 393.33 267.59 L 387.17 267.81 L 380.95 267.48 L 374.67 266.58 L 368.28 265.10 L 366.16 264.22 L 364.37 262.97 L 362.86 261.32 L 361.74 259.38 L 361.05 257.25 L 360.79 254.86 L 360.18 50.09 L 397.77 34.96 Z" fill="#b24e10" fill-rule="nonzero" group-id="1" id="路径" node-id="65" stroke="none" target-height="233.26096" target-width="64.48761" target-x="360.17825" target-y="34.551857"></path><path d="M 626.99 34.96 L 652.36 42.91 L 655.02 64.09 L 657.13 85.21 L 658.70 106.26 L 659.73 127.27 L 660.22 148.22 L 660.18 169.14 L 659.59 190.02 L 658.48 210.88 L 656.82 231.71 L 654.63 252.53 L 651.90 273.35 L 609.42 272.13 L 606.05 248.19 L 603.27 224.24 L 601.08 200.26 L 599.49 176.26 L 598.49 152.22 L 598.08 128.15 L 598.26 104.02 L 599.03 79.84 L 600.40 55.59 L 601.00 50.97 L 601.98 47.11 L 603.30 43.91 L 604.93 41.26 L 606.85 39.08 L 609.09 37.34 L 611.68 35.98 L 614.69 35.03 L 618.18 34.50 L 622.25 34.45 L 626.99 34.96 Z" fill="#b24e10" fill-rule="nonzero" group-id="1" id="路径" node-id="66" stroke="none" target-height="238.9002" target-width="62.146423" target-x="598.07635" target-y="34.449646"></path><path d="M 652.36 42.91 L 666.56 50.05 L 680.19 57.56 L 693.27 65.42 L 705.82 73.63 L 717.84 82.20 L 729.36 91.11 L 740.40 100.39 L 750.95 110.02 L 761.05 120.02 L 770.69 130.38 L 779.89 141.13 L 788.65 152.26 L 796.98 163.80 L 804.89 175.74 L 812.37 188.10 L 819.43 200.90 L 826.06 214.15 L 832.27 227.86 L 838.06 242.06 L 843.42 256.76 L 848.33 271.99 L 852.81 287.75 L 856.82 304.07 L 651.90 273.35 L 654.63 252.53 L 656.82 231.71 L 658.48 210.88 L 659.59 190.02 L 660.18 169.14 L 660.22 148.22 L 659.73 127.27 L 658.70 106.26 L 657.13 85.21 L 655.02 64.09 L 652.36 42.91 Z" fill="#e26416" fill-rule="nonzero" group-id="1" id="路径" node-id="67" stroke="none" target-height="261.15958" target-width="204.92395" target-x="651.90063" target-y="42.905956"></path><path d="M 256.42 127.87 L 188.26 234.23 L 190.51 223.96 L 193.25 214.12 L 196.49 204.66 L 200.21 195.58 L 204.40 186.85 L 209.09 178.45 L 214.27 170.36 L 219.94 162.58 L 226.13 155.09 L 232.86 147.88 L 240.13 140.94 L 247.97 134.27 L 256.42 127.87 Z" fill="#f2aa7d" fill-rule="nonzero" group-id="1" id="路径" node-id="68" stroke="none" target-height="106.35872" target-width="68.15515" target-x="188.2622" target-y="127.87068"></path><path d="M 609.42 272.13 L 651.90 273.35 L 856.82 304.07 L 895.79 344.41 L 897.50 346.38 L 898.90 348.43 L 900.02 350.57 L 900.87 352.83 L 901.39 355.10 L 901.60 357.40 L 901.52 363.72 L 900.93 369.66 L 899.85 375.25 L 898.29 380.54 L 896.28 385.54 L 893.79 390.29 L 890.81 394.82 L 887.34 399.12 L 883.33 403.23 L 878.75 407.15 L 873.55 410.87 L 867.67 414.40 L 719.29 387.81 L 694.32 383.05 L 669.42 378.90 L 644.58 375.34 L 619.80 372.38 L 595.07 370.00 L 570.37 368.21 L 545.72 367.01 L 521.09 366.39 L 496.48 366.35 L 471.90 366.89 L 447.32 368.02 L 422.74 369.72 L 398.16 372.01 L 373.57 374.88 L 348.96 378.34 L 324.33 382.40 L 299.66 387.04 L 160.91 414.40 L 153.15 410.82 L 146.54 407.12 L 140.94 403.34 L 136.25 399.47 L 132.38 395.51 L 129.23 391.47 L 126.75 387.31 L 124.90 383.03 L 123.63 378.58 L 122.94 373.93 L 122.84 369.03 L 123.36 363.83 L 124.56 358.29 L 126.50 352.35 L 129.26 345.96 L 132.94 339.06 L 134.85 336.42 L 137.44 333.83 L 140.47 331.55 L 144.10 329.43 L 149.28 326.45 L 153.93 323.15 L 158.08 319.53 L 161.78 315.57 L 165.04 311.26 L 167.87 306.58 L 170.29 301.50 L 172.29 295.96 L 173.85 289.95 L 174.96 283.39 L 175.58 276.25 L 174.39 281.88 L 173.71 287.38 L 173.51 292.77 L 173.77 298.07 L 174.51 303.30 L 174.89 304.70 L 175.56 305.98 L 176.48 307.09 L 177.66 308.01 L 179.01 308.68 L 180.47 309.06 L 181.99 309.16 L 183.52 308.96 L 214.21 302.17 L 244.83 296.03 L 275.39 290.55 L 305.90 285.71 L 336.36 281.50 L 366.78 277.94 L 397.16 275.01 L 427.52 272.72 L 457.85 271.05 L 488.17 270.01 L 518.48 269.60 L 548.79 269.81 L 579.10 270.66 L 609.42 272.13 Z" fill="#ee803a" fill-rule="nonzero" group-id="1" id="路径" node-id="69" stroke="none" target-height="144.79956" target-width="778.7622" target-x="122.836914" target-y="269.59784"></path><path d="M 719.29 387.81 L 722.43 399.58 L 726.01 410.87 L 730.04 421.70 L 734.50 432.09 L 739.40 442.06 L 744.73 451.64 L 750.50 460.83 L 756.70 469.65 L 763.35 478.12 L 770.46 486.24 L 778.02 494.03 L 786.07 501.50 L 794.62 508.64 L 803.68 515.47 L 813.27 521.98 L 822.25 522.79 L 830.62 524.12 L 838.44 525.94 L 845.74 528.22 L 852.96 531.08 L 859.62 534.30 L 865.75 537.87 L 871.38 541.78 L 876.75 546.17 L 881.57 550.80 L 885.87 555.65 L 889.68 560.74 L 893.08 566.17 L 895.95 571.71 L 898.29 577.38 L 900.13 583.20 L 901.46 589.17 L 902.24 595.15 L 902.49 601.16 L 902.20 607.24 L 901.36 613.24 L 899.96 619.18 L 897.97 625.08 L 895.38 630.95 L 892.30 636.51 L 888.60 641.93 L 884.23 647.23 L 879.16 652.43 L 874.90 656.17 L 870.18 659.78 L 864.99 663.25 L 859.27 666.57 L 853.00 669.75 L 850.71 663.53 L 849.08 657.46 L 848.05 651.51 L 847.62 645.67 L 847.77 639.89 L 848.49 634.15 L 849.79 628.42 L 851.70 622.68 L 854.23 616.90 L 857.44 611.07 L 858.72 608.54 L 859.57 606.15 L 860.01 603.87 L 860.07 601.58 L 859.71 599.62 L 858.96 597.93 L 857.64 596.44 L 856.11 595.50 L 854.30 595.06 L 852.12 595.15 L 849.22 595.90 L 845.80 597.42 L 841.75 599.89 L 837.95 602.70 L 833.84 606.16 L 829.40 610.36 L 823.05 617.08 L 816.59 624.76 L 810.48 632.89 L 804.83 641.32 L 801.35 647.12 L 798.30 652.76 L 795.66 658.24 L 793.36 663.87 L 791.70 669.02 L 790.60 673.73 L 790.13 677.39 L 790.10 680.61 L 790.46 683.47 L 791.18 686.01 L 792.35 688.35 L 793.98 690.32 L 796.14 691.96 L 798.91 693.28 L 786.99 700.92 L 785.02 702.38 L 783.29 704.03 L 781.79 705.89 L 780.55 707.92 L 779.58 710.08 L 778.89 712.39 L 775.85 724.59 L 772.57 736.15 L 769.05 747.08 L 765.31 757.42 L 761.13 767.75 L 756.69 777.60 L 751.98 787.01 L 747.02 795.99 L 741.67 804.81 L 736.02 813.33 L 730.05 821.56 L 723.78 829.52 L 717.21 837.22 L 710.29 844.77 L 703.00 852.17 L 695.33 859.43 L 684.79 868.71 L 673.50 877.95 L 661.42 887.15 L 649.08 895.98 L 635.89 904.96 L 621.80 914.10 L 619.60 915.69 L 617.78 917.42 L 616.32 919.29 L 615.17 921.36 L 614.46 923.44 L 614.16 925.56 L 611.10 983.02 L 608.50 983.02 L 610.11 972.92 L 611.02 964.82 L 611.38 958.42 L 611.32 953.43 L 610.97 949.41 L 610.40 946.22 L 609.66 943.72 L 608.52 941.21 L 607.22 939.31 L 605.78 937.91 L 604.18 936.93 L 601.74 936.11 L 598.97 935.82 L 595.76 936.09 L 592.57 936.76 L 589.07 937.80 L 585.23 939.22 L 573.41 944.36 L 567.26 947.07 L 561.13 949.53 L 556.98 950.96 L 553.02 952.03 L 549.21 952.76 L 537.78 954.14 L 526.54 954.90 L 515.47 955.07 L 504.54 954.65 L 493.75 953.65 L 483.08 952.07 L 472.51 949.91 L 462.02 947.17 L 451.62 943.83 L 441.26 939.89 L 430.96 935.34 L 420.69 930.15 L 409.84 921.89 L 396.44 913.91 L 383.64 905.59 L 371.42 896.96 L 359.76 888.00 L 348.65 878.71 L 338.07 869.10 L 328.00 859.15 L 318.43 848.87 L 309.36 838.25 L 300.77 827.27 L 292.65 815.93 L 285.00 804.22 L 277.81 792.13 L 271.08 779.64 L 264.81 766.74 L 259.00 753.41 L 253.65 739.64 L 248.76 725.41 L 244.35 710.70 L 243.52 708.61 L 242.34 706.80 L 240.78 705.22 L 238.94 703.98 L 236.88 703.10 L 234.56 702.61 L 226.75 701.34 L 219.02 699.59 L 211.38 697.33 L 203.80 694.57 L 196.40 691.37 L 189.22 687.78 L 182.23 683.82 L 175.45 679.45 L 168.89 674.73 L 162.68 669.75 L 156.81 664.52 L 151.26 659.02 L 146.00 653.20 L 141.21 647.26 L 136.89 641.20 L 133.01 635.01 L 129.51 628.53 L 126.61 622.07 L 124.26 615.62 L 122.45 609.17 L 121.39 603.85 L 120.76 598.62 L 120.55 593.45 L 120.74 588.33 L 121.35 583.24 L 122.39 578.25 L 123.90 573.34 L 125.90 568.51 L 128.41 563.73 L 131.46 558.98 L 134.80 554.66 L 138.73 550.42 L 143.30 546.25 L 148.55 542.15 L 154.55 538.13 L 160.48 534.72 L 167.15 531.43 L 174.65 528.27 L 183.03 525.27 L 192.39 522.44 L 196.21 521.10 L 199.42 519.42 L 202.08 517.42 L 204.27 515.09 L 206.03 512.40 L 207.36 509.30 L 210.55 511.57 L 213.43 513.08 L 216.06 513.95 L 218.48 514.28 L 220.76 514.12 L 222.95 513.49 L 225.09 512.35 L 233.62 506.58 L 241.58 500.48 L 248.98 494.06 L 255.85 487.31 L 262.22 480.22 L 268.10 472.78 L 273.50 464.98 L 278.42 456.80 L 282.88 448.23 L 286.88 439.23 L 290.41 429.79 L 293.46 419.88 L 296.04 409.47 L 298.11 398.54 L 299.66 387.04 L 324.33 382.40 L 348.96 378.34 L 373.57 374.88 L 398.16 372.01 L 422.74 369.72 L 447.32 368.02 L 471.90 366.89 L 496.48 366.35 L 521.09 366.39 L 545.72 367.01 L 570.37 368.21 L 595.07 370.00 L 619.80 372.38 L 644.58 375.34 L 669.42 378.90 L 694.32 383.05 L 719.29 387.81 Z M 410.61 484.23 L 414.24 486.14 L 417.95 487.56 L 421.77 488.50 L 425.73 488.97 L 429.86 488.97 L 432.29 488.66 L 434.56 487.94 L 436.69 486.83 L 438.61 485.37 L 440.25 483.60 L 441.63 481.48 L 443.16 477.96 L 443.92 474.81 L 444.04 471.97 L 443.58 469.35 L 442.58 466.84 L 441.08 464.45 L 439.03 462.17 L 436.35 459.98 L 432.46 457.56 L 427.73 455.33 L 422.06 453.29 L 416.26 451.68 L 409.86 450.31 L 402.83 449.19 L 395.76 448.40 L 388.42 447.87 L 380.78 447.61 L 369.35 447.73 L 358.04 448.45 L 350.54 449.27 L 343.44 450.33 L 336.73 451.63 L 330.08 453.26 L 324.18 455.08 L 318.97 457.07 L 315.10 458.88 L 311.84 460.76 L 309.12 462.69 L 306.88 464.68 L 304.92 466.99 L 303.59 469.35 L 302.83 471.80 L 302.59 474.37 L 302.91 476.88 L 303.87 479.62 L 305.58 482.66 L 308.22 486.07 L 309.83 487.50 L 311.69 488.54 L 313.84 489.21 L 316.10 489.45 L 318.44 489.28 L 320.90 488.67 L 330.33 485.61 L 339.75 483.10 L 349.18 481.11 L 358.62 479.64 L 368.10 478.68 L 377.62 478.24 L 387.20 478.30 L 396.85 478.88 L 399.45 479.31 L 402.54 480.26 L 406.23 481.85 L 410.61 484.23 Z M 595.36 485.30 L 607.06 482.75 L 618.69 480.86 L 630.27 479.61 L 641.81 478.99 L 653.34 479.01 L 664.86 479.66 L 676.40 480.95 L 687.96 482.88 L 699.58 485.46 L 704.06 486.31 L 707.82 486.66 L 710.98 486.59 L 713.63 486.18 L 716.31 485.34 L 718.43 484.26 L 720.09 482.98 L 721.36 481.48 L 722.32 479.72 L 722.89 477.87 L 723.10 475.88 L 722.90 473.72 L 722.10 470.95 L 720.62 468.14 L 718.36 465.24 L 716.39 463.36 L 714.01 461.59 L 711.18 459.93 L 707.83 458.41 L 698.19 455.00 L 688.67 452.25 L 679.25 450.14 L 669.91 448.64 L 660.64 447.75 L 651.41 447.45 L 642.22 447.74 L 633.03 448.62 L 623.84 450.10 L 614.62 452.18 L 605.36 454.88 L 596.04 458.22 L 586.65 462.23 L 584.23 463.59 L 582.21 465.13 L 580.56 466.86 L 579.22 468.83 L 578.36 470.84 L 577.94 472.93 L 577.93 476.01 L 578.49 478.72 L 579.61 481.14 L 581.30 483.32 L 582.81 484.48 L 584.73 485.34 L 587.13 485.90 L 589.60 486.06 L 592.33 485.88 L 595.36 485.30 L 595.36 485.30 Z M 351.01 590.29 L 351.64 595.68 L 352.69 600.22 L 354.11 604.01 L 355.85 607.17 L 357.91 609.79 L 360.28 611.92 L 363.00 613.61 L 366.12 614.88 L 369.71 615.70 L 373.85 616.04 L 378.64 615.83 L 384.18 614.97 L 390.59 613.36 L 392.46 612.52 L 394.05 611.29 L 395.39 609.62 L 396.37 607.70 L 396.96 605.55 L 397.16 603.12 L 397.30 599.24 L 397.85 595.50 L 398.79 591.89 L 400.14 588.37 L 401.90 584.94 L 403.11 583.28 L 404.67 581.97 L 406.64 580.98 L 408.79 580.40 L 411.11 580.23 L 413.66 580.51 L 419.44 581.44 L 423.71 581.65 L 426.79 581.33 L 429.07 580.68 L 430.75 579.82 L 431.97 578.80 L 432.79 577.61 L 433.45 575.72 L 433.60 573.57 L 433.19 571.07 L 432.35 568.63 L 431.13 566.09 L 429.48 563.44 L 426.56 559.75 L 423.18 556.43 L 420.69 554.47 L 418.23 552.94 L 415.80 551.78 L 407.38 548.76 L 399.05 546.41 L 390.80 544.69 L 382.60 543.60 L 374.44 543.12 L 366.30 543.24 L 358.14 543.97 L 349.96 545.30 L 341.73 547.27 L 333.42 549.87 L 325.03 553.15 L 322.87 554.33 L 321.08 555.79 L 319.62 557.53 L 318.53 559.51 L 317.89 561.61 L 317.70 563.85 L 318.13 568.27 L 319.04 571.97 L 320.38 575.05 L 322.11 577.61 L 324.24 579.73 L 326.82 581.44 L 329.91 582.75 L 333.62 583.64 L 338.06 584.04 L 343.37 583.87 L 344.78 583.88 L 346.14 584.16 L 347.42 584.70 L 348.58 585.49 L 349.56 586.49 L 350.29 587.65 L 350.78 588.92 L 351.01 590.29 L 351.01 590.29 Z M 685.06 579.59 L 692.31 579.72 L 698.01 579.32 L 702.44 578.51 L 705.78 577.48 L 708.33 576.31 L 710.24 575.05 L 711.63 573.69 L 712.72 572.03 L 713.31 570.32 L 713.46 568.53 L 713.14 566.57 L 712.44 564.74 L 711.32 562.82 L 709.69 560.79 L 707.48 558.63 L 704.29 556.19 L 700.23 553.75 L 695.15 551.32 L 686.99 548.22 L 678.96 545.82 L 671.05 544.10 L 663.22 543.02 L 655.45 542.57 L 647.73 542.75 L 640.02 543.55 L 632.29 544.98 L 624.54 547.06 L 616.73 549.81 L 608.84 553.25 L 600.86 557.43 L 598.72 558.89 L 596.98 560.55 L 595.58 562.43 L 594.55 564.52 L 593.97 566.66 L 593.83 568.89 L 594.27 572.58 L 595.16 575.62 L 596.45 578.12 L 598.13 580.17 L 600.22 581.84 L 602.79 583.13 L 605.93 584.04 L 609.77 584.50 L 614.45 584.43 L 620.12 583.72 L 621.49 583.63 L 622.83 583.82 L 624.10 584.29 L 625.26 585.02 L 626.23 585.98 L 626.95 587.10 L 627.42 588.34 L 627.60 589.68 L 628.19 595.25 L 629.20 599.86 L 630.55 603.65 L 632.22 606.74 L 634.17 609.23 L 636.40 611.22 L 638.96 612.73 L 641.88 613.80 L 645.25 614.41 L 649.14 614.50 L 653.67 614.00 L 658.93 612.80 L 665.04 610.76 L 667.09 609.76 L 668.90 608.43 L 670.49 606.77 L 671.79 604.87 L 672.77 602.74 L 673.45 600.37 L 676.05 586.62 L 676.70 584.57 L 677.74 582.86 L 679.19 581.42 L 680.94 580.36 L 682.88 579.75 L 685.06 579.59 L 685.06 579.59 Z M 205.68 675.86 L 213.98 678.97 L 220.18 680.78 L 224.70 681.63 L 228.27 681.82 L 230.84 681.52 L 232.65 680.85 L 233.90 679.90 L 234.81 678.58 L 235.34 676.94 L 235.47 674.87 L 235.08 672.25 L 234.09 668.92 L 232.46 664.95 L 230.04 660.25 L 225.88 653.31 L 220.58 645.47 L 214.81 637.60 L 208.50 629.49 L 202.00 621.49 L 195.59 613.87 L 183.66 600.19 L 174.51 590.02 L 169.92 584.94 L 168.81 584.00 L 167.51 583.56 L 166.16 583.61 L 164.88 584.17 L 162.28 586.01 L 160.90 587.24 L 159.76 588.74 L 158.87 590.54 L 158.28 592.47 L 157.99 594.57 L 158.00 596.86 L 158.68 602.90 L 159.70 609.09 L 161.09 615.45 L 162.79 621.72 L 164.86 627.94 L 167.28 634.11 L 170.07 640.12 L 173.21 645.87 L 176.71 651.38 L 180.60 656.60 L 184.85 661.39 L 189.47 665.78 L 193.19 668.77 L 197.12 671.45 L 201.28 673.81 L 205.68 675.86 Z M 426.65 778.55 L 435.63 784.79 L 444.47 790.23 L 453.19 794.92 L 461.81 798.89 L 470.33 802.18 L 478.78 804.82 L 487.17 806.82 L 495.53 808.22 L 503.88 809.02 L 512.23 809.22 L 520.60 808.83 L 529.03 807.84 L 537.51 806.24 L 546.09 804.02 L 554.77 801.14 L 563.58 797.59 L 572.53 793.33 L 581.64 788.32 L 590.93 782.53 L 595.96 778.86 L 599.59 775.55 L 602.10 772.57 L 603.69 769.87 L 604.54 767.37 L 604.76 765.01 L 604.40 762.72 L 603.44 760.43 L 601.77 758.07 L 599.25 755.62 L 595.66 753.03 L 593.75 752.10 L 591.68 751.60 L 589.42 751.54 L 587.16 751.90 L 584.93 752.70 L 582.68 753.95 L 574.41 759.23 L 566.31 763.76 L 558.34 767.59 L 550.50 770.75 L 542.77 773.28 L 535.13 775.20 L 527.56 776.53 L 520.03 777.29 L 512.54 777.48 L 505.06 777.12 L 497.56 776.19 L 490.03 774.69 L 482.45 772.60 L 474.80 769.91 L 467.06 766.58 L 459.22 762.58 L 451.26 757.87 L 443.16 752.42 L 441.00 751.19 L 438.82 750.42 L 436.59 750.08 L 434.35 750.16 L 432.28 750.69 L 430.32 751.66 L 426.11 754.63 L 423.04 757.38 L 420.90 759.91 L 419.51 762.28 L 418.76 764.53 L 418.55 766.71 L 418.85 768.88 L 419.71 771.10 L 421.20 773.43 L 423.45 775.90 L 426.65 778.55 Z" fill="#f6c9aa" fill-rule="nonzero" group-id="1" id="形状" node-id="70" stroke="none" target-height="616.6675" target-width="781.94495" target-x="120.54772" target-y="366.3517"></path><path d="M 299.66 387.04 L 298.11 398.54 L 296.04 409.47 L 293.46 419.88 L 290.41 429.79 L 286.88 439.23 L 282.88 448.23 L 278.42 456.80 L 273.50 464.98 L 268.10 472.78 L 262.22 480.22 L 255.85 487.31 L 248.98 494.06 L 241.58 500.48 L 233.62 506.58 L 225.09 512.35 L 222.95 513.49 L 220.76 514.12 L 218.48 514.28 L 216.06 513.95 L 213.43 513.08 L 210.55 511.57 L 207.36 509.30 L 200.53 501.80 L 194.27 494.11 L 188.54 486.22 L 183.34 478.11 L 178.65 469.79 L 174.46 461.23 L 170.76 452.42 L 167.56 443.35 L 164.85 434.01 L 162.63 424.36 L 160.91 414.40 L 299.66 387.04 Z" fill="#504c43" fill-rule="nonzero" group-id="1" id="路径" node-id="71" stroke="none" target-height="127.236206" target-width="138.75533" target-x="160.90846" target-y="387.04364"></path><path d="M 719.29 387.81 L 867.67 414.40 L 864.07 426.82 L 859.88 439.09 L 855.09 451.24 L 849.71 463.27 L 843.71 475.19 L 837.08 487.01 L 829.82 498.75 L 821.89 510.40 L 813.27 521.98 L 803.68 515.47 L 794.62 508.64 L 786.07 501.50 L 778.02 494.03 L 770.46 486.24 L 763.35 478.12 L 756.70 469.65 L 750.50 460.83 L 744.73 451.64 L 739.40 442.06 L 734.50 432.09 L 730.04 421.70 L 726.01 410.87 L 722.43 399.58 L 719.29 387.81 Z" fill="#504c43" fill-rule="nonzero" group-id="1" id="路径" node-id="72" stroke="none" target-height="134.17093" target-width="148.38263" target-x="719.29175" target-y="387.8077"></path><path d="M 853.00 669.75 L 798.91 693.28 L 796.14 691.96 L 793.98 690.32 L 792.35 688.35 L 791.18 686.01 L 790.46 683.47 L 790.10 680.61 L 790.13 677.39 L 790.60 673.73 L 791.70 669.02 L 793.36 663.87 L 795.66 658.24 L 798.30 652.76 L 801.35 647.12 L 804.83 641.32 L 810.48 632.89 L 816.59 624.76 L 823.05 617.08 L 829.40 610.36 L 833.84 606.16 L 837.95 602.70 L 841.75 599.89 L 845.80 597.42 L 849.22 595.90 L 852.12 595.15 L 854.30 595.06 L 856.11 595.50 L 857.64 596.44 L 858.96 597.93 L 859.71 599.62 L 860.07 601.58 L 860.01 603.87 L 859.57 606.15 L 858.72 608.54 L 857.44 611.07 L 854.23 616.90 L 851.70 622.68 L 849.79 628.42 L 848.49 634.15 L 847.77 639.89 L 847.62 645.67 L 848.05 651.51 L 849.08 657.46 L 850.71 663.53 L 853.00 669.75 Z" fill="#f2aa7d" fill-rule="nonzero" group-id="1" id="路径" node-id="73" stroke="none" target-height="98.22064" target-width="69.96533" target-x="790.1034" target-y="595.06274"></path><path d="M 409.84 921.89 L 420.69 930.15 L 420.85 978.74 L 421.01 981.51 L 421.47 984.05 L 422.20 986.41 L 423.25 988.63 L 424.53 990.55 L 426.04 992.19 L 505.50 1068.29 L 507.02 1069.46 L 508.64 1070.33 L 510.36 1070.89 L 512.16 1071.17 L 513.95 1071.15 L 515.75 1070.84 L 517.48 1070.24 L 519.10 1069.34 L 520.63 1068.14 L 608.50 983.02 L 611.10 983.02 L 616.92 991.29 L 622.93 998.97 L 629.12 1006.09 L 635.51 1012.65 L 642.09 1018.70 L 648.87 1024.25 L 655.86 1029.31 L 663.06 1033.91 L 565.87 1262.52 L 561.98 1250.82 L 558.75 1239.20 L 556.18 1227.64 L 554.23 1216.14 L 552.91 1204.67 L 552.20 1193.21 L 552.11 1181.76 L 552.63 1170.30 L 553.77 1158.81 L 555.53 1147.28 L 557.92 1135.68 L 558.35 1133.20 L 558.47 1130.76 L 558.28 1128.36 L 557.79 1126.00 L 557.01 1123.76 L 555.93 1121.62 L 550.80 1113.57 L 545.88 1106.90 L 541.15 1101.46 L 536.60 1097.09 L 532.22 1093.66 L 527.97 1091.07 L 523.84 1089.22 L 519.77 1088.04 L 515.74 1087.49 L 511.69 1087.54 L 507.59 1088.20 L 503.38 1089.50 L 499.02 1091.51 L 494.48 1094.30 L 489.73 1097.98 L 484.72 1102.67 L 479.44 1108.52 L 473.87 1115.66 L 472.62 1117.62 L 471.60 1119.74 L 470.82 1122.02 L 470.14 1125.60 L 470.05 1129.42 L 470.82 1150.42 L 470.96 1171.44 L 470.47 1192.49 L 469.34 1213.58 L 467.57 1234.72 L 465.16 1255.92 L 462.11 1277.19 L 365.53 1048.12 L 364.60 1046.59 L 363.31 1045.38 L 361.61 1044.47 L 359.74 1043.95 L 357.70 1043.83 L 355.44 1044.14 L 313.72 1054.99 L 386.00 1016.03 L 389.42 1013.87 L 392.23 1011.38 L 393.83 1009.50 L 395.11 1007.53 L 396.09 1005.48 L 399.99 995.47 L 403.25 985.36 L 405.89 975.15 L 407.92 964.82 L 409.33 954.34 L 410.12 943.71 L 410.30 932.90 L 409.84 921.89 Z" fill="#ebebdf" fill-rule="nonzero" group-id="1" id="路径" node-id="74" stroke="none" target-height="355.2931" target-width="349.33337" target-x="313.72272" target-y="921.89355"></path><path d="M 420.69 930.15 L 430.96 935.34 L 441.26 939.89 L 451.62 943.83 L 462.02 947.17 L 472.51 949.91 L 483.08 952.07 L 493.75 953.65 L 504.54 954.65 L 515.47 955.07 L 526.54 954.90 L 537.78 954.14 L 549.21 952.76 L 553.02 952.03 L 556.98 950.96 L 561.13 949.53 L 567.26 947.07 L 573.41 944.36 L 585.23 939.22 L 589.07 937.80 L 592.57 936.76 L 595.76 936.09 L 598.97 935.82 L 601.74 936.11 L 604.18 936.93 L 605.78 937.91 L 607.22 939.31 L 608.52 941.21 L 609.66 943.71 L 610.40 946.22 L 610.97 949.41 L 611.32 953.43 L 611.38 958.42 L 611.02 964.82 L 610.11 972.92 L 608.50 983.02 L 520.63 1068.14 L 519.10 1069.34 L 517.48 1070.24 L 515.75 1070.84 L 513.95 1071.15 L 512.16 1071.17 L 510.36 1070.89 L 508.64 1070.33 L 507.02 1069.46 L 505.50 1068.29 L 426.04 992.19 L 424.53 990.55 L 423.25 988.63 L 422.20 986.41 L 421.47 984.05 L 421.01 981.51 L 420.85 978.74 L 420.69 930.15 Z" fill="#f2aa7d" fill-rule="nonzero" group-id="1" id="路径" node-id="75" stroke="none" target-height="141.02393" target-width="190.68262" target-x="420.6927" target-y="930.1455"></path><path d="M 663.06 1033.91 L 718.68 1060.04 L 718.53 1204.60 L 718.32 1207.13 L 717.72 1209.51 L 716.73 1211.78 L 715.39 1213.85 L 713.74 1215.66 L 711.75 1217.22 L 709.53 1218.42 L 707.22 1219.21 L 704.81 1219.61 L 702.36 1219.60 L 699.97 1219.19 L 697.59 1218.35 L 688.53 1214.55 L 680.78 1211.85 L 674.19 1210.08 L 668.60 1209.09 L 663.88 1208.76 L 659.91 1208.98 L 656.56 1209.66 L 653.74 1210.75 L 651.35 1212.23 L 649.35 1214.09 L 647.68 1216.38 L 646.34 1219.16 L 645.35 1222.53 L 644.76 1226.60 L 644.65 1231.49 L 645.11 1237.35 L 646.26 1244.32 L 648.23 1252.58 L 653.48 1272.58 L 658.41 1292.64 L 667.65 1332.74 L 676.50 1372.39 L 676.91 1375.09 L 676.95 1377.76 L 676.64 1380.42 L 675.99 1383.02 L 675.03 1385.52 L 673.73 1387.93 L 672.15 1390.16 L 670.28 1392.21 L 668.10 1394.09 L 426.35 1576.09 L 10.54 1577.16 L 8.52 1576.91 L 6.71 1576.13 L 5.15 1574.90 L 3.92 1573.29 L 3.10 1571.39 L 2.75 1569.21 L 1.51 1525.22 L 0.75 1475.71 L 0.50 1420.24 L 0.84 1358.35 L 1.83 1289.56 L 2.32 1278.80 L 3.35 1268.61 L 4.89 1258.98 L 6.92 1249.85 L 9.43 1241.20 L 12.40 1233.00 L 15.83 1225.21 L 19.71 1217.83 L 24.05 1210.81 L 28.84 1204.14 L 34.12 1197.81 L 39.88 1191.81 L 46.15 1186.11 L 52.95 1180.72 L 60.31 1175.64 L 68.27 1170.86 L 76.86 1166.40 L 73.34 1170.21 L 70.44 1173.92 L 68.10 1177.55 L 66.22 1181.40 L 64.87 1185.43 L 64.07 1189.68 L 63.83 1194.01 L 64.15 1198.85 L 65.09 1204.29 L 76.75 1256.21 L 87.90 1308.37 L 98.56 1360.78 L 99.26 1363.49 L 100.19 1365.89 L 101.37 1368.03 L 102.82 1369.96 L 104.43 1371.51 L 106.20 1372.70 L 109.49 1374.14 L 112.73 1374.96 L 115.94 1375.19 L 119.18 1374.85 L 122.51 1373.90 L 125.96 1372.30 L 129.58 1369.94 L 131.14 1368.46 L 132.34 1366.71 L 133.21 1364.65 L 133.68 1362.47 L 133.75 1360.17 L 133.40 1357.72 L 130.53 1343.84 L 126.34 1322.55 L 121.02 1296.23 L 114.78 1267.27 L 111.37 1252.50 L 107.82 1238.06 L 104.08 1223.91 L 100.35 1210.97 L 96.37 1198.65 L 92.56 1188.41 L 89.74 1181.88 L 87.11 1176.73 L 84.67 1172.76 L 82.44 1169.89 L 80.42 1168.02 L 78.58 1166.91 L 76.86 1166.40 L 279.34 1070.28 L 277.96 1242.65 L 278.22 1245.11 L 279.02 1247.43 L 280.31 1249.55 L 282.10 1251.42 L 284.26 1252.90 L 286.69 1253.94 L 289.29 1254.50 L 292.02 1254.57 L 332.67 1251.51 L 334.15 1251.56 L 335.55 1251.91 L 336.83 1252.55 L 337.94 1253.47 L 338.79 1254.60 L 339.32 1255.85 L 339.53 1257.18 L 339.40 1258.54 L 314.33 1376.21 L 313.60 1380.93 L 313.42 1385.49 L 313.78 1389.92 L 314.68 1394.28 L 316.06 1398.35 L 317.92 1402.16 L 320.26 1405.68 L 323.03 1408.79 L 326.25 1411.51 L 457.06 1505.95 L 459.24 1507.24 L 461.42 1508.05 L 463.63 1508.40 L 465.86 1508.30 L 467.88 1507.74 L 469.75 1506.71 L 471.96 1504.76 L 473.51 1502.70 L 474.47 1500.49 L 474.90 1498.09 L 474.85 1495.64 L 474.37 1492.96 L 473.40 1490.02 L 471.86 1486.76 L 469.45 1482.72 L 466.30 1478.30 L 462.30 1473.47 L 455.76 1466.49 L 447.89 1458.99 L 439.48 1451.61 L 430.30 1444.06 L 420.84 1436.67 L 411.20 1429.44 L 392.26 1415.89 L 375.16 1404.16 L 361.57 1395.01 L 353.15 1389.20 L 351.43 1387.62 L 350.09 1385.85 L 349.11 1383.86 L 348.51 1381.72 L 348.33 1379.54 L 348.56 1377.28 L 351.59 1365.06 L 356.25 1346.77 L 361.74 1324.33 L 364.53 1312.22 L 367.25 1299.64 L 369.78 1286.99 L 371.98 1274.60 L 373.83 1262.37 L 375.12 1251.13 L 375.69 1243.70 L 375.93 1237.06 L 375.86 1231.14 L 375.39 1225.21 L 374.54 1220.39 L 373.39 1216.52 L 372.09 1213.76 L 370.58 1211.69 L 368.86 1210.19 L 366.90 1209.18 L 365.10 1208.86 L 361.58 1208.95 L 357.61 1209.44 L 352.54 1210.41 L 313.88 1218.96 L 312.56 1219.08 L 311.25 1218.84 L 310.02 1218.29 L 308.86 1217.39 L 307.89 1216.25 L 307.13 1214.89 L 306.63 1213.39 L 306.39 1211.78 L 299.66 1071.35 L 299.21 1069.88 L 298.19 1068.59 L 296.76 1067.65 L 294.93 1067.07 L 290.80 1066.46 L 313.72 1054.99 L 355.44 1044.14 L 357.70 1043.83 L 359.74 1043.95 L 361.61 1044.47 L 363.31 1045.38 L 364.60 1046.59 L 365.53 1048.12 L 462.11 1277.19 L 468.93 1289.75 L 475.21 1302.47 L 480.95 1315.36 L 486.16 1328.42 L 490.86 1341.66 L 495.03 1355.10 L 498.68 1368.74 L 501.82 1382.60 L 504.43 1396.69 L 505.48 1401.64 L 506.49 1404.32 L 507.41 1405.54 L 508.25 1405.93 L 509.16 1405.72 L 510.31 1404.69 L 511.85 1402.27 L 513.91 1397.60 L 565.87 1262.52 L 663.06 1033.91 Z" fill="#3079ae" fill-rule="nonzero" group-id="1" id="路径" node-id="76" stroke="none" target-height="543.25574" target-width="718.1793" target-x="0.50115246" target-y="1033.9064"></path><path d="M 718.68 1060.04 L 753.06 1075.32 L 748.94 1244.48 L 748.56 1246.78 L 747.68 1248.79 L 746.35 1250.50 L 744.67 1251.80 L 742.72 1252.62 L 740.53 1252.89 L 691.63 1251.82 L 690.26 1251.92 L 688.98 1252.30 L 687.81 1252.94 L 686.81 1253.82 L 686.04 1254.88 L 685.57 1256.05 L 685.39 1257.28 L 685.52 1258.54 L 714.55 1384.46 L 714.96 1386.97 L 715.06 1389.41 L 714.86 1391.80 L 714.37 1394.15 L 713.61 1396.37 L 712.59 1398.47 L 711.30 1400.41 L 709.77 1402.16 L 707.98 1403.72 L 473.11 1577.31 L 467.69 1578.50 L 461.92 1579.27 L 455.75 1579.62 L 449.15 1579.51 L 442.07 1578.92 L 434.48 1577.79 L 426.35 1576.09 L 668.10 1394.09 L 670.28 1392.21 L 672.15 1390.16 L 673.73 1387.93 L 675.03 1385.52 L 675.99 1383.02 L 676.64 1380.42 L 676.95 1377.76 L 676.91 1375.09 L 676.50 1372.39 L 667.65 1332.74 L 658.42 1292.64 L 653.48 1272.58 L 648.23 1252.58 L 646.26 1244.32 L 645.11 1237.35 L 644.65 1231.49 L 644.76 1226.60 L 645.35 1222.53 L 646.34 1219.16 L 647.68 1216.38 L 649.35 1214.09 L 651.35 1212.23 L 653.74 1210.75 L 656.56 1209.66 L 659.91 1208.98 L 663.88 1208.76 L 668.60 1209.09 L 674.19 1210.08 L 680.78 1211.85 L 688.53 1214.55 L 697.59 1218.35 L 699.97 1219.19 L 702.36 1219.60 L 704.81 1219.61 L 707.22 1219.21 L 709.53 1218.42 L 711.75 1217.22 L 713.74 1215.66 L 715.39 1213.85 L 716.73 1211.78 L 717.72 1209.51 L 718.32 1207.13 L 718.53 1204.60 L 718.68 1060.04 Z" fill="#285f86" fill-rule="nonzero" group-id="1" id="路径" node-id="77" stroke="none" target-height="519.5835" target-width="326.71686" target-x="426.3468" target-y="1060.0376"></path><path d="M 290.80 1066.46 L 294.93 1067.07 L 296.76 1067.65 L 298.19 1068.59 L 299.21 1069.88 L 299.66 1071.35 L 306.39 1211.78 L 306.63 1213.39 L 307.13 1214.89 L 307.89 1216.25 L 308.86 1217.39 L 310.02 1218.29 L 311.25 1218.84 L 312.56 1219.08 L 313.88 1218.96 L 352.54 1210.41 L 357.61 1209.44 L 361.58 1208.95 L 365.10 1208.86 L 366.90 1209.18 L 368.86 1210.19 L 370.58 1211.69 L 372.09 1213.76 L 373.39 1216.52 L 374.54 1220.39 L 375.39 1225.21 L 375.86 1231.14 L 375.93 1237.06 L 375.69 1243.70 L 375.12 1251.13 L 373.83 1262.37 L 371.98 1274.60 L 369.78 1286.99 L 367.25 1299.64 L 364.53 1312.22 L 361.74 1324.33 L 356.25 1346.77 L 351.59 1365.06 L 348.56 1377.28 L 348.33 1379.54 L 348.51 1381.72 L 349.11 1383.86 L 350.09 1385.85 L 351.43 1387.62 L 353.15 1389.20 L 361.57 1395.01 L 375.16 1404.16 L 392.26 1415.89 L 411.20 1429.44 L 420.84 1436.67 L 430.30 1444.06 L 439.48 1451.61 L 447.89 1458.99 L 455.76 1466.49 L 462.30 1473.47 L 466.30 1478.30 L 469.45 1482.72 L 471.86 1486.76 L 473.40 1490.02 L 474.37 1492.96 L 474.85 1495.64 L 474.90 1498.09 L 474.47 1500.49 L 473.51 1502.70 L 471.96 1504.76 L 469.75 1506.71 L 467.88 1507.74 L 465.86 1508.30 L 463.63 1508.40 L 461.42 1508.05 L 459.24 1507.24 L 457.06 1505.95 L 326.25 1411.51 L 323.03 1408.79 L 320.26 1405.68 L 317.92 1402.16 L 316.06 1398.35 L 314.68 1394.28 L 313.78 1389.92 L 313.42 1385.49 L 313.60 1380.93 L 314.33 1376.21 L 339.40 1258.54 L 339.53 1257.18 L 339.32 1255.85 L 338.79 1254.60 L 337.94 1253.47 L 336.83 1252.55 L 335.55 1251.91 L 334.15 1251.56 L 332.67 1251.51 L 292.02 1254.57 L 289.29 1254.50 L 286.69 1253.94 L 284.26 1252.90 L 282.10 1251.42 L 280.31 1249.55 L 279.02 1247.43 L 278.22 1245.11 L 277.96 1242.65 L 279.34 1070.28 L 290.80 1066.46 Z" fill="#285f86" fill-rule="nonzero" group-id="1" id="路径" node-id="78" stroke="none" target-height="441.9436" target-width="196.9389" target-x="277.96356" target-y="1066.4558"></path><path d="M 753.06 1075.32 L 932.62 1159.37 L 892.74 1353.75 L 892.33 1356.39 L 892.27 1358.87 L 892.55 1361.24 L 893.17 1363.53 L 894.10 1365.55 L 895.33 1367.35 L 899.20 1371.49 L 902.55 1374.32 L 905.46 1376.09 L 908.02 1377.04 L 910.31 1377.31 L 912.43 1377.00 L 914.46 1376.10 L 916.45 1374.53 L 918.45 1372.14 L 920.45 1368.70 L 922.44 1363.94 L 924.37 1357.57 L 933.30 1321.66 L 941.70 1285.74 L 949.58 1249.80 L 956.95 1213.84 L 963.79 1177.86 L 972.51 1183.64 L 980.40 1189.56 L 987.50 1195.64 L 993.86 1201.86 L 999.53 1208.22 L 1004.54 1214.75 L 1008.93 1221.44 L 1012.72 1228.31 L 1015.93 1235.38 L 1018.58 1242.66 L 1020.67 1250.18 L 1022.20 1257.97 L 1023.16 1266.04 L 1023.54 1274.44 L 1024.29 1373.26 L 1024.50 1472.23 L 1024.16 1571.35 L 1023.85 1573.37 L 1023.08 1575.14 L 1021.91 1576.66 L 1020.40 1577.83 L 1018.65 1578.57 L 1016.67 1578.84 L 473.11 1577.31 L 707.98 1403.72 L 709.77 1402.16 L 711.30 1400.41 L 712.59 1398.47 L 713.61 1396.37 L 714.37 1394.15 L 714.86 1391.80 L 715.06 1389.41 L 714.96 1386.97 L 714.55 1384.46 L 685.52 1258.54 L 685.39 1257.28 L 685.57 1256.05 L 686.04 1254.88 L 686.81 1253.82 L 687.81 1252.94 L 688.98 1252.30 L 690.26 1251.92 L 691.63 1251.82 L 740.53 1252.89 L 742.72 1252.62 L 744.67 1251.80 L 746.35 1250.50 L 747.68 1248.79 L 748.56 1246.78 L 748.94 1244.48 L 753.06 1075.32 Z" fill="#3079ae" fill-rule="nonzero" group-id="1" id="路径" node-id="79" stroke="none" target-height="503.52295" target-width="551.38776" target-x="473.10797" target-y="1075.3191"></path><path d="M 565.87 1262.52 L 513.91 1397.60 L 511.85 1402.27 L 510.31 1404.69 L 509.16 1405.72 L 508.25 1405.93 L 507.41 1405.54 L 506.49 1404.32 L 505.48 1401.64 L 504.43 1396.69 L 501.82 1382.60 L 498.68 1368.74 L 495.03 1355.10 L 490.86 1341.66 L 486.16 1328.42 L 480.95 1315.36 L 475.21 1302.47 L 468.93 1289.75 L 462.11 1277.19 L 465.16 1255.92 L 467.57 1234.72 L 469.34 1213.58 L 470.47 1192.49 L 470.96 1171.44 L 470.82 1150.42 L 470.05 1129.42 L 470.14 1125.60 L 470.82 1122.02 L 471.60 1119.74 L 472.62 1117.62 L 473.87 1115.66 L 479.44 1108.52 L 484.72 1102.67 L 489.73 1097.98 L 494.48 1094.30 L 499.02 1091.51 L 503.38 1089.50 L 507.59 1088.20 L 511.69 1087.54 L 515.74 1087.49 L 519.77 1088.04 L 523.84 1089.22 L 527.97 1091.07 L 532.22 1093.66 L 536.60 1097.09 L 541.15 1101.46 L 545.88 1106.90 L 550.80 1113.57 L 555.93 1121.62 L 557.01 1123.76 L 557.79 1126.00 L 558.28 1128.36 L 558.47 1130.76 L 558.35 1133.20 L 557.92 1135.68 L 555.53 1147.28 L 553.77 1158.81 L 552.63 1170.30 L 552.11 1181.76 L 552.20 1193.21 L 552.91 1204.67 L 554.23 1216.14 L 556.18 1227.64 L 558.75 1239.20 L 561.98 1250.82 L 565.87 1262.52 Z" fill="#504c43" fill-rule="nonzero" group-id="1" id="路径" node-id="80" stroke="none" target-height="318.44434" target-width="103.760864" target-x="462.10535" target-y="1087.4877"></path><path d="M 932.62 1159.37 L 963.79 1177.86 L 956.95 1213.84 L 949.58 1249.80 L 941.70 1285.74 L 933.30 1321.66 L 924.37 1357.57 L 922.44 1363.94 L 920.45 1368.70 L 918.45 1372.14 L 916.45 1374.53 L 914.46 1376.10 L 912.43 1377.00 L 910.31 1377.31 L 908.02 1377.04 L 905.46 1376.09 L 902.55 1374.32 L 899.20 1371.49 L 895.33 1367.35 L 894.10 1365.55 L 893.17 1363.53 L 892.55 1361.24 L 892.27 1358.87 L 892.33 1356.39 L 892.74 1353.75 L 932.62 1159.37 Z" fill="#285f86" fill-rule="nonzero" group-id="1" id="路径" node-id="81" stroke="none" target-height="217.94446" target-width="71.52185" target-x="892.2727" target-y="1159.3668"></path><path d="M 76.86 1166.40 L 78.58 1166.91 L 80.42 1168.02 L 82.44 1169.89 L 84.67 1172.76 L 87.11 1176.73 L 89.74 1181.88 L 92.56 1188.41 L 96.37 1198.65 L 100.35 1210.97 L 104.08 1223.91 L 107.82 1238.06 L 111.37 1252.50 L 114.78 1267.27 L 121.02 1296.23 L 126.34 1322.55 L 130.53 1343.84 L 133.40 1357.72 L 133.75 1360.17 L 133.68 1362.47 L 133.21 1364.65 L 132.34 1366.71 L 131.14 1368.46 L 129.58 1369.94 L 125.96 1372.30 L 122.51 1373.90 L 119.18 1374.85 L 115.94 1375.19 L 112.73 1374.96 L 109.49 1374.14 L 106.20 1372.70 L 104.43 1371.51 L 102.82 1369.96 L 101.37 1368.03 L 100.19 1365.89 L 99.26 1363.49 L 98.56 1360.78 L 87.90 1308.37 L 76.75 1256.21 L 65.09 1204.29 L 64.15 1198.85 L 63.83 1194.01 L 64.07 1189.68 L 64.87 1185.43 L 66.22 1181.40 L 68.10 1177.55 L 70.44 1173.92 L 73.34 1170.21 L 76.86 1166.40 Z" fill="#285f86" fill-rule="nonzero" group-id="1" id="路径" node-id="82" stroke="none" target-height="208.79163" target-width="69.91998" target-x="63.828323" target-y="1166.3964"></path><path d="M 396.85 478.88 L 387.20 478.30 L 377.62 478.24 L 368.10 478.68 L 358.62 479.64 L 349.18 481.11 L 339.75 483.10 L 330.33 485.61 L 320.90 488.67 L 318.44 489.28 L 316.10 489.45 L 313.84 489.21 L 311.69 488.54 L 309.83 487.50 L 308.22 486.07 L 305.58 482.66 L 303.87 479.62 L 302.91 476.88 L 302.59 474.37 L 302.83 471.80 L 303.59 469.35 L 304.92 466.99 L 306.88 464.68 L 309.12 462.69 L 311.84 460.76 L 315.10 458.88 L 318.97 457.07 L 324.18 455.08 L 330.08 453.26 L 336.73 451.63 L 343.44 450.33 L 350.54 449.27 L 358.04 448.45 L 369.35 447.73 L 380.78 447.61 L 388.42 447.87 L 395.76 448.40 L 402.83 449.19 L 409.86 450.31 L 416.26 451.68 L 422.06 453.29 L 427.73 455.33 L 432.46 457.56 L 436.35 459.98 L 439.03 462.17 L 441.08 464.45 L 442.58 466.84 L 443.58 469.35 L 444.04 471.97 L 443.92 474.81 L 443.16 477.96 L 441.63 481.48 L 440.25 483.60 L 438.61 485.37 L 436.69 486.83 L 434.56 487.94 L 432.29 488.66 L 429.86 488.97 L 425.73 488.97 L 421.77 488.50 L 417.95 487.56 L 414.24 486.14 L 410.61 484.23 L 406.23 481.85 L 402.54 480.26 L 399.45 479.31 L 396.85 478.88 Z" fill="#3c3730" fill-rule="nonzero" group-id="1" id="路径" node-id="83" stroke="none" target-height="41.846558" target-width="141.45068" target-x="302.5937" target-y="447.60767"></path><path d="M 581.30 483.32 L 579.61 481.14 L 578.49 478.72 L 577.93 476.01 L 577.94 472.93 L 578.36 470.84 L 579.22 468.83 L 580.56 466.86 L 582.21 465.13 L 584.23 463.59 L 586.65 462.23 L 596.04 458.22 L 605.36 454.88 L 614.62 452.18 L 623.84 450.10 L 633.03 448.62 L 642.22 447.74 L 651.41 447.45 L 660.64 447.75 L 669.91 448.64 L 679.25 450.14 L 688.67 452.25 L 698.19 455.00 L 707.83 458.41 L 711.18 459.93 L 714.01 461.59 L 716.39 463.36 L 718.36 465.24 L 720.62 468.14 L 722.10 470.95 L 722.90 473.72 L 723.10 475.88 L 722.89 477.87 L 722.32 479.72 L 721.36 481.48 L 720.09 482.98 L 718.43 484.26 L 716.31 485.34 L 713.63 486.18 L 710.98 486.59 L 707.82 486.66 L 704.06 486.31 L 699.58 485.46 L 687.96 482.88 L 676.40 480.95 L 664.86 479.66 L 653.34 479.01 L 641.81 478.99 L 630.27 479.61 L 618.69 480.86 L 607.06 482.75 L 595.36 485.30 L 592.33 485.88 L 589.60 486.06 L 587.13 485.90 L 584.73 485.34 L 582.81 484.48 L 581.30 483.32 L 581.30 483.32 Z" fill="#34322b" fill-rule="nonzero" group-id="1" id="路径" node-id="84" stroke="none" target-height="39.212402" target-width="145.16705" target-x="577.9279" target-y="447.44864"></path><path d="M 343.37 583.87 L 338.06 584.04 L 333.62 583.64 L 329.91 582.75 L 326.82 581.44 L 324.24 579.73 L 322.11 577.61 L 320.38 575.05 L 319.04 571.97 L 318.13 568.27 L 317.70 563.85 L 317.89 561.61 L 318.53 559.51 L 319.62 557.53 L 321.08 555.79 L 322.87 554.33 L 325.03 553.15 L 333.42 549.87 L 341.73 547.27 L 349.96 545.30 L 358.14 543.97 L 366.30 543.24 L 374.44 543.12 L 382.60 543.60 L 390.80 544.69 L 399.05 546.41 L 407.38 548.76 L 415.80 551.78 L 418.23 552.94 L 420.69 554.47 L 423.18 556.43 L 426.56 559.75 L 429.48 563.44 L 431.13 566.09 L 432.35 568.63 L 433.19 571.07 L 433.60 573.57 L 433.45 575.72 L 432.79 577.61 L 431.97 578.80 L 430.75 579.82 L 429.07 580.68 L 426.79 581.33 L 423.71 581.65 L 419.44 581.44 L 413.66 580.51 L 411.11 580.23 L 408.79 580.40 L 406.64 580.98 L 404.67 581.97 L 403.11 583.28 L 401.90 584.94 L 400.14 588.37 L 398.79 591.89 L 397.85 595.50 L 397.30 599.24 L 397.16 603.12 L 396.96 605.55 L 396.37 607.70 L 395.39 609.62 L 394.05 611.29 L 392.46 612.52 L 390.59 613.36 L 384.18 614.97 L 378.64 615.83 L 373.85 616.04 L 369.71 615.70 L 366.12 614.88 L 363.00 613.61 L 360.28 611.92 L 357.91 609.79 L 355.85 607.17 L 354.11 604.01 L 352.69 600.22 L 351.64 595.68 L 351.01 590.29 L 350.78 588.92 L 350.29 587.65 L 349.56 586.49 L 348.58 585.49 L 347.42 584.70 L 346.14 584.16 L 344.78 583.88 L 343.37 583.87 L 343.37 583.87 Z" fill="#34322b" fill-rule="nonzero" group-id="1" id="路径" node-id="85" stroke="none" target-height="72.92212" target-width="115.90387" target-x="317.6959" target-y="543.1195"></path><path d="M 676.05 586.62 L 673.45 600.37 L 672.77 602.74 L 671.79 604.87 L 670.49 606.77 L 668.90 608.43 L 667.09 609.76 L 665.04 610.76 L 658.93 612.80 L 653.67 614.00 L 649.14 614.50 L 645.25 614.41 L 641.88 613.80 L 638.96 612.73 L 636.40 611.22 L 634.17 609.23 L 632.22 606.74 L 630.55 603.65 L 629.20 599.86 L 628.19 595.25 L 627.60 589.68 L 627.42 588.34 L 626.95 587.10 L 626.23 585.98 L 625.26 585.02 L 624.10 584.29 L 622.83 583.82 L 621.49 583.63 L 620.12 583.72 L 614.45 584.43 L 609.77 584.50 L 605.93 584.04 L 602.79 583.13 L 600.22 581.84 L 598.13 580.17 L 596.45 578.12 L 595.16 575.62 L 594.27 572.58 L 593.83 568.89 L 593.98 566.66 L 594.55 564.52 L 595.58 562.43 L 596.98 560.55 L 598.72 558.89 L 600.86 557.43 L 608.84 553.25 L 616.73 549.81 L 624.54 547.06 L 632.29 544.98 L 640.02 543.55 L 647.73 542.75 L 655.45 542.57 L 663.22 543.02 L 671.05 544.10 L 678.96 545.82 L 686.99 548.22 L 695.15 551.32 L 700.23 553.75 L 704.29 556.19 L 707.48 558.63 L 709.69 560.79 L 711.32 562.82 L 712.44 564.74 L 713.14 566.57 L 713.46 568.53 L 713.31 570.32 L 712.72 572.03 L 711.63 573.69 L 710.24 575.05 L 708.33 576.31 L 705.78 577.48 L 702.44 578.51 L 698.01 579.32 L 692.31 579.72 L 685.06 579.59 L 682.88 579.75 L 680.94 580.36 L 679.19 581.42 L 677.74 582.86 L 676.70 584.57 L 676.05 586.62 L 676.05 586.62 Z" fill="#34322b" fill-rule="nonzero" group-id="1" id="路径" node-id="86" stroke="none" target-height="71.92706" target-width="119.6286" target-x="593.83124" target-y="542.5746"></path><path d="M 205.68 675.86 L 201.28 673.81 L 197.12 671.45 L 193.19 668.77 L 189.47 665.78 L 184.85 661.39 L 180.60 656.60 L 176.71 651.38 L 173.21 645.87 L 170.07 640.12 L 167.28 634.11 L 164.86 627.94 L 162.79 621.72 L 161.09 615.45 L 159.70 609.09 L 158.68 602.90 L 158.00 596.86 L 157.99 594.57 L 158.28 592.47 L 158.87 590.54 L 159.76 588.74 L 160.90 587.24 L 162.28 586.01 L 164.88 584.17 L 166.16 583.61 L 167.51 583.56 L 168.81 584.00 L 169.92 584.94 L 174.51 590.02 L 183.66 600.19 L 195.59 613.87 L 202.00 621.49 L 208.50 629.49 L 214.81 637.60 L 220.58 645.47 L 225.88 653.31 L 230.04 660.25 L 232.46 664.95 L 234.09 668.92 L 235.08 672.25 L 235.47 674.87 L 235.34 676.94 L 234.81 678.58 L 233.90 679.90 L 232.65 680.85 L 230.84 681.52 L 228.27 681.82 L 224.70 681.63 L 220.18 680.78 L 213.98 678.97 L 205.68 675.86 Z" fill="#f2aa7d" fill-rule="nonzero" group-id="1" id="路径" node-id="87" stroke="none" target-height="98.260315" target-width="77.48071" target-x="157.9864" target-y="583.56036"></path><path d="M 426.65 778.55 L 423.45 775.90 L 421.20 773.43 L 419.71 771.10 L 418.85 768.88 L 418.55 766.71 L 418.76 764.53 L 419.51 762.28 L 420.90 759.91 L 423.04 757.38 L 426.11 754.63 L 430.32 751.66 L 432.28 750.69 L 434.35 750.16 L 436.59 750.08 L 438.82 750.42 L 441.00 751.19 L 443.16 752.42 L 451.26 757.87 L 459.22 762.58 L 467.06 766.58 L 474.80 769.91 L 482.45 772.60 L 490.03 774.69 L 497.56 776.19 L 505.06 777.12 L 512.54 777.48 L 520.03 777.29 L 527.56 776.53 L 535.13 775.20 L 542.77 773.28 L 550.50 770.75 L 558.34 767.59 L 566.31 763.76 L 574.41 759.23 L 582.68 753.95 L 584.93 752.70 L 587.16 751.90 L 589.42 751.54 L 591.68 751.60 L 593.75 752.10 L 595.66 753.03 L 599.25 755.62 L 601.77 758.07 L 603.44 760.43 L 604.40 762.72 L 604.76 765.01 L 604.54 767.37 L 603.69 769.87 L 602.10 772.57 L 599.59 775.55 L 595.96 778.86 L 590.93 782.53 L 581.64 788.32 L 572.53 793.33 L 563.58 797.59 L 554.77 801.14 L 546.09 804.02 L 537.51 806.24 L 529.03 807.84 L 520.60 808.83 L 512.23 809.22 L 503.88 809.02 L 495.53 808.22 L 487.17 806.82 L 478.78 804.82 L 470.33 802.18 L 461.81 798.89 L 453.19 794.92 L 444.47 790.23 L 435.63 784.79 L 426.65 778.55 Z" fill="#e07084" fill-rule="nonzero" group-id="1" id="路径" node-id="88" stroke="none" target-height="59.143982" target-width="186.21548" target-x="418.5466" target-y="750.0761"></path></g></svg>